G04 Layer_Color=8388736*
%FSLAX25Y25*%
%MOIN*%
G70*
G01*
G75*
%ADD41R,0.01981X0.02769*%
%ADD42R,0.05131X0.07493*%
%ADD43R,0.07493X0.05131*%
%ADD44R,0.05131X0.06312*%
%ADD45R,0.06312X0.05131*%
%ADD46R,0.09894X0.10485*%
%ADD47R,0.01784X0.06902*%
%ADD48R,0.06312X0.06312*%
%ADD49O,0.07887X0.01981*%
%ADD50O,0.01981X0.07887*%
%ADD51R,0.01575X0.01575*%
%ADD52R,0.01575X0.03347*%
%ADD53R,0.03347X0.01575*%
%ADD54R,0.03556X0.04343*%
%ADD55R,0.04343X0.03556*%
%ADD56R,0.06312X0.06312*%
%ADD57R,0.09855X0.09855*%
%ADD58R,0.06706X0.06706*%
%ADD59C,0.06706*%
%ADD60R,0.06706X0.06706*%
%ADD61C,0.05800*%
%ADD62C,0.02769*%
D41*
X383858Y371457D02*
D03*
Y368701D02*
D03*
X401968Y336811D02*
D03*
Y334055D02*
D03*
D42*
X319882Y319587D02*
D03*
X330512D02*
D03*
X354232Y336516D02*
D03*
X343602D02*
D03*
X365256Y358170D02*
D03*
X375886D02*
D03*
X314862Y362106D02*
D03*
X304232D02*
D03*
X322047Y372343D02*
D03*
X332677D02*
D03*
X339665Y369980D02*
D03*
X350295D02*
D03*
D43*
X344193Y328937D02*
D03*
Y318307D02*
D03*
X374606Y338977D02*
D03*
Y349606D02*
D03*
X361221Y317126D02*
D03*
Y327756D02*
D03*
X370571Y319390D02*
D03*
Y330020D02*
D03*
X363582Y340453D02*
D03*
Y351083D02*
D03*
X305610Y353642D02*
D03*
Y343012D02*
D03*
X312992Y327362D02*
D03*
Y337992D02*
D03*
D44*
X355807Y369980D02*
D03*
X361713D02*
D03*
D45*
X379035Y326279D02*
D03*
Y320374D02*
D03*
X313484Y347343D02*
D03*
Y353248D02*
D03*
D46*
X329232Y348327D02*
D03*
D47*
X336909Y359350D02*
D03*
X334350D02*
D03*
X331791D02*
D03*
X329232D02*
D03*
X326673D02*
D03*
X324114D02*
D03*
X321555D02*
D03*
X336909Y337303D02*
D03*
X334350D02*
D03*
X331791D02*
D03*
X329232D02*
D03*
X326673D02*
D03*
X324114D02*
D03*
X321555D02*
D03*
D48*
X89942Y217516D02*
D03*
Y224603D02*
D03*
X346449Y226484D02*
D03*
Y219398D02*
D03*
X184430Y80114D02*
D03*
Y87201D02*
D03*
X101753Y217910D02*
D03*
Y224996D02*
D03*
X78131Y217910D02*
D03*
Y224996D02*
D03*
X417698Y403540D02*
D03*
Y396453D02*
D03*
X176556Y252555D02*
D03*
Y245469D02*
D03*
X330099Y110823D02*
D03*
Y103736D02*
D03*
X188367Y252555D02*
D03*
Y245468D02*
D03*
X353721Y110823D02*
D03*
Y103736D02*
D03*
X341910Y110823D02*
D03*
Y103736D02*
D03*
D49*
X138958Y177162D02*
D03*
Y175193D02*
D03*
Y173224D02*
D03*
Y171256D02*
D03*
Y169288D02*
D03*
Y167319D02*
D03*
Y165350D02*
D03*
Y163382D02*
D03*
Y161414D02*
D03*
Y159445D02*
D03*
Y157476D02*
D03*
Y155508D02*
D03*
Y153540D02*
D03*
Y151571D02*
D03*
Y149602D02*
D03*
Y147634D02*
D03*
X182658D02*
D03*
Y149602D02*
D03*
Y151571D02*
D03*
Y153540D02*
D03*
Y155508D02*
D03*
Y157476D02*
D03*
Y159445D02*
D03*
Y161414D02*
D03*
Y163382D02*
D03*
Y165350D02*
D03*
Y167319D02*
D03*
Y169288D02*
D03*
Y171256D02*
D03*
Y173224D02*
D03*
Y175193D02*
D03*
Y177162D02*
D03*
D50*
X146044Y140547D02*
D03*
X148013D02*
D03*
X149981D02*
D03*
X151950D02*
D03*
X153918D02*
D03*
X155887D02*
D03*
X157855D02*
D03*
X159824D02*
D03*
X161792D02*
D03*
X163761D02*
D03*
X165729D02*
D03*
X167698D02*
D03*
X169666D02*
D03*
X171635D02*
D03*
X173603D02*
D03*
X175572D02*
D03*
Y184248D02*
D03*
X173603D02*
D03*
X171635D02*
D03*
X169666D02*
D03*
X167698D02*
D03*
X165729D02*
D03*
X163761D02*
D03*
X161792D02*
D03*
X159824D02*
D03*
X157855D02*
D03*
X155887D02*
D03*
X153918D02*
D03*
X151950D02*
D03*
X149981D02*
D03*
X148013D02*
D03*
X146044D02*
D03*
D51*
X87552Y79294D02*
D03*
Y81262D02*
D03*
Y83231D02*
D03*
Y85199D02*
D03*
X85584Y79294D02*
D03*
X83615D02*
D03*
X81647D02*
D03*
Y81262D02*
D03*
Y83231D02*
D03*
Y85199D02*
D03*
X83615D02*
D03*
X85584D02*
D03*
X353300Y79294D02*
D03*
Y81262D02*
D03*
Y83231D02*
D03*
Y85199D02*
D03*
X351332Y79294D02*
D03*
X349363D02*
D03*
X347394D02*
D03*
Y81262D02*
D03*
Y83231D02*
D03*
Y85199D02*
D03*
X349363D02*
D03*
X351332D02*
D03*
X225347Y246617D02*
D03*
Y248585D02*
D03*
Y250554D02*
D03*
Y252522D02*
D03*
X223379Y246617D02*
D03*
X221410D02*
D03*
X219442D02*
D03*
Y248585D02*
D03*
Y250554D02*
D03*
Y252522D02*
D03*
X221410D02*
D03*
X223379D02*
D03*
D52*
X219442Y77210D02*
D03*
X221410D02*
D03*
X223379D02*
D03*
X225347D02*
D03*
Y87683D02*
D03*
X223379D02*
D03*
X221410D02*
D03*
X219442D02*
D03*
X81647Y244533D02*
D03*
X83615D02*
D03*
X85584D02*
D03*
X87552D02*
D03*
Y255006D02*
D03*
X85584D02*
D03*
X83615D02*
D03*
X81647D02*
D03*
X347394Y244533D02*
D03*
X349363D02*
D03*
X351332D02*
D03*
X353300D02*
D03*
Y255006D02*
D03*
X351332D02*
D03*
X349363D02*
D03*
X347394D02*
D03*
D53*
X226725Y80478D02*
D03*
Y82446D02*
D03*
Y84415D02*
D03*
X218064D02*
D03*
Y82446D02*
D03*
Y80478D02*
D03*
X88930Y247801D02*
D03*
Y249769D02*
D03*
Y251738D02*
D03*
X80269D02*
D03*
Y249769D02*
D03*
Y247801D02*
D03*
X354678D02*
D03*
Y249769D02*
D03*
Y251738D02*
D03*
X346017D02*
D03*
Y249769D02*
D03*
Y247801D02*
D03*
D54*
X319273Y256886D02*
D03*
X325178D02*
D03*
X130296Y245075D02*
D03*
X136202D02*
D03*
X130296Y252949D02*
D03*
X136202D02*
D03*
X325178Y249012D02*
D03*
X319273D02*
D03*
X136202Y260823D02*
D03*
X130296D02*
D03*
X321241Y75784D02*
D03*
X315335D02*
D03*
X83052Y111217D02*
D03*
X88957D02*
D03*
X83052Y119091D02*
D03*
X88957D02*
D03*
X321241Y83658D02*
D03*
X315335D02*
D03*
X260217Y256886D02*
D03*
X266123D02*
D03*
X260217Y249012D02*
D03*
X266123D02*
D03*
X343898Y362008D02*
D03*
X349803D02*
D03*
X349902Y356201D02*
D03*
X343996D02*
D03*
X343209Y312106D02*
D03*
X337303D02*
D03*
X349902Y344390D02*
D03*
X343996D02*
D03*
X355315Y350492D02*
D03*
X349410D02*
D03*
D55*
X223800Y104327D02*
D03*
Y110232D02*
D03*
X215926Y104327D02*
D03*
Y110232D02*
D03*
X231674Y110233D02*
D03*
Y104327D02*
D03*
X334842Y238484D02*
D03*
Y244390D02*
D03*
X356791Y355217D02*
D03*
Y361122D02*
D03*
X336811Y324508D02*
D03*
Y318602D02*
D03*
X351378Y324508D02*
D03*
Y318602D02*
D03*
X346555Y406693D02*
D03*
Y400787D02*
D03*
D56*
X259627Y79721D02*
D03*
X266713D02*
D03*
X124981Y75784D02*
D03*
X117895D02*
D03*
X124981Y99406D02*
D03*
X117894D02*
D03*
X124981Y87594D02*
D03*
X117895D02*
D03*
X180887Y233264D02*
D03*
X187973D02*
D03*
D57*
X390551Y344291D02*
D03*
Y326575D02*
D03*
X404724Y352559D02*
D03*
Y370275D02*
D03*
D58*
X305315Y382972D02*
D03*
X173702Y270075D02*
D03*
D59*
X305315Y392972D02*
D03*
X315315Y382972D02*
D03*
Y392972D02*
D03*
X325315Y382972D02*
D03*
Y392972D02*
D03*
X335315Y382972D02*
D03*
Y392972D02*
D03*
X345315Y382972D02*
D03*
Y392972D02*
D03*
X355315Y382972D02*
D03*
Y392972D02*
D03*
X365315Y382972D02*
D03*
Y392972D02*
D03*
X375315Y382972D02*
D03*
Y392972D02*
D03*
X55229Y79570D02*
D03*
X45229D02*
D03*
X55229Y89569D02*
D03*
X45229D02*
D03*
X55229Y99569D02*
D03*
X45229D02*
D03*
X55229Y109570D02*
D03*
X45229D02*
D03*
X55229Y119570D02*
D03*
X45229D02*
D03*
X55229Y129569D02*
D03*
X45229D02*
D03*
X55229Y139569D02*
D03*
X45229D02*
D03*
X55229Y149569D02*
D03*
X45229D02*
D03*
X55229Y159570D02*
D03*
X45229D02*
D03*
X55229Y169570D02*
D03*
X45229D02*
D03*
X55229Y179569D02*
D03*
X45229D02*
D03*
X55229Y189569D02*
D03*
X45229D02*
D03*
X55229Y199569D02*
D03*
X45229D02*
D03*
X55229Y209570D02*
D03*
X45229D02*
D03*
X55229Y219569D02*
D03*
X45229D02*
D03*
X55229Y229570D02*
D03*
X45229D02*
D03*
X55229Y239569D02*
D03*
X45229D02*
D03*
X55229Y249570D02*
D03*
X243702Y280075D02*
D03*
Y270075D02*
D03*
X233701Y280075D02*
D03*
Y270075D02*
D03*
X223702Y280075D02*
D03*
Y270075D02*
D03*
X213702Y280075D02*
D03*
Y270075D02*
D03*
X203701Y280075D02*
D03*
Y270075D02*
D03*
X193702Y280075D02*
D03*
Y270075D02*
D03*
X183702Y280075D02*
D03*
Y270075D02*
D03*
X173702Y280075D02*
D03*
X389875Y79570D02*
D03*
X379875D02*
D03*
X389875Y89569D02*
D03*
X379875D02*
D03*
X389875Y99569D02*
D03*
X379875D02*
D03*
X389875Y109570D02*
D03*
X379875D02*
D03*
X389875Y119570D02*
D03*
X379875D02*
D03*
X389875Y129569D02*
D03*
X379875D02*
D03*
X389875Y139569D02*
D03*
X379875D02*
D03*
X389875Y149569D02*
D03*
X379875D02*
D03*
X389875Y159570D02*
D03*
X379875D02*
D03*
X389875Y169570D02*
D03*
X379875D02*
D03*
X389875Y179569D02*
D03*
X379875D02*
D03*
X389875Y189569D02*
D03*
X379875D02*
D03*
X389875Y199569D02*
D03*
X379875D02*
D03*
X389875Y209570D02*
D03*
X379875D02*
D03*
X389875Y219569D02*
D03*
X379875D02*
D03*
X389875Y229570D02*
D03*
X379875D02*
D03*
X389875Y239569D02*
D03*
X379875D02*
D03*
X389875Y249570D02*
D03*
D60*
X45229D02*
D03*
X379875D02*
D03*
D61*
X401968Y392126D02*
D03*
X390945Y403543D02*
D03*
X396063Y398031D02*
D03*
X377953Y302362D02*
D03*
X381496Y407480D02*
D03*
X408268Y388189D02*
D03*
X414961Y387402D02*
D03*
X421654D02*
D03*
X426378Y381890D02*
D03*
X428346Y375197D02*
D03*
X425591Y338583D02*
D03*
X400000Y312205D02*
D03*
X395669Y307874D02*
D03*
X387008Y303543D02*
D03*
X428150Y318799D02*
D03*
X394094Y313779D02*
D03*
X399213Y318110D02*
D03*
X222255Y117624D02*
D03*
X389764Y309055D02*
D03*
X423228Y348425D02*
D03*
X423622Y356299D02*
D03*
X422441Y377165D02*
D03*
X418504Y382283D02*
D03*
X411024Y382677D02*
D03*
X401575Y385827D02*
D03*
X395669Y391732D02*
D03*
X389764Y397638D02*
D03*
X385039Y402559D02*
D03*
X389075Y381791D02*
D03*
X378080Y402401D02*
D03*
X313583Y226083D02*
D03*
X295276Y391732D02*
D03*
Y383858D02*
D03*
Y375984D02*
D03*
Y368110D02*
D03*
Y360236D02*
D03*
Y352362D02*
D03*
Y344488D02*
D03*
Y336614D02*
D03*
X298333Y330505D02*
D03*
X302461Y326476D02*
D03*
X306693Y322441D02*
D03*
X311122Y317618D02*
D03*
X315059Y313287D02*
D03*
X320374Y308957D02*
D03*
X342520Y408169D02*
D03*
X334350Y408268D02*
D03*
X326870Y408169D02*
D03*
X318898Y408268D02*
D03*
X250984Y225984D02*
D03*
X362205Y403543D02*
D03*
X354331D02*
D03*
X338583D02*
D03*
X330709D02*
D03*
X322835D02*
D03*
X315945Y402559D02*
D03*
X309555D02*
D03*
X108194Y109107D02*
D03*
X301083Y320472D02*
D03*
X314469Y306988D02*
D03*
X293307Y103150D02*
D03*
X370177Y302461D02*
D03*
X362500Y302362D02*
D03*
X354331D02*
D03*
X346358Y302264D02*
D03*
X338681Y301969D02*
D03*
X330807Y302264D02*
D03*
X322244Y303051D02*
D03*
X309154Y311811D02*
D03*
X304921Y316732D02*
D03*
X296555Y324705D02*
D03*
X292323Y331201D02*
D03*
X290650Y340453D02*
D03*
Y348327D02*
D03*
X290453Y356299D02*
D03*
X290551Y363976D02*
D03*
X290453Y372047D02*
D03*
Y379823D02*
D03*
Y387795D02*
D03*
X192304Y170272D02*
D03*
X217519Y140354D02*
D03*
X289370Y309055D02*
D03*
X374016Y307087D02*
D03*
X366142D02*
D03*
X358268D02*
D03*
X350394D02*
D03*
X342520D02*
D03*
X334646D02*
D03*
X326772D02*
D03*
X356806Y345480D02*
D03*
X327165Y367618D02*
D03*
X155905Y269390D02*
D03*
X215059Y256594D02*
D03*
X268091Y264465D02*
D03*
X61221Y254626D02*
D03*
X85433Y233858D02*
D03*
X97933Y243307D02*
D03*
X61614Y83760D02*
D03*
X70571Y98130D02*
D03*
X131693Y81693D02*
D03*
X175295Y98327D02*
D03*
X207185Y101083D02*
D03*
X241350Y80516D02*
D03*
X251378Y84252D02*
D03*
X275984Y75492D02*
D03*
X303445Y76279D02*
D03*
X329232Y76968D02*
D03*
X364567Y108563D02*
D03*
X196457Y126476D02*
D03*
X169390Y87106D02*
D03*
X137697Y93405D02*
D03*
X81595Y90748D02*
D03*
X123130Y116929D02*
D03*
X74016Y118504D02*
D03*
X96161Y143701D02*
D03*
X64370Y223622D02*
D03*
X82579Y193307D02*
D03*
X97441Y195571D02*
D03*
X203346Y186024D02*
D03*
X169980Y210039D02*
D03*
X148622Y224410D02*
D03*
X110039Y222933D02*
D03*
X108563Y238681D02*
D03*
X112894Y251969D02*
D03*
X142913Y250492D02*
D03*
X197441Y252756D02*
D03*
X378740Y275000D02*
D03*
X320276Y267913D02*
D03*
X361319Y262402D02*
D03*
X330610Y257283D02*
D03*
X242618Y98032D02*
D03*
X338287Y352854D02*
D03*
X134016Y215154D02*
D03*
X90416Y170754D02*
D03*
X147127Y132772D02*
D03*
X179115Y125980D02*
D03*
X137481Y205213D02*
D03*
X175375Y214957D02*
D03*
X196044Y136020D02*
D03*
X192993Y197312D02*
D03*
X43471Y274228D02*
D03*
X68174Y251731D02*
D03*
Y265231D02*
D03*
X137580Y182280D02*
D03*
X350785Y239772D02*
D03*
X105709Y95177D02*
D03*
X207855Y240941D02*
D03*
X289745Y83559D02*
D03*
X276064Y104524D02*
D03*
X204508Y124307D02*
D03*
X358353Y84907D02*
D03*
X151851Y96650D02*
D03*
X175854Y147307D02*
D03*
X209653Y77106D02*
D03*
X231587Y98623D02*
D03*
X204954Y80906D02*
D03*
X203426Y87595D02*
D03*
X97135Y119007D02*
D03*
X182954Y93205D02*
D03*
X229753Y77106D02*
D03*
X212776Y95370D02*
D03*
X246713Y75050D02*
D03*
X161694Y204918D02*
D03*
X143387Y269189D02*
D03*
X163453Y241066D02*
D03*
X167008Y257969D02*
D03*
X100276Y251670D02*
D03*
X154811Y132385D02*
D03*
X165040Y115055D02*
D03*
X125867Y135429D02*
D03*
X182166Y139662D02*
D03*
X120674Y246731D02*
D03*
X139654Y193115D02*
D03*
X139453Y236006D02*
D03*
X199674Y197431D02*
D03*
X69854Y241807D02*
D03*
X85217Y175587D02*
D03*
X362498Y244496D02*
D03*
X77737Y168697D02*
D03*
X172754Y161706D02*
D03*
X151260Y256591D02*
D03*
X201950Y207181D02*
D03*
X339548Y256000D02*
D03*
X351332Y266906D02*
D03*
X108544Y230311D02*
D03*
X370574Y261331D02*
D03*
X75753Y109107D02*
D03*
X73013Y80508D02*
D03*
X103721Y81788D02*
D03*
X70354Y91106D02*
D03*
X88583Y96063D02*
D03*
X335906Y87988D02*
D03*
X318288Y102949D02*
D03*
X341535Y75394D02*
D03*
X361221Y72577D02*
D03*
X358446Y99012D02*
D03*
X369094Y79331D02*
D03*
X156477Y201079D02*
D03*
X148453Y176806D02*
D03*
X161407Y192132D02*
D03*
X156189Y175399D02*
D03*
X168879Y193992D02*
D03*
X163612Y175651D02*
D03*
X175554Y177306D02*
D03*
X295662Y300691D02*
D03*
X172045Y172415D02*
D03*
X167312Y166638D02*
D03*
X306477Y99406D02*
D03*
X274489Y85036D02*
D03*
X172054Y155508D02*
D03*
X234460Y89867D02*
D03*
X167418Y151571D02*
D03*
X393602Y74410D02*
D03*
X189253Y100806D02*
D03*
X194254Y77706D02*
D03*
X172127Y132280D02*
D03*
X168977Y122634D02*
D03*
X163375Y127956D02*
D03*
X152792Y154606D02*
D03*
X151268Y123427D02*
D03*
X138957Y138776D02*
D03*
X148757Y158936D02*
D03*
X155853Y167306D02*
D03*
X105892Y176186D02*
D03*
X66910Y149209D02*
D03*
X67012Y140948D02*
D03*
X114750Y151185D02*
D03*
X74574Y139431D02*
D03*
X126359Y151768D02*
D03*
X65354Y191535D02*
D03*
X120749Y156394D02*
D03*
X103053Y185406D02*
D03*
X132656Y196650D02*
D03*
X147353Y169406D02*
D03*
X381791Y349409D02*
D03*
X363976Y334350D02*
D03*
X403543Y322835D02*
D03*
X405118Y317323D02*
D03*
X419685Y339370D02*
D03*
X409842Y322835D02*
D03*
X421260Y333465D02*
D03*
X381890Y307087D02*
D03*
X415748Y328740D02*
D03*
X409449D02*
D03*
X415354Y334646D02*
D03*
X428346Y367717D02*
D03*
Y360236D02*
D03*
Y352362D02*
D03*
Y344882D02*
D03*
X423228Y371260D02*
D03*
Y363779D02*
D03*
X370079Y403543D02*
D03*
X366043Y408169D02*
D03*
X358071D02*
D03*
X350394D02*
D03*
X357166Y239268D02*
D03*
X357382Y227756D02*
D03*
X367963Y371408D02*
D03*
X262008Y279331D02*
D03*
X284350Y255709D02*
D03*
X277658Y269193D02*
D03*
X293898Y253346D02*
D03*
X289961Y271063D02*
D03*
X337795Y344193D02*
D03*
X406693Y337795D02*
D03*
X325787Y326575D02*
D03*
X329521Y331052D02*
D03*
X244094Y225984D02*
D03*
X218701Y213976D02*
D03*
X290740Y395661D02*
D03*
X298713Y397138D02*
D03*
X298228Y405512D02*
D03*
X293307Y401575D02*
D03*
X303150D02*
D03*
X182087Y190551D02*
D03*
X186024Y182185D02*
D03*
X197353Y166407D02*
D03*
X192993Y180016D02*
D03*
X117008Y145370D02*
D03*
X382579Y334055D02*
D03*
X385335Y317028D02*
D03*
X430413Y407972D02*
D03*
X371063Y240748D02*
D03*
X217553Y240207D02*
D03*
X147225Y199701D02*
D03*
X150965Y205902D02*
D03*
X152559Y214961D02*
D03*
X165264Y160933D02*
D03*
X161718Y149316D02*
D03*
X157776Y161516D02*
D03*
X123721Y255807D02*
D03*
X200554Y161546D02*
D03*
X207776Y149803D02*
D03*
X200591Y153937D02*
D03*
X212598Y145177D02*
D03*
X234922Y254721D02*
D03*
X245177Y258661D02*
D03*
X121358Y232086D02*
D03*
X224992Y98918D02*
D03*
D62*
X326982Y346170D02*
D03*
X331398Y350492D02*
D03*
Y346162D02*
D03*
X326982Y347744D02*
D03*
M02*
