G04 Layer_Physical_Order=4*
G04 Layer_Color=16711680*
%FSLAX25Y25*%
%MOIN*%
G70*
G01*
G75*
%ADD12R,0.06693X0.04331*%
%ADD17R,0.05512X0.05512*%
%ADD25R,0.05512X0.05512*%
%ADD27C,0.01000*%
%ADD28R,0.05906X0.05906*%
%ADD29C,0.05906*%
%ADD30R,0.05906X0.05906*%
%ADD31C,0.05000*%
%ADD32C,0.01969*%
%ADD34O,0.02362X0.09055*%
G36*
X348629Y405112D02*
X349480Y404759D01*
X350394Y404639D01*
X350501Y404653D01*
X350887Y404200D01*
X350866Y404043D01*
X354331D01*
Y403043D01*
X350866D01*
X350921Y402630D01*
X351273Y401778D01*
X351835Y401047D01*
X352085Y400855D01*
X351916Y400355D01*
X340998D01*
X340828Y400855D01*
X341079Y401047D01*
X341640Y401778D01*
X341993Y402630D01*
X342047Y403043D01*
X338583D01*
Y404043D01*
X342047D01*
X342026Y404200D01*
X342413Y404653D01*
X342520Y404639D01*
X343433Y404759D01*
X344285Y405112D01*
X344670Y405407D01*
X348244D01*
X348629Y405112D01*
D02*
G37*
G36*
X385539Y399095D02*
X385953Y399149D01*
X386082Y399203D01*
X386465Y398820D01*
X386354Y398552D01*
X386299Y398138D01*
X389764D01*
Y397638D01*
X390264D01*
Y394173D01*
X390677Y394228D01*
X391529Y394581D01*
X392260Y395142D01*
X392411Y395151D01*
X393183Y394379D01*
X393173Y394229D01*
X392612Y393497D01*
X392259Y392646D01*
X392205Y392232D01*
X395669D01*
Y391732D01*
X396169D01*
Y388268D01*
X396583Y388322D01*
X397434Y388675D01*
X398165Y389236D01*
X398316Y389246D01*
X399089Y388474D01*
X399079Y388323D01*
X398518Y387592D01*
X398165Y386740D01*
X398110Y386327D01*
X401575D01*
Y385827D01*
X402075D01*
Y382362D01*
X402489Y382417D01*
X403340Y382769D01*
X404071Y383330D01*
X404632Y384062D01*
X404925Y384770D01*
X407484Y383881D01*
X407614Y383591D01*
X407559Y383177D01*
X411024D01*
Y382677D01*
X411524D01*
Y379213D01*
X411937Y379267D01*
X412789Y379620D01*
X413520Y380181D01*
X414081Y380912D01*
X414433Y381764D01*
X414486Y382160D01*
X414990D01*
X415094Y381370D01*
X415447Y380518D01*
X416008Y379787D01*
X416739Y379226D01*
X417590Y378873D01*
X418004Y378819D01*
Y382283D01*
X419004D01*
Y378614D01*
X419166Y378404D01*
X419031Y378079D01*
X418977Y377665D01*
X422441D01*
Y376665D01*
X418977D01*
X419031Y376252D01*
X419384Y375400D01*
X419945Y374669D01*
X420523Y374226D01*
X420653Y373934D01*
X420608Y373595D01*
X420171Y373025D01*
X419818Y372174D01*
X419764Y371760D01*
X423228D01*
Y370760D01*
X419764D01*
X419818Y370346D01*
X420171Y369495D01*
X420732Y368764D01*
X421463Y368203D01*
X422315Y367850D01*
X422739Y367794D01*
X422748Y367751D01*
X422352Y367194D01*
X422315Y367189D01*
X421463Y366837D01*
X420732Y366276D01*
X420171Y365545D01*
X419818Y364693D01*
X419764Y364280D01*
X423228D01*
Y363280D01*
X419764D01*
X419818Y362866D01*
X420171Y362014D01*
X420732Y361283D01*
X421463Y360722D01*
X422315Y360370D01*
X423105Y360266D01*
Y359761D01*
X422708Y359709D01*
X421857Y359356D01*
X421126Y358795D01*
X420565Y358064D01*
X420212Y357213D01*
X420158Y356799D01*
X423622D01*
Y355799D01*
X420158D01*
X420212Y355385D01*
X420565Y354534D01*
X421126Y353803D01*
X421857Y353242D01*
X422708Y352889D01*
X423622Y352769D01*
X423623Y352768D01*
Y352278D01*
X423251Y351952D01*
X423228Y351955D01*
X422315Y351835D01*
X421463Y351482D01*
X420732Y350921D01*
X420171Y350190D01*
X419818Y349339D01*
X419764Y348925D01*
X423228D01*
Y347925D01*
X419764D01*
X419818Y347512D01*
X420171Y346660D01*
X420732Y345929D01*
X421463Y345368D01*
X422232Y345049D01*
X421466Y342815D01*
X421011Y342609D01*
X420599Y342780D01*
X420185Y342834D01*
Y339370D01*
X419685D01*
Y338870D01*
X416221D01*
X416261Y338561D01*
X416067Y338273D01*
X415879Y338107D01*
X415854Y338110D01*
Y334646D01*
X415354D01*
Y334146D01*
X411890D01*
X411944Y333732D01*
X412297Y332881D01*
X412858Y332149D01*
X412889Y331680D01*
X412415Y331206D01*
X411945Y331236D01*
X411214Y331797D01*
X410362Y332150D01*
X409949Y332205D01*
Y328740D01*
X409449D01*
Y328240D01*
X405984D01*
X406039Y327826D01*
X406392Y326975D01*
X406953Y326244D01*
X406983Y325774D01*
X406509Y325300D01*
X406039Y325331D01*
X405308Y325892D01*
X404457Y326244D01*
X404043Y326299D01*
Y322835D01*
X403543D01*
Y322335D01*
X400079D01*
X400120Y322025D01*
X399926Y321738D01*
X399737Y321571D01*
X399713Y321575D01*
Y318110D01*
X399213D01*
Y317610D01*
X395748D01*
X395774Y317413D01*
X395377Y317063D01*
X395341Y317052D01*
X395008Y317189D01*
X394595Y317244D01*
Y313779D01*
X394094D01*
Y313280D01*
X390630D01*
X390671Y312970D01*
X390477Y312683D01*
X390288Y312516D01*
X390264Y312520D01*
Y309055D01*
X389764D01*
Y308555D01*
X386299D01*
X386354Y308141D01*
X386463Y307878D01*
X386244Y307400D01*
X385825Y307265D01*
X385359Y307553D01*
X385300Y308000D01*
X384947Y308852D01*
X384386Y309583D01*
X383655Y310144D01*
X382804Y310496D01*
X382390Y310551D01*
Y307087D01*
X381390D01*
Y310551D01*
X380976Y310496D01*
X380125Y310144D01*
X379394Y309583D01*
X378833Y308852D01*
X378480Y308000D01*
X378360Y307087D01*
X377953Y306668D01*
X377546Y307087D01*
X377426Y308000D01*
X377073Y308852D01*
X376512Y309583D01*
X375781Y310144D01*
X374929Y310496D01*
X374516Y310551D01*
Y307087D01*
X373516D01*
Y310551D01*
X373102Y310496D01*
X372251Y310144D01*
X371519Y309583D01*
X370958Y308852D01*
X370606Y308000D01*
X370486Y307087D01*
X370079Y306668D01*
X369672Y307087D01*
X369552Y308000D01*
X369199Y308852D01*
X368638Y309583D01*
X367907Y310144D01*
X367055Y310496D01*
X366642Y310551D01*
Y307087D01*
X365642D01*
Y310551D01*
X365228Y310496D01*
X364377Y310144D01*
X363646Y309583D01*
X363085Y308852D01*
X362732Y308000D01*
X362612Y307087D01*
X362205Y306668D01*
X361798Y307087D01*
X361678Y308000D01*
X361325Y308852D01*
X360764Y309583D01*
X360033Y310144D01*
X359181Y310496D01*
X358768Y310551D01*
Y307087D01*
X357768D01*
Y310551D01*
X357354Y310496D01*
X356503Y310144D01*
X355771Y309583D01*
X355210Y308852D01*
X354858Y308000D01*
X354737Y307087D01*
X354331Y306668D01*
X353924Y307087D01*
X353804Y308000D01*
X353451Y308852D01*
X352890Y309583D01*
X352159Y310144D01*
X351307Y310496D01*
X350894Y310551D01*
Y307087D01*
X349894D01*
Y310551D01*
X349480Y310496D01*
X348629Y310144D01*
X347898Y309583D01*
X347337Y308852D01*
X347239Y308616D01*
X345675D01*
X345577Y308852D01*
X345016Y309583D01*
X344285Y310144D01*
X343433Y310496D01*
X343020Y310551D01*
Y307087D01*
X342020D01*
Y310551D01*
X341606Y310496D01*
X340755Y310144D01*
X340023Y309583D01*
X339462Y308852D01*
X339110Y308000D01*
X338989Y307087D01*
X338583Y306668D01*
X338176Y307087D01*
X338056Y308000D01*
X337703Y308852D01*
X337142Y309583D01*
X336411Y310144D01*
X335559Y310496D01*
X335146Y310551D01*
Y307087D01*
X334146D01*
Y310551D01*
X333732Y310496D01*
X332881Y310144D01*
X332149Y309583D01*
X331588Y308852D01*
X331236Y308000D01*
X331116Y307087D01*
X330709Y306668D01*
X330302Y307087D01*
X330182Y308000D01*
X329829Y308852D01*
X329268Y309583D01*
X328537Y310144D01*
X327685Y310496D01*
X327272Y310551D01*
Y307087D01*
X326272D01*
Y310551D01*
X325858Y310496D01*
X325007Y310144D01*
X324322Y309618D01*
X323918Y309679D01*
X323805Y309709D01*
X323784Y309870D01*
X323431Y310722D01*
X323246Y310963D01*
X323493Y311463D01*
X372718D01*
X373303Y311579D01*
X373799Y311911D01*
X382962Y321073D01*
X383294Y321570D01*
X383410Y322155D01*
Y328436D01*
X383294Y329021D01*
X382962Y329517D01*
X382379Y330100D01*
X382652Y330535D01*
X383492Y330645D01*
X384344Y330998D01*
X385075Y331559D01*
X385636Y332290D01*
X385989Y333141D01*
X386109Y334055D01*
X385989Y334969D01*
X385636Y335820D01*
X385075Y336551D01*
X384344Y337112D01*
X383492Y337465D01*
X382579Y337585D01*
X381665Y337465D01*
X380814Y337112D01*
X380083Y336551D01*
X379521Y335820D01*
X379169Y334969D01*
X379048Y334055D01*
X379169Y333141D01*
X379206Y333052D01*
X378872Y332552D01*
X377321D01*
X376736Y332436D01*
X376239Y332104D01*
X374845Y330709D01*
X374682Y330466D01*
X374056Y330283D01*
X374002Y330319D01*
X373307Y330458D01*
X372612Y330319D01*
X372023Y329926D01*
X371629Y329337D01*
X371491Y328642D01*
Y321949D01*
X371629Y321254D01*
X372023Y320665D01*
X372321Y320465D01*
X372404Y319841D01*
X369151Y316588D01*
X368194D01*
X367987Y317088D01*
X369389Y318490D01*
X369720Y318986D01*
X369836Y319571D01*
Y321032D01*
X369985Y321254D01*
X370123Y321949D01*
Y328642D01*
X369985Y329337D01*
X369591Y329926D01*
X369002Y330319D01*
X368307Y330458D01*
X367612Y330319D01*
X367023Y329926D01*
X366629Y329337D01*
X366491Y328642D01*
Y321949D01*
X366629Y321254D01*
X366778Y321032D01*
Y320205D01*
X365970Y319397D01*
X364222D01*
X364158Y319894D01*
X364880Y320376D01*
X365362Y321098D01*
X365531Y321949D01*
Y324795D01*
X361083D01*
Y321949D01*
X361253Y321098D01*
X361735Y320376D01*
X362456Y319894D01*
X362393Y319397D01*
X359222D01*
X359158Y319894D01*
X359880Y320376D01*
X360362Y321098D01*
X360531Y321949D01*
Y324795D01*
X356083D01*
Y321949D01*
X356253Y321098D01*
X356735Y320376D01*
X357456Y319894D01*
X357393Y319397D01*
X354222D01*
X354158Y319894D01*
X354880Y320376D01*
X355362Y321098D01*
X355531Y321949D01*
Y324795D01*
X351083D01*
Y321949D01*
X351253Y321098D01*
X351735Y320376D01*
X352456Y319894D01*
X352393Y319397D01*
X349222D01*
X349158Y319894D01*
X349880Y320376D01*
X350362Y321098D01*
X350531Y321949D01*
Y324795D01*
X348307D01*
Y325295D01*
X347807D01*
Y330962D01*
X347610Y331120D01*
X347590Y331648D01*
X353783Y337841D01*
X361024D01*
X361609Y337957D01*
X362105Y338289D01*
X369728Y345912D01*
X371414D01*
X376675Y340651D01*
X377171Y340319D01*
X377756Y340203D01*
X402122D01*
X403381Y338945D01*
X403283Y338709D01*
X403163Y337795D01*
X403283Y336882D01*
X403636Y336030D01*
X404197Y335299D01*
X404928Y334738D01*
X405779Y334385D01*
X406693Y334265D01*
X407607Y334385D01*
X408458Y334738D01*
X409189Y335299D01*
X409750Y336030D01*
X410103Y336882D01*
X410223Y337795D01*
X410103Y338709D01*
X409750Y339560D01*
X409189Y340292D01*
X408458Y340852D01*
X407607Y341205D01*
X406693Y341325D01*
X405779Y341205D01*
X405544Y341108D01*
X403837Y342814D01*
X403341Y343145D01*
X402756Y343262D01*
X378389D01*
X373129Y348522D01*
X372983Y348620D01*
X372934Y349117D01*
X379389Y355572D01*
X379720Y356068D01*
X379837Y356654D01*
Y356858D01*
X379985Y357080D01*
X380123Y357775D01*
Y364468D01*
X379985Y365163D01*
X379591Y365752D01*
X379002Y366146D01*
X378307Y366284D01*
X377612Y366146D01*
X377023Y365752D01*
X376629Y365163D01*
X376491Y364468D01*
Y357775D01*
X376620Y357129D01*
X368013Y348522D01*
X360390Y340899D01*
X353150D01*
X352564Y340783D01*
X352068Y340452D01*
X344845Y333228D01*
X344513Y332732D01*
X344442Y332372D01*
X343911Y332266D01*
X343707Y332571D01*
X335841Y340437D01*
X335885Y340683D01*
X336428Y340971D01*
X336882Y340783D01*
X337295Y340728D01*
Y344193D01*
Y347657D01*
X336882Y347603D01*
X336125Y347289D01*
X335625Y347498D01*
Y349855D01*
X336125Y350102D01*
X336522Y349797D01*
X337374Y349444D01*
X338287Y349324D01*
X339201Y349444D01*
X340052Y349797D01*
X340784Y350358D01*
X341345Y351089D01*
X341697Y351941D01*
X341817Y352854D01*
X341697Y353768D01*
X341345Y354619D01*
X340784Y355350D01*
X340052Y355911D01*
X339745Y356039D01*
X339671Y356611D01*
X339985Y357080D01*
X340123Y357775D01*
Y360775D01*
X341029Y361681D01*
X341491Y361490D01*
Y357775D01*
X341629Y357080D01*
X342023Y356491D01*
X342612Y356098D01*
X343307Y355959D01*
X344002Y356098D01*
X344591Y356491D01*
X344985Y357080D01*
X345123Y357775D01*
Y363728D01*
X345583Y364188D01*
X346083Y363981D01*
Y361622D01*
X350531D01*
Y364468D01*
X350362Y365319D01*
X349880Y366041D01*
X349158Y366523D01*
X348714Y366611D01*
X348549Y367154D01*
X353783Y372388D01*
X356260D01*
X356845Y372504D01*
X357341Y372836D01*
X363819Y379314D01*
X364283Y379121D01*
X365315Y378986D01*
X366347Y379121D01*
X367308Y379520D01*
X368134Y380153D01*
X368768Y380979D01*
X369166Y381941D01*
X369302Y382972D01*
X369166Y384004D01*
X368768Y384966D01*
X368134Y385792D01*
X367308Y386425D01*
X366347Y386824D01*
X365315Y386959D01*
X364283Y386824D01*
X363321Y386425D01*
X362496Y385792D01*
X361862Y384966D01*
X361464Y384004D01*
X360997Y384120D01*
Y391825D01*
X361464Y391941D01*
X361862Y390979D01*
X362496Y390153D01*
X363321Y389520D01*
X364283Y389121D01*
X365315Y388986D01*
X366347Y389121D01*
X367308Y389520D01*
X368134Y390153D01*
X368768Y390979D01*
X369166Y391941D01*
X369302Y392972D01*
X369166Y394004D01*
X368768Y394966D01*
X368134Y395792D01*
X367308Y396425D01*
X366347Y396824D01*
X366453Y397296D01*
X374177D01*
X374283Y396824D01*
X373322Y396425D01*
X372496Y395792D01*
X371862Y394966D01*
X371464Y394004D01*
X371394Y393472D01*
X375315D01*
Y392972D01*
X375815D01*
Y389051D01*
X376347Y389121D01*
X377308Y389520D01*
X378134Y390153D01*
X378768Y390979D01*
X379166Y391941D01*
X379181Y392057D01*
X379657Y392230D01*
X379967Y391974D01*
Y376576D01*
X377306Y373915D01*
X376844Y374107D01*
Y379328D01*
X377308Y379520D01*
X378134Y380153D01*
X378768Y380979D01*
X379166Y381941D01*
X379302Y382972D01*
X379166Y384004D01*
X378768Y384966D01*
X378134Y385792D01*
X377308Y386425D01*
X376347Y386824D01*
X375315Y386959D01*
X374283Y386824D01*
X373322Y386425D01*
X372496Y385792D01*
X371862Y384966D01*
X371464Y384004D01*
X371328Y382972D01*
X371464Y381941D01*
X371862Y380979D01*
X372496Y380153D01*
X373322Y379520D01*
X373785Y379328D01*
Y372799D01*
X371937Y370950D01*
X371463Y371184D01*
X371493Y371408D01*
X371373Y372321D01*
X371020Y373173D01*
X370459Y373904D01*
X369728Y374465D01*
X368876Y374817D01*
X367963Y374938D01*
X367049Y374817D01*
X366197Y374465D01*
X365466Y373904D01*
X364905Y373173D01*
X364553Y372321D01*
X364432Y371408D01*
X364553Y370494D01*
X364905Y369642D01*
X365466Y368911D01*
X366197Y368350D01*
X367049Y367998D01*
X367963Y367877D01*
X368186Y367907D01*
X368420Y367433D01*
X367226Y366239D01*
X366894Y365743D01*
X366842Y365482D01*
X366629Y365163D01*
X366491Y364468D01*
Y357775D01*
X366629Y357080D01*
X367023Y356491D01*
X367612Y356098D01*
X368307Y355959D01*
X369002Y356098D01*
X369591Y356491D01*
X369985Y357080D01*
X370123Y357775D01*
Y364468D01*
X370066Y364754D01*
X371190Y365877D01*
X371689Y365698D01*
X371754Y365350D01*
X371629Y365163D01*
X371491Y364468D01*
Y357775D01*
X371629Y357080D01*
X372023Y356491D01*
X372612Y356098D01*
X373307Y355959D01*
X374002Y356098D01*
X374591Y356491D01*
X374985Y357080D01*
X375123Y357775D01*
Y364468D01*
X374985Y365163D01*
X374836Y365385D01*
Y367120D01*
X382577Y374861D01*
X382909Y375357D01*
X383026Y375942D01*
Y392664D01*
X382909Y393250D01*
X382577Y393746D01*
X377875Y398448D01*
X378150Y398881D01*
X378994Y398992D01*
X379845Y399344D01*
X380576Y399905D01*
X381137Y400636D01*
X381322Y401082D01*
X381863D01*
X381982Y400794D01*
X382543Y400063D01*
X383274Y399502D01*
X384126Y399149D01*
X384539Y399095D01*
Y402559D01*
X385539D01*
Y399095D01*
D02*
G37*
G36*
X316445D02*
X316859Y399149D01*
X317710Y399502D01*
X318441Y400063D01*
X319002Y400794D01*
X319326Y401576D01*
X319495Y401651D01*
X319495Y401652D01*
X319862Y401668D01*
X320338Y401047D01*
X320698Y400771D01*
X320582Y400238D01*
X320086Y399907D01*
X316811Y396631D01*
X316347Y396824D01*
X315315Y396959D01*
X314283Y396824D01*
X313321Y396425D01*
X312496Y395792D01*
X311862Y394966D01*
X311464Y394004D01*
X311328Y392972D01*
X311464Y391941D01*
X311862Y390979D01*
X312001Y390797D01*
X311780Y390349D01*
X310101D01*
X308974Y391476D01*
X309166Y391941D01*
X309302Y392972D01*
X309166Y394004D01*
X308768Y394966D01*
X308134Y395792D01*
X307308Y396425D01*
X306347Y396824D01*
X305315Y396959D01*
X304283Y396824D01*
X303322Y396425D01*
X302496Y395792D01*
X302471Y395760D01*
X302035Y396012D01*
X302122Y396224D01*
X302177Y396638D01*
X298713D01*
Y397638D01*
X302177D01*
X302173Y397669D01*
X302619Y398114D01*
X302650Y398110D01*
Y401575D01*
X303650D01*
Y398110D01*
X304063Y398165D01*
X304915Y398517D01*
X305646Y399079D01*
X306207Y399810D01*
X306353Y400162D01*
X306925Y400237D01*
X307059Y400063D01*
X307790Y399502D01*
X308641Y399149D01*
X309055Y399095D01*
Y402559D01*
X310055D01*
Y399095D01*
X310469Y399149D01*
X311320Y399502D01*
X312051Y400063D01*
X312448Y400580D01*
X312485Y400598D01*
X313015D01*
X313052Y400580D01*
X313449Y400063D01*
X314180Y399502D01*
X315031Y399149D01*
X315445Y399095D01*
Y402559D01*
X316445D01*
Y399095D01*
D02*
G37*
G36*
X342002Y395147D02*
X341862Y394966D01*
X341464Y394004D01*
X341328Y392972D01*
X341464Y391941D01*
X341862Y390979D01*
X342496Y390153D01*
X343321Y389520D01*
X344283Y389121D01*
X344168Y388655D01*
X343595D01*
X343009Y388538D01*
X342513Y388207D01*
X340081Y385774D01*
X339749Y385278D01*
X339692Y384993D01*
X339349Y384649D01*
X338858Y384747D01*
X338768Y384966D01*
X338134Y385792D01*
X337308Y386425D01*
X336347Y386824D01*
X335315Y386959D01*
X334283Y386824D01*
X333321Y386425D01*
X332496Y385792D01*
X331950Y385080D01*
X331378Y384945D01*
X328116Y388207D01*
X327620Y388538D01*
X327035Y388655D01*
X326462D01*
X326347Y389121D01*
X327308Y389520D01*
X328134Y390153D01*
X328768Y390979D01*
X329166Y391941D01*
X329302Y392972D01*
X329166Y394004D01*
X328768Y394966D01*
X328628Y395147D01*
X328850Y395596D01*
X331780D01*
X332001Y395147D01*
X331862Y394966D01*
X331464Y394004D01*
X331328Y392972D01*
X331464Y391941D01*
X331862Y390979D01*
X332496Y390153D01*
X333321Y389520D01*
X334283Y389121D01*
X335315Y388986D01*
X336347Y389121D01*
X337308Y389520D01*
X338134Y390153D01*
X338768Y390979D01*
X339166Y391941D01*
X339302Y392972D01*
X339166Y394004D01*
X338768Y394966D01*
X338628Y395147D01*
X338849Y395596D01*
X341780D01*
X342002Y395147D01*
D02*
G37*
G36*
X352002D02*
X351862Y394966D01*
X351464Y394004D01*
X351328Y392972D01*
X351464Y391941D01*
X351862Y390979D01*
X352496Y390153D01*
X353322Y389520D01*
X354283Y389121D01*
X355315Y388986D01*
X356347Y389121D01*
X357308Y389520D01*
X357490Y389659D01*
X357938Y389438D01*
Y386507D01*
X357490Y386286D01*
X357308Y386425D01*
X356347Y386824D01*
X355315Y386959D01*
X354283Y386824D01*
X353322Y386425D01*
X352496Y385792D01*
X351862Y384966D01*
X351464Y384004D01*
X350997Y384120D01*
Y384693D01*
X350881Y385278D01*
X350549Y385774D01*
X348116Y388207D01*
X347620Y388538D01*
X347035Y388655D01*
X346462D01*
X346347Y389121D01*
X347308Y389520D01*
X348134Y390153D01*
X348768Y390979D01*
X349166Y391941D01*
X349302Y392972D01*
X349166Y394004D01*
X348768Y394966D01*
X348628Y395147D01*
X348850Y395596D01*
X351780D01*
X352002Y395147D01*
D02*
G37*
G36*
X324934Y375128D02*
X319834Y370028D01*
X315913D01*
X315721Y370490D01*
X320821Y375590D01*
X324743D01*
X324934Y375128D01*
D02*
G37*
G36*
X314283Y386824D02*
X313321Y386425D01*
X312496Y385792D01*
X311862Y384966D01*
X311464Y384004D01*
X311328Y382972D01*
X311464Y381941D01*
X311862Y380979D01*
X312496Y380153D01*
X313321Y379520D01*
X314283Y379121D01*
X315315Y378986D01*
X316347Y379121D01*
X317308Y379520D01*
X317332Y379538D01*
X317662Y379161D01*
X305946Y367445D01*
X305485Y367636D01*
Y379020D01*
X309268D01*
Y386820D01*
X309353Y387021D01*
X309593Y387290D01*
X314168D01*
X314283Y386824D01*
D02*
G37*
G36*
X351862Y380979D02*
X352454Y380208D01*
X342325Y370079D01*
X339021D01*
X338436Y369962D01*
X337939Y369631D01*
X334607Y366298D01*
X334350Y365914D01*
X334002Y366146D01*
X333937Y366159D01*
X331833Y368263D01*
X331336Y368595D01*
X330751Y368711D01*
X330501D01*
X330223Y369383D01*
X329662Y370114D01*
X328930Y370675D01*
X328079Y371028D01*
X327165Y371148D01*
X326252Y371028D01*
X325594Y370756D01*
X325311Y371180D01*
X328022Y373890D01*
X343635D01*
X344220Y374007D01*
X344717Y374338D01*
X350549Y380171D01*
X350881Y380667D01*
X350997Y381252D01*
Y381825D01*
X351464Y381941D01*
X351862Y380979D01*
D02*
G37*
G36*
X324028Y369189D02*
X323756Y368532D01*
X323635Y367618D01*
X323756Y366704D01*
X324108Y365853D01*
X324669Y365122D01*
X325400Y364561D01*
X326252Y364208D01*
X327165Y364088D01*
X328079Y364208D01*
X328930Y364561D01*
X329662Y365122D01*
X329783Y365280D01*
X330447Y365324D01*
X331491Y364279D01*
Y357775D01*
X331629Y357080D01*
X332023Y356491D01*
X332612Y356098D01*
X333293Y355962D01*
X333337Y355898D01*
X333532Y355494D01*
X333014Y354976D01*
X332682Y354480D01*
X332566Y353895D01*
Y352653D01*
X332066Y352382D01*
X331897Y352416D01*
Y350492D01*
X331398D01*
Y349992D01*
X329474D01*
X329528Y349718D01*
X329868Y349209D01*
Y347444D01*
X329528Y346936D01*
X329482Y346700D01*
X328964Y346660D01*
X328862Y346940D01*
X328853Y346984D01*
X328905Y347244D01*
X325058D01*
X325113Y346970D01*
X325121Y346957D01*
X325113Y346944D01*
X324958Y346170D01*
X324989Y346014D01*
X324529Y345768D01*
X322184Y348112D01*
X322352Y348612D01*
X322352D01*
Y354143D01*
X314459D01*
Y348612D01*
X316937D01*
X316992Y348332D01*
X317324Y347836D01*
X318162Y346998D01*
X317728Y346564D01*
X313179D01*
Y341034D01*
X321072D01*
Y344245D01*
X321534Y344437D01*
X331345Y334626D01*
X331061Y334202D01*
X330435Y334462D01*
X329521Y334582D01*
X328608Y334462D01*
X327756Y334109D01*
X327025Y333548D01*
X326464Y332817D01*
X326112Y331966D01*
X325991Y331052D01*
X326054Y330574D01*
X325787Y330105D01*
X324874Y329985D01*
X324022Y329632D01*
X323291Y329071D01*
X322730Y328340D01*
X322377Y327488D01*
X322257Y326575D01*
X322377Y325661D01*
X322730Y324810D01*
X323291Y324079D01*
X324022Y323517D01*
X324874Y323165D01*
X325787Y323045D01*
X326701Y323165D01*
X327553Y323517D01*
X328284Y324079D01*
X328845Y324810D01*
X329197Y325661D01*
X329318Y326575D01*
X329255Y327052D01*
X329521Y327522D01*
X330435Y327642D01*
X330991Y327872D01*
X331491Y327546D01*
Y321949D01*
X331561Y321597D01*
X331178Y321097D01*
X324152D01*
X315707Y329542D01*
X315898Y330004D01*
X316626D01*
Y333169D01*
Y336335D01*
X312779D01*
Y333123D01*
X312317Y332932D01*
X310584Y334665D01*
Y362949D01*
X314605Y366969D01*
X320467D01*
X321053Y367086D01*
X321549Y367418D01*
X323604Y369473D01*
X324028Y369189D01*
D02*
G37*
G36*
X331897Y344238D02*
X332066Y344271D01*
X332566Y344000D01*
Y340020D01*
X332682Y339435D01*
X333014Y338938D01*
X337639Y334313D01*
X337432Y333813D01*
X335781D01*
Y333882D01*
X335665Y334467D01*
X335333Y334963D01*
X326580Y343717D01*
X326827Y344177D01*
X326982Y344146D01*
X327756Y344300D01*
X328412Y344739D01*
X328851Y345395D01*
X328934Y345813D01*
X329444D01*
X329528Y345387D01*
X329967Y344731D01*
X330623Y344292D01*
X330897Y344238D01*
Y346162D01*
X331897D01*
Y344238D01*
D02*
G37*
G36*
X301224Y394611D02*
X301549Y394210D01*
X301464Y394004D01*
X301328Y392972D01*
X301464Y391941D01*
X301862Y390979D01*
X302496Y390153D01*
X303322Y389520D01*
X304283Y389121D01*
X305315Y388986D01*
X306347Y389121D01*
X306811Y389314D01*
X308386Y387738D01*
X308855Y387425D01*
X308861Y387388D01*
X308631Y386925D01*
X301362D01*
Y379020D01*
X302426D01*
Y331919D01*
X302542Y331333D01*
X302874Y330837D01*
X303312Y330399D01*
X303079Y329925D01*
X302961Y329941D01*
Y326476D01*
X301961D01*
Y330005D01*
X298333D01*
Y331005D01*
X301797D01*
X301743Y331419D01*
X301390Y332270D01*
X300829Y333001D01*
X300098Y333562D01*
X299247Y333915D01*
X298333Y334035D01*
X298069Y334505D01*
X298333Y334849D01*
X298686Y335700D01*
X298740Y336114D01*
X295276D01*
Y337114D01*
X298740D01*
X298686Y337528D01*
X298333Y338379D01*
X297772Y339110D01*
X297041Y339671D01*
X296189Y340024D01*
X295510Y340113D01*
Y340989D01*
X296189Y341078D01*
X297041Y341431D01*
X297772Y341992D01*
X298333Y342723D01*
X298686Y343575D01*
X298740Y343988D01*
X295276D01*
Y344988D01*
X298740D01*
X298686Y345402D01*
X298333Y346253D01*
X297772Y346984D01*
X297041Y347545D01*
X296189Y347898D01*
X295510Y347988D01*
Y348863D01*
X296189Y348952D01*
X297041Y349305D01*
X297772Y349866D01*
X298333Y350597D01*
X298686Y351448D01*
X298740Y351862D01*
X295276D01*
Y352862D01*
X298740D01*
X298686Y353276D01*
X298333Y354127D01*
X297772Y354858D01*
X297041Y355419D01*
X296189Y355772D01*
X296089Y355904D01*
X296223Y356840D01*
X297041Y357179D01*
X297772Y357740D01*
X298333Y358471D01*
X298686Y359323D01*
X298740Y359736D01*
X295276D01*
Y360736D01*
X298740D01*
X298686Y361150D01*
X298333Y362001D01*
X297772Y362732D01*
X297041Y363293D01*
X296189Y363646D01*
X296070Y363662D01*
X295944Y364366D01*
X296189Y364700D01*
X297041Y365053D01*
X297772Y365614D01*
X298333Y366345D01*
X298686Y367196D01*
X298740Y367610D01*
X295276D01*
Y368610D01*
X298740D01*
X298686Y369024D01*
X298333Y369875D01*
X297772Y370606D01*
X297041Y371167D01*
X296189Y371520D01*
X295510Y371609D01*
Y372485D01*
X296189Y372574D01*
X297041Y372927D01*
X297772Y373488D01*
X298333Y374219D01*
X298686Y375071D01*
X298740Y375484D01*
X295276D01*
Y376484D01*
X298740D01*
X298686Y376898D01*
X298333Y377749D01*
X297772Y378481D01*
X297041Y379042D01*
X296189Y379394D01*
X295510Y379484D01*
Y380359D01*
X296189Y380448D01*
X297041Y380801D01*
X297772Y381362D01*
X298333Y382093D01*
X298686Y382945D01*
X298740Y383358D01*
X295276D01*
Y384358D01*
X298740D01*
X298686Y384772D01*
X298333Y385623D01*
X297772Y386354D01*
X297041Y386915D01*
X296189Y387268D01*
X295276Y387388D01*
X295165Y387858D01*
X295184Y388131D01*
X295276Y388202D01*
X296189Y388322D01*
X297041Y388675D01*
X297772Y389236D01*
X298333Y389967D01*
X298686Y390819D01*
X298740Y391232D01*
X295276D01*
Y392232D01*
X298740D01*
X298686Y392646D01*
X298484Y393133D01*
X298588Y393351D01*
X298822Y393622D01*
X299626Y393728D01*
X300478Y394080D01*
X301176Y394617D01*
X301224Y394611D01*
D02*
G37*
G36*
X413976Y62303D02*
X27519D01*
X27166Y62657D01*
X27560Y288484D01*
X413976D01*
Y62303D01*
D02*
G37*
%LPC*%
G36*
X389264Y397138D02*
X386299D01*
X386354Y396724D01*
X386706Y395873D01*
X387267Y395142D01*
X387999Y394581D01*
X388850Y394228D01*
X389264Y394173D01*
Y397138D01*
D02*
G37*
G36*
X374815Y392472D02*
X371394D01*
X371464Y391941D01*
X371862Y390979D01*
X372496Y390153D01*
X373322Y389520D01*
X374283Y389121D01*
X374815Y389051D01*
Y392472D01*
D02*
G37*
G36*
X395169Y391232D02*
X392205D01*
X392259Y390819D01*
X392612Y389967D01*
X393173Y389236D01*
X393904Y388675D01*
X394756Y388322D01*
X395169Y388268D01*
Y391232D01*
D02*
G37*
G36*
X401075Y385327D02*
X398110D01*
X398165Y384913D01*
X398518Y384062D01*
X399079Y383330D01*
X399810Y382769D01*
X400661Y382417D01*
X401075Y382362D01*
Y385327D01*
D02*
G37*
G36*
X389575Y385256D02*
Y382291D01*
X392539D01*
X392485Y382705D01*
X392132Y383556D01*
X391571Y384288D01*
X390840Y384849D01*
X389988Y385201D01*
X389575Y385256D01*
D02*
G37*
G36*
X388575D02*
X388161Y385201D01*
X387310Y384849D01*
X386579Y384288D01*
X386018Y383556D01*
X385665Y382705D01*
X385610Y382291D01*
X388575D01*
Y385256D01*
D02*
G37*
G36*
X410524Y382177D02*
X407559D01*
X407614Y381764D01*
X407966Y380912D01*
X408527Y380181D01*
X409259Y379620D01*
X410110Y379267D01*
X410524Y379213D01*
Y382177D01*
D02*
G37*
G36*
X392539Y381291D02*
X389575D01*
Y378327D01*
X389988Y378381D01*
X390840Y378734D01*
X391571Y379295D01*
X392132Y380026D01*
X392485Y380878D01*
X392539Y381291D01*
D02*
G37*
G36*
X388575D02*
X385610D01*
X385665Y380878D01*
X386018Y380026D01*
X386579Y379295D01*
X387310Y378734D01*
X388161Y378381D01*
X388575Y378327D01*
Y381291D01*
D02*
G37*
G36*
X363807Y366593D02*
Y361622D01*
X365531D01*
Y364468D01*
X365362Y365319D01*
X364880Y366041D01*
X364158Y366523D01*
X363807Y366593D01*
D02*
G37*
G36*
X362807D02*
X362456Y366523D01*
X361735Y366041D01*
X361253Y365319D01*
X361083Y364468D01*
Y361622D01*
X362807D01*
Y366593D01*
D02*
G37*
G36*
X358807D02*
Y361622D01*
X360531D01*
Y364468D01*
X360362Y365319D01*
X359880Y366041D01*
X359158Y366523D01*
X358807Y366593D01*
D02*
G37*
G36*
X357807D02*
X357456Y366523D01*
X356735Y366041D01*
X356253Y365319D01*
X356083Y364468D01*
Y361622D01*
X357807D01*
Y366593D01*
D02*
G37*
G36*
X353807D02*
Y361622D01*
X355531D01*
Y364468D01*
X355362Y365319D01*
X354880Y366041D01*
X354158Y366523D01*
X353807Y366593D01*
D02*
G37*
G36*
X352807D02*
X352456Y366523D01*
X351735Y366041D01*
X351253Y365319D01*
X351083Y364468D01*
Y361622D01*
X352807D01*
Y366593D01*
D02*
G37*
G36*
X365531Y360622D02*
X363807D01*
Y355651D01*
X364158Y355721D01*
X364880Y356203D01*
X365362Y356924D01*
X365531Y357775D01*
Y360622D01*
D02*
G37*
G36*
X362807D02*
X361083D01*
Y357775D01*
X361253Y356924D01*
X361735Y356203D01*
X362456Y355721D01*
X362807Y355651D01*
Y360622D01*
D02*
G37*
G36*
X360531D02*
X358807D01*
Y355651D01*
X359158Y355721D01*
X359880Y356203D01*
X360362Y356924D01*
X360531Y357775D01*
Y360622D01*
D02*
G37*
G36*
X357807D02*
X356083D01*
Y357775D01*
X356253Y356924D01*
X356735Y356203D01*
X357456Y355721D01*
X357807Y355651D01*
Y360622D01*
D02*
G37*
G36*
X355531D02*
X353807D01*
Y355651D01*
X354158Y355721D01*
X354880Y356203D01*
X355362Y356924D01*
X355531Y357775D01*
Y360622D01*
D02*
G37*
G36*
X352807D02*
X351083D01*
Y357775D01*
X351253Y356924D01*
X351735Y356203D01*
X352456Y355721D01*
X352807Y355651D01*
Y360622D01*
D02*
G37*
G36*
X350531D02*
X348807D01*
Y355651D01*
X349158Y355721D01*
X349880Y356203D01*
X350362Y356924D01*
X350531Y357775D01*
Y360622D01*
D02*
G37*
G36*
X347807D02*
X346083D01*
Y357775D01*
X346253Y356924D01*
X346735Y356203D01*
X347456Y355721D01*
X347807Y355651D01*
Y360622D01*
D02*
G37*
G36*
X382291Y352874D02*
Y349909D01*
X385256D01*
X385201Y350323D01*
X384849Y351174D01*
X384288Y351906D01*
X383556Y352467D01*
X382705Y352819D01*
X382291Y352874D01*
D02*
G37*
G36*
X381291D02*
X380878Y352819D01*
X380026Y352467D01*
X379295Y351906D01*
X378734Y351174D01*
X378381Y350323D01*
X378327Y349909D01*
X381291D01*
Y352874D01*
D02*
G37*
G36*
X385256Y348909D02*
X382291D01*
Y345945D01*
X382705Y346000D01*
X383556Y346352D01*
X384288Y346913D01*
X384849Y347644D01*
X385201Y348496D01*
X385256Y348909D01*
D02*
G37*
G36*
X381291D02*
X378327D01*
X378381Y348496D01*
X378734Y347644D01*
X379295Y346913D01*
X380026Y346352D01*
X380878Y346000D01*
X381291Y345945D01*
Y348909D01*
D02*
G37*
G36*
X338295Y347657D02*
Y344693D01*
X341260D01*
X341205Y345107D01*
X340852Y345958D01*
X340292Y346689D01*
X339560Y347250D01*
X338709Y347603D01*
X338295Y347657D01*
D02*
G37*
G36*
X356806Y349011D02*
X355892Y348890D01*
X355041Y348538D01*
X354310Y347977D01*
X353749Y347246D01*
X353396Y346394D01*
X353276Y345480D01*
X353396Y344567D01*
X353749Y343716D01*
X354310Y342984D01*
X355041Y342423D01*
X355892Y342071D01*
X356806Y341950D01*
X357719Y342071D01*
X358571Y342423D01*
X359302Y342984D01*
X359863Y343716D01*
X360216Y344567D01*
X360336Y345480D01*
X360216Y346394D01*
X359863Y347246D01*
X359302Y347977D01*
X358571Y348538D01*
X357719Y348890D01*
X356806Y349011D01*
D02*
G37*
G36*
X341260Y343693D02*
X338295D01*
Y340728D01*
X338709Y340783D01*
X339560Y341136D01*
X340292Y341697D01*
X340852Y342428D01*
X341205Y343279D01*
X341260Y343693D01*
D02*
G37*
G36*
X419185Y342834D02*
X418771Y342780D01*
X417920Y342427D01*
X417189Y341866D01*
X416628Y341135D01*
X416275Y340284D01*
X416221Y339870D01*
X419185D01*
Y342834D01*
D02*
G37*
G36*
X414854Y338110D02*
X414441Y338056D01*
X413589Y337703D01*
X412858Y337142D01*
X412297Y336411D01*
X411944Y335559D01*
X411890Y335146D01*
X414854D01*
Y338110D01*
D02*
G37*
G36*
X408949Y332205D02*
X408535Y332150D01*
X407684Y331797D01*
X406953Y331236D01*
X406392Y330505D01*
X406039Y329654D01*
X405984Y329240D01*
X408949D01*
Y332205D01*
D02*
G37*
G36*
X363976Y337881D02*
X363063Y337760D01*
X362211Y337408D01*
X361480Y336847D01*
X360919Y336116D01*
X360566Y335264D01*
X360446Y334350D01*
X360566Y333437D01*
X360919Y332585D01*
X361480Y331854D01*
X362211Y331293D01*
X362433Y331201D01*
X362448Y330877D01*
X362414Y330668D01*
X361735Y330214D01*
X361253Y329493D01*
X361083Y328642D01*
Y325795D01*
X365531D01*
Y328642D01*
X365362Y329493D01*
X364880Y330214D01*
X364604Y330399D01*
X364725Y330919D01*
X364890Y330941D01*
X365741Y331293D01*
X366473Y331854D01*
X367034Y332585D01*
X367386Y333437D01*
X367507Y334350D01*
X367386Y335264D01*
X367034Y336116D01*
X366473Y336847D01*
X365741Y337408D01*
X364890Y337760D01*
X363976Y337881D01*
D02*
G37*
G36*
X358807Y330766D02*
Y325795D01*
X360531D01*
Y328642D01*
X360362Y329493D01*
X359880Y330214D01*
X359158Y330696D01*
X358807Y330766D01*
D02*
G37*
G36*
X357807D02*
X357456Y330696D01*
X356735Y330214D01*
X356253Y329493D01*
X356083Y328642D01*
Y325795D01*
X357807D01*
Y330766D01*
D02*
G37*
G36*
X353807D02*
Y325795D01*
X355531D01*
Y328642D01*
X355362Y329493D01*
X354880Y330214D01*
X354158Y330696D01*
X353807Y330766D01*
D02*
G37*
G36*
X352807D02*
X352456Y330696D01*
X351735Y330214D01*
X351253Y329493D01*
X351083Y328642D01*
Y325795D01*
X352807D01*
Y330766D01*
D02*
G37*
G36*
X348807D02*
Y325795D01*
X350531D01*
Y328642D01*
X350362Y329493D01*
X349880Y330214D01*
X349158Y330696D01*
X348807Y330766D01*
D02*
G37*
G36*
X403043Y326299D02*
X402630Y326244D01*
X401778Y325892D01*
X401047Y325331D01*
X400486Y324600D01*
X400133Y323748D01*
X400079Y323335D01*
X403043D01*
Y326299D01*
D02*
G37*
G36*
X398713Y321575D02*
X398299Y321520D01*
X397447Y321167D01*
X396716Y320606D01*
X396155Y319875D01*
X395803Y319024D01*
X395748Y318610D01*
X398713D01*
Y321575D01*
D02*
G37*
G36*
X393595Y317244D02*
X393181Y317189D01*
X392329Y316837D01*
X391598Y316276D01*
X391037Y315545D01*
X390685Y314693D01*
X390630Y314280D01*
X393595D01*
Y317244D01*
D02*
G37*
G36*
X385335Y320558D02*
X384421Y320438D01*
X383570Y320085D01*
X382838Y319524D01*
X382277Y318793D01*
X381925Y317941D01*
X381804Y317028D01*
X381925Y316114D01*
X382277Y315262D01*
X382838Y314531D01*
X383570Y313970D01*
X384421Y313618D01*
X385335Y313497D01*
X386248Y313618D01*
X387100Y313970D01*
X387831Y314531D01*
X388392Y315262D01*
X388745Y316114D01*
X388865Y317028D01*
X388745Y317941D01*
X388392Y318793D01*
X387831Y319524D01*
X387100Y320085D01*
X386248Y320438D01*
X385335Y320558D01*
D02*
G37*
G36*
X389264Y312520D02*
X388850Y312465D01*
X387999Y312112D01*
X387267Y311551D01*
X386706Y310820D01*
X386354Y309969D01*
X386299Y309555D01*
X389264D01*
Y312520D01*
D02*
G37*
G36*
X322752Y365173D02*
X318905D01*
Y362508D01*
X322752D01*
Y365173D01*
D02*
G37*
G36*
X317905D02*
X314059D01*
Y362508D01*
X317905D01*
Y365173D01*
D02*
G37*
G36*
X322752Y361508D02*
X318905D01*
Y358842D01*
X322752D01*
Y361508D01*
D02*
G37*
G36*
X317905D02*
X314059D01*
Y358842D01*
X317905D01*
Y361508D01*
D02*
G37*
G36*
X330897Y352416D02*
X330623Y352361D01*
X329967Y351923D01*
X329528Y351266D01*
X329474Y350992D01*
X330897D01*
Y352416D01*
D02*
G37*
G36*
X327482Y349668D02*
Y348244D01*
X328905D01*
X328851Y348519D01*
X328412Y349175D01*
X327756Y349614D01*
X327482Y349668D01*
D02*
G37*
G36*
X326482D02*
X326207Y349614D01*
X325551Y349175D01*
X325113Y348519D01*
X325058Y348244D01*
X326482D01*
Y349668D01*
D02*
G37*
G36*
X321472Y336335D02*
X317626D01*
Y333669D01*
X321472D01*
Y336335D01*
D02*
G37*
G36*
Y332669D02*
X317626D01*
Y330004D01*
X321472D01*
Y332669D01*
D02*
G37*
G36*
X204202Y283996D02*
Y280575D01*
X207623D01*
X207553Y281107D01*
X207154Y282068D01*
X206521Y282894D01*
X205695Y283528D01*
X204733Y283926D01*
X204202Y283996D01*
D02*
G37*
G36*
X203202D02*
X202670Y283926D01*
X201708Y283528D01*
X200882Y282894D01*
X200249Y282068D01*
X199850Y281107D01*
X199780Y280575D01*
X203202D01*
Y283996D01*
D02*
G37*
G36*
X184202D02*
Y280575D01*
X187623D01*
X187553Y281107D01*
X187154Y282068D01*
X186521Y282894D01*
X185695Y283528D01*
X184733Y283926D01*
X184202Y283996D01*
D02*
G37*
G36*
X183202D02*
X182670Y283926D01*
X181708Y283528D01*
X180882Y282894D01*
X180249Y282068D01*
X179850Y281107D01*
X179780Y280575D01*
X183202D01*
Y283996D01*
D02*
G37*
G36*
X243702Y283759D02*
X242748Y283634D01*
X241859Y283266D01*
X241096Y282680D01*
X240511Y281917D01*
X240143Y281029D01*
X240017Y280075D01*
X240143Y279121D01*
X240511Y278233D01*
X241096Y277470D01*
X241859Y276884D01*
X242248Y276724D01*
X242148Y276223D01*
X235255D01*
X235156Y276724D01*
X235544Y276884D01*
X236307Y277470D01*
X236892Y278233D01*
X237260Y279121D01*
X237386Y280075D01*
X237260Y281029D01*
X236892Y281917D01*
X236307Y282680D01*
X235544Y283266D01*
X234655Y283634D01*
X233701Y283759D01*
X232748Y283634D01*
X231859Y283266D01*
X231096Y282680D01*
X230511Y281917D01*
X230143Y281029D01*
X230017Y280075D01*
X230143Y279121D01*
X230511Y278233D01*
X231096Y277470D01*
X231859Y276884D01*
X232247Y276724D01*
X232148Y276223D01*
X225255D01*
X225156Y276724D01*
X225544Y276884D01*
X226307Y277470D01*
X226892Y278233D01*
X227260Y279121D01*
X227386Y280075D01*
X227260Y281029D01*
X226892Y281917D01*
X226307Y282680D01*
X225544Y283266D01*
X224655Y283634D01*
X223702Y283759D01*
X222748Y283634D01*
X221859Y283266D01*
X221096Y282680D01*
X220511Y281917D01*
X220143Y281029D01*
X220017Y280075D01*
X220143Y279121D01*
X220511Y278233D01*
X221096Y277470D01*
X221859Y276884D01*
X222248Y276724D01*
X222148Y276223D01*
X218420D01*
X216683Y277960D01*
X216892Y278233D01*
X217260Y279121D01*
X217386Y280075D01*
X217260Y281029D01*
X216892Y281917D01*
X216307Y282680D01*
X215544Y283266D01*
X214655Y283634D01*
X213702Y283759D01*
X212748Y283634D01*
X211859Y283266D01*
X211096Y282680D01*
X210511Y281917D01*
X210143Y281029D01*
X210017Y280075D01*
X210143Y279121D01*
X210511Y278233D01*
X210725Y277954D01*
X208995Y276223D01*
X205992D01*
X205827Y276724D01*
X206521Y277256D01*
X207154Y278081D01*
X207553Y279043D01*
X207623Y279575D01*
X199780D01*
X199850Y279043D01*
X200249Y278081D01*
X200882Y277256D01*
X201576Y276724D01*
X201411Y276223D01*
X195255D01*
X195156Y276724D01*
X195544Y276884D01*
X196307Y277470D01*
X196892Y278233D01*
X197260Y279121D01*
X197386Y280075D01*
X197260Y281029D01*
X196892Y281917D01*
X196307Y282680D01*
X195544Y283266D01*
X194655Y283634D01*
X193702Y283759D01*
X192748Y283634D01*
X191859Y283266D01*
X191096Y282680D01*
X190511Y281917D01*
X190143Y281029D01*
X190017Y280075D01*
X190143Y279121D01*
X190511Y278233D01*
X191096Y277470D01*
X191859Y276884D01*
X192247Y276724D01*
X192148Y276223D01*
X185992D01*
X185827Y276724D01*
X186521Y277256D01*
X187154Y278081D01*
X187553Y279043D01*
X187623Y279575D01*
X179780D01*
X179850Y279043D01*
X180249Y278081D01*
X180882Y277256D01*
X181576Y276724D01*
X181411Y276223D01*
X179838D01*
X177166Y278895D01*
X177260Y279121D01*
X177386Y280075D01*
X177260Y281029D01*
X176892Y281917D01*
X176307Y282680D01*
X175544Y283266D01*
X174655Y283634D01*
X173702Y283759D01*
X172748Y283634D01*
X171859Y283266D01*
X171096Y282680D01*
X170511Y281917D01*
X170143Y281029D01*
X170017Y280075D01*
X170143Y279121D01*
X170511Y278233D01*
X171096Y277470D01*
X171859Y276884D01*
X172748Y276516D01*
X173702Y276391D01*
X174655Y276516D01*
X175544Y276884D01*
X175641Y276959D01*
X178466Y274135D01*
X178863Y273870D01*
X179331Y273777D01*
X181786D01*
X181886Y273276D01*
X181859Y273266D01*
X181096Y272680D01*
X180511Y271917D01*
X180143Y271028D01*
X180017Y270075D01*
X180143Y269121D01*
X180511Y268233D01*
X181096Y267470D01*
X181859Y266884D01*
X182748Y266516D01*
X183702Y266391D01*
X184655Y266516D01*
X185544Y266884D01*
X186307Y267470D01*
X186892Y268233D01*
X187260Y269121D01*
X187386Y270075D01*
X187260Y271028D01*
X186892Y271917D01*
X186307Y272680D01*
X185544Y273266D01*
X185517Y273276D01*
X185617Y273777D01*
X191786D01*
X191886Y273276D01*
X191859Y273266D01*
X191096Y272680D01*
X190511Y271917D01*
X190143Y271028D01*
X190017Y270075D01*
X190143Y269121D01*
X190511Y268233D01*
X191096Y267470D01*
X191859Y266884D01*
X192748Y266516D01*
X193702Y266391D01*
X194655Y266516D01*
X195544Y266884D01*
X196307Y267470D01*
X196892Y268233D01*
X197260Y269121D01*
X197386Y270075D01*
X197260Y271028D01*
X196892Y271917D01*
X196307Y272680D01*
X195544Y273266D01*
X195517Y273276D01*
X195617Y273777D01*
X201786D01*
X201886Y273276D01*
X201859Y273266D01*
X201096Y272680D01*
X200511Y271917D01*
X200143Y271028D01*
X200017Y270075D01*
X200143Y269121D01*
X200511Y268233D01*
X201096Y267470D01*
X201859Y266884D01*
X202748Y266516D01*
X203701Y266391D01*
X204655Y266516D01*
X205544Y266884D01*
X206307Y267470D01*
X206892Y268233D01*
X207260Y269121D01*
X207386Y270075D01*
X207260Y271028D01*
X206892Y271917D01*
X206307Y272680D01*
X205544Y273266D01*
X205517Y273276D01*
X205617Y273777D01*
X209502D01*
X209970Y273870D01*
X210367Y274135D01*
X212748Y276516D01*
X213702Y276391D01*
X214655Y276516D01*
X214663Y276520D01*
X217048Y274135D01*
X217445Y273870D01*
X217913Y273777D01*
X221786D01*
X221886Y273276D01*
X221859Y273266D01*
X221096Y272680D01*
X220511Y271917D01*
X220143Y271028D01*
X220017Y270075D01*
X220143Y269121D01*
X220511Y268233D01*
X221096Y267470D01*
X221859Y266884D01*
X222748Y266516D01*
X223702Y266391D01*
X224655Y266516D01*
X225544Y266884D01*
X226307Y267470D01*
X226892Y268233D01*
X227260Y269121D01*
X227386Y270075D01*
X227260Y271028D01*
X226892Y271917D01*
X226307Y272680D01*
X225544Y273266D01*
X225517Y273276D01*
X225617Y273777D01*
X231786D01*
X231886Y273276D01*
X231859Y273266D01*
X231096Y272680D01*
X230511Y271917D01*
X230143Y271028D01*
X230017Y270075D01*
X230143Y269121D01*
X230511Y268233D01*
X231096Y267470D01*
X231859Y266884D01*
X232748Y266516D01*
X233701Y266391D01*
X234655Y266516D01*
X235544Y266884D01*
X236307Y267470D01*
X236892Y268233D01*
X237260Y269121D01*
X237386Y270075D01*
X237260Y271028D01*
X236892Y271917D01*
X236307Y272680D01*
X235544Y273266D01*
X235517Y273276D01*
X235617Y273777D01*
X241786D01*
X241886Y273276D01*
X241859Y273266D01*
X241096Y272680D01*
X240511Y271917D01*
X240143Y271028D01*
X240017Y270075D01*
X240143Y269121D01*
X240511Y268233D01*
X241096Y267470D01*
X241859Y266884D01*
X242748Y266516D01*
X243702Y266391D01*
X244655Y266516D01*
X245544Y266884D01*
X246307Y267470D01*
X246892Y268233D01*
X247260Y269121D01*
X247386Y270075D01*
X247260Y271028D01*
X246892Y271917D01*
X246307Y272680D01*
X245544Y273266D01*
X245517Y273276D01*
X245617Y273777D01*
X257677D01*
X258145Y273870D01*
X258542Y274135D01*
X260782Y276375D01*
X261173Y276213D01*
X262008Y276103D01*
X262843Y276213D01*
X263622Y276536D01*
X264290Y277048D01*
X264803Y277717D01*
X265125Y278495D01*
X265235Y279331D01*
X265125Y280166D01*
X264803Y280944D01*
X264290Y281613D01*
X263622Y282126D01*
X262843Y282448D01*
X262008Y282558D01*
X261173Y282448D01*
X260394Y282126D01*
X259726Y281613D01*
X259213Y280944D01*
X258890Y280166D01*
X258780Y279331D01*
X258890Y278495D01*
X259052Y278105D01*
X257170Y276223D01*
X245255D01*
X245156Y276724D01*
X245544Y276884D01*
X246307Y277470D01*
X246892Y278233D01*
X247260Y279121D01*
X247386Y280075D01*
X247260Y281029D01*
X246892Y281917D01*
X246307Y282680D01*
X245544Y283266D01*
X244655Y283634D01*
X243702Y283759D01*
D02*
G37*
G36*
X378740Y278228D02*
X377905Y278118D01*
X377126Y277795D01*
X376458Y277282D01*
X375945Y276614D01*
X375623Y275835D01*
X375513Y275000D01*
X375623Y274165D01*
X375945Y273386D01*
X376458Y272718D01*
X377126Y272205D01*
X377905Y271882D01*
X378740Y271772D01*
X379575Y271882D01*
X380354Y272205D01*
X381022Y272718D01*
X381535Y273386D01*
X381858Y274165D01*
X381968Y275000D01*
X381858Y275835D01*
X381535Y276614D01*
X381022Y277282D01*
X380354Y277795D01*
X379575Y278118D01*
X378740Y278228D01*
D02*
G37*
G36*
X43471Y277455D02*
X42635Y277345D01*
X41857Y277023D01*
X41188Y276510D01*
X40676Y275841D01*
X40353Y275063D01*
X40243Y274228D01*
X40353Y273392D01*
X40676Y272614D01*
X41188Y271946D01*
X41857Y271432D01*
X42635Y271110D01*
X43471Y271000D01*
X44306Y271110D01*
X45085Y271432D01*
X45753Y271946D01*
X46266Y272614D01*
X46588Y273392D01*
X46698Y274228D01*
X46588Y275063D01*
X46266Y275841D01*
X45753Y276510D01*
X45085Y277023D01*
X44306Y277345D01*
X43471Y277455D01*
D02*
G37*
G36*
X156405Y272854D02*
Y269890D01*
X159370D01*
X159315Y270303D01*
X158963Y271155D01*
X158402Y271886D01*
X157671Y272447D01*
X156819Y272800D01*
X156405Y272854D01*
D02*
G37*
G36*
X155405D02*
X154992Y272800D01*
X154140Y272447D01*
X153409Y271886D01*
X152848Y271155D01*
X152496Y270303D01*
X152441Y269890D01*
X155405D01*
Y272854D01*
D02*
G37*
G36*
X320776Y271378D02*
Y268413D01*
X323740D01*
X323686Y268827D01*
X323333Y269678D01*
X322772Y270410D01*
X322041Y270971D01*
X321189Y271323D01*
X320776Y271378D01*
D02*
G37*
G36*
X319776D02*
X319362Y271323D01*
X318511Y270971D01*
X317779Y270410D01*
X317218Y269678D01*
X316866Y268827D01*
X316811Y268413D01*
X319776D01*
Y271378D01*
D02*
G37*
G36*
X289961Y274291D02*
X289125Y274181D01*
X288347Y273858D01*
X287678Y273345D01*
X287165Y272677D01*
X286843Y271898D01*
X286733Y271063D01*
X286843Y270228D01*
X287165Y269449D01*
X287678Y268781D01*
X288347Y268268D01*
X289125Y267945D01*
X289961Y267835D01*
X290796Y267945D01*
X291574Y268268D01*
X292243Y268781D01*
X292756Y269449D01*
X293078Y270228D01*
X293188Y271063D01*
X293078Y271898D01*
X292756Y272677D01*
X292243Y273345D01*
X291574Y273858D01*
X290796Y274181D01*
X289961Y274291D01*
D02*
G37*
G36*
X177354Y273728D02*
X170049D01*
Y266422D01*
X177354D01*
Y273728D01*
D02*
G37*
G36*
X213702Y273759D02*
X212748Y273634D01*
X211859Y273266D01*
X211096Y272680D01*
X210511Y271917D01*
X210143Y271028D01*
X210017Y270075D01*
X210143Y269121D01*
X210511Y268233D01*
X211096Y267470D01*
X211859Y266884D01*
X212748Y266516D01*
X213702Y266391D01*
X214655Y266516D01*
X215544Y266884D01*
X216307Y267470D01*
X216892Y268233D01*
X217260Y269121D01*
X217386Y270075D01*
X217260Y271028D01*
X216892Y271917D01*
X216307Y272680D01*
X215544Y273266D01*
X214655Y273634D01*
X213702Y273759D01*
D02*
G37*
G36*
X277658Y272421D02*
X276822Y272311D01*
X276044Y271988D01*
X275375Y271475D01*
X274862Y270807D01*
X274540Y270028D01*
X274430Y269193D01*
X274540Y268358D01*
X274862Y267579D01*
X275375Y266911D01*
X276044Y266398D01*
X276822Y266075D01*
X277658Y265965D01*
X278493Y266075D01*
X279271Y266398D01*
X279940Y266911D01*
X280453Y267579D01*
X280775Y268358D01*
X280885Y269193D01*
X280775Y270028D01*
X280453Y270807D01*
X279940Y271475D01*
X279271Y271988D01*
X278493Y272311D01*
X277658Y272421D01*
D02*
G37*
G36*
X143387Y272417D02*
X142551Y272307D01*
X141773Y271984D01*
X141104Y271471D01*
X140591Y270803D01*
X140269Y270024D01*
X140159Y269189D01*
X140269Y268354D01*
X140591Y267575D01*
X141104Y266907D01*
X141773Y266394D01*
X142551Y266072D01*
X143387Y265962D01*
X144222Y266072D01*
X145000Y266394D01*
X145669Y266907D01*
X146182Y267575D01*
X146504Y268354D01*
X146614Y269189D01*
X146504Y270024D01*
X146182Y270803D01*
X145669Y271471D01*
X145000Y271984D01*
X144222Y272307D01*
X143387Y272417D01*
D02*
G37*
G36*
X159370Y268890D02*
X156405D01*
Y265925D01*
X156819Y265980D01*
X157671Y266333D01*
X158402Y266894D01*
X158963Y267625D01*
X159315Y268476D01*
X159370Y268890D01*
D02*
G37*
G36*
X155405D02*
X152441D01*
X152496Y268476D01*
X152848Y267625D01*
X153409Y266894D01*
X154140Y266333D01*
X154992Y265980D01*
X155405Y265925D01*
Y268890D01*
D02*
G37*
G36*
X323740Y267413D02*
X320776D01*
Y264449D01*
X321189Y264504D01*
X322041Y264856D01*
X322772Y265417D01*
X323333Y266148D01*
X323686Y267000D01*
X323740Y267413D01*
D02*
G37*
G36*
X319776D02*
X316811D01*
X316866Y267000D01*
X317218Y266148D01*
X317779Y265417D01*
X318511Y264856D01*
X319362Y264504D01*
X319776Y264449D01*
Y267413D01*
D02*
G37*
G36*
X351332Y270134D02*
X350496Y270024D01*
X349718Y269702D01*
X349049Y269189D01*
X348536Y268520D01*
X348214Y267742D01*
X348104Y266906D01*
X348214Y266071D01*
X348536Y265293D01*
X349049Y264624D01*
X349718Y264111D01*
X350496Y263789D01*
X351332Y263679D01*
X352167Y263789D01*
X352945Y264111D01*
X353614Y264624D01*
X354127Y265293D01*
X354449Y266071D01*
X354559Y266906D01*
X354449Y267742D01*
X354127Y268520D01*
X353614Y269189D01*
X352945Y269702D01*
X352167Y270024D01*
X351332Y270134D01*
D02*
G37*
G36*
X361819Y265866D02*
Y262902D01*
X364783D01*
X364729Y263315D01*
X364376Y264167D01*
X363815Y264898D01*
X363084Y265459D01*
X362233Y265811D01*
X361819Y265866D01*
D02*
G37*
G36*
X360819D02*
X360405Y265811D01*
X359554Y265459D01*
X358823Y264898D01*
X358262Y264167D01*
X357909Y263315D01*
X357855Y262902D01*
X360819D01*
Y265866D01*
D02*
G37*
G36*
X68174Y268459D02*
X67339Y268349D01*
X66560Y268026D01*
X65892Y267513D01*
X65379Y266845D01*
X65056Y266066D01*
X64946Y265231D01*
X65056Y264396D01*
X65379Y263617D01*
X65892Y262949D01*
X66560Y262436D01*
X67339Y262113D01*
X68174Y262003D01*
X69009Y262113D01*
X69788Y262436D01*
X70456Y262949D01*
X70969Y263617D01*
X71292Y264396D01*
X71402Y265231D01*
X71292Y266066D01*
X70969Y266845D01*
X70456Y267513D01*
X69788Y268026D01*
X69009Y268349D01*
X68174Y268459D01*
D02*
G37*
G36*
X268091Y267692D02*
X267256Y267582D01*
X266477Y267260D01*
X265809Y266747D01*
X265296Y266078D01*
X264974Y265300D01*
X264864Y264465D01*
X264974Y263629D01*
X265296Y262851D01*
X265809Y262182D01*
X266477Y261669D01*
X267256Y261347D01*
X268091Y261237D01*
X268927Y261347D01*
X269705Y261669D01*
X270374Y262182D01*
X270886Y262851D01*
X271209Y263629D01*
X271319Y264465D01*
X271209Y265300D01*
X270886Y266078D01*
X270374Y266747D01*
X269705Y267260D01*
X268927Y267582D01*
X268091Y267692D01*
D02*
G37*
G36*
X245677Y262126D02*
Y259161D01*
X248641D01*
X248587Y259575D01*
X248234Y260426D01*
X247673Y261158D01*
X246942Y261719D01*
X246091Y262071D01*
X245677Y262126D01*
D02*
G37*
G36*
X244677D02*
X244264Y262071D01*
X243412Y261719D01*
X242681Y261158D01*
X242120Y260426D01*
X241767Y259575D01*
X241713Y259161D01*
X244677D01*
Y262126D01*
D02*
G37*
G36*
X364783Y261902D02*
X361819D01*
Y258937D01*
X362233Y258992D01*
X363084Y259344D01*
X363815Y259905D01*
X364376Y260636D01*
X364729Y261488D01*
X364783Y261902D01*
D02*
G37*
G36*
X360819D02*
X357855D01*
X357909Y261488D01*
X358262Y260636D01*
X358823Y259905D01*
X359554Y259344D01*
X360405Y258992D01*
X360819Y258937D01*
Y261902D01*
D02*
G37*
G36*
X370574Y264559D02*
X369739Y264449D01*
X368960Y264126D01*
X368292Y263613D01*
X367779Y262945D01*
X367456Y262166D01*
X367346Y261331D01*
X367456Y260496D01*
X367779Y259717D01*
X368292Y259049D01*
X368960Y258536D01*
X369739Y258213D01*
X370574Y258103D01*
X371409Y258213D01*
X372188Y258536D01*
X372856Y259049D01*
X373369Y259717D01*
X373692Y260496D01*
X373802Y261331D01*
X373692Y262166D01*
X373369Y262945D01*
X372856Y263613D01*
X372188Y264126D01*
X371409Y264449D01*
X370574Y264559D01*
D02*
G37*
G36*
X331110Y260748D02*
Y257784D01*
X334075D01*
X334020Y258197D01*
X333667Y259049D01*
X333106Y259780D01*
X332375Y260341D01*
X331524Y260693D01*
X331110Y260748D01*
D02*
G37*
G36*
X330110D02*
X329697Y260693D01*
X328845Y260341D01*
X328114Y259780D01*
X327553Y259049D01*
X327200Y258197D01*
X327146Y257784D01*
X330110D01*
Y260748D01*
D02*
G37*
G36*
X215559Y260059D02*
Y257095D01*
X218523D01*
X218469Y257508D01*
X218116Y258360D01*
X217555Y259091D01*
X216824Y259652D01*
X215973Y260004D01*
X215559Y260059D01*
D02*
G37*
G36*
X214559D02*
X214145Y260004D01*
X213294Y259652D01*
X212563Y259091D01*
X212002Y258360D01*
X211649Y257508D01*
X211595Y257095D01*
X214559D01*
Y260059D01*
D02*
G37*
G36*
X124221Y259272D02*
Y256307D01*
X127185D01*
X127130Y256721D01*
X126778Y257572D01*
X126217Y258303D01*
X125486Y258864D01*
X124634Y259217D01*
X124221Y259272D01*
D02*
G37*
G36*
X123221D02*
X122807Y259217D01*
X121955Y258864D01*
X121224Y258303D01*
X120663Y257572D01*
X120311Y256721D01*
X120256Y256307D01*
X123221D01*
Y259272D01*
D02*
G37*
G36*
X248641Y258161D02*
X245677D01*
Y255197D01*
X246091Y255252D01*
X246942Y255604D01*
X247673Y256165D01*
X248234Y256896D01*
X248587Y257748D01*
X248641Y258161D01*
D02*
G37*
G36*
X244677D02*
X241713D01*
X241767Y257748D01*
X242120Y256896D01*
X242681Y256165D01*
X243412Y255604D01*
X244264Y255252D01*
X244677Y255197D01*
Y258161D01*
D02*
G37*
G36*
X61721Y258090D02*
Y255126D01*
X64685D01*
X64630Y255540D01*
X64278Y256391D01*
X63717Y257122D01*
X62986Y257683D01*
X62134Y258036D01*
X61721Y258090D01*
D02*
G37*
G36*
X60720D02*
X60307Y258036D01*
X59455Y257683D01*
X58724Y257122D01*
X58163Y256391D01*
X57811Y255540D01*
X57756Y255126D01*
X60720D01*
Y258090D01*
D02*
G37*
G36*
X167008Y261196D02*
X166173Y261086D01*
X165395Y260764D01*
X164726Y260251D01*
X164213Y259582D01*
X163891Y258804D01*
X163781Y257969D01*
X163891Y257133D01*
X164213Y256355D01*
X164726Y255686D01*
X165395Y255173D01*
X166173Y254851D01*
X167008Y254741D01*
X167844Y254851D01*
X168622Y255173D01*
X169291Y255686D01*
X169804Y256355D01*
X170126Y257133D01*
X170236Y257969D01*
X170126Y258804D01*
X169804Y259582D01*
X169291Y260251D01*
X168622Y260764D01*
X167844Y261086D01*
X167008Y261196D01*
D02*
G37*
G36*
X334075Y256784D02*
X331110D01*
Y253819D01*
X331524Y253873D01*
X332375Y254226D01*
X333106Y254787D01*
X333667Y255518D01*
X334020Y256370D01*
X334075Y256784D01*
D02*
G37*
G36*
X330110D02*
X327146D01*
X327200Y256370D01*
X327553Y255518D01*
X328114Y254787D01*
X328845Y254226D01*
X329697Y253873D01*
X330110Y253819D01*
Y256784D01*
D02*
G37*
G36*
X151260Y259818D02*
X150425Y259708D01*
X149647Y259386D01*
X148978Y258873D01*
X148465Y258205D01*
X148143Y257426D01*
X148033Y256591D01*
X148143Y255755D01*
X148465Y254977D01*
X148978Y254309D01*
X149647Y253796D01*
X150425Y253473D01*
X151260Y253363D01*
X152096Y253473D01*
X152874Y253796D01*
X153543Y254309D01*
X154056Y254977D01*
X154378Y255755D01*
X154488Y256591D01*
X154378Y257426D01*
X154056Y258205D01*
X153543Y258873D01*
X152874Y259386D01*
X152096Y259708D01*
X151260Y259818D01*
D02*
G37*
G36*
X197941Y256220D02*
Y253256D01*
X200905D01*
X200851Y253670D01*
X200498Y254521D01*
X199937Y255252D01*
X199206Y255813D01*
X198355Y256166D01*
X197941Y256220D01*
D02*
G37*
G36*
X196941D02*
X196527Y256166D01*
X195676Y255813D01*
X194945Y255252D01*
X194384Y254521D01*
X194031Y253670D01*
X193977Y253256D01*
X196941D01*
Y256220D01*
D02*
G37*
G36*
X218523Y256095D02*
X215559D01*
Y253130D01*
X215973Y253185D01*
X216824Y253537D01*
X217555Y254098D01*
X218116Y254829D01*
X218469Y255681D01*
X218523Y256095D01*
D02*
G37*
G36*
X214559D02*
X211595D01*
X211649Y255681D01*
X212002Y254829D01*
X212563Y254098D01*
X213294Y253537D01*
X214145Y253185D01*
X214559Y253130D01*
Y256095D01*
D02*
G37*
G36*
X339548Y259228D02*
X338713Y259118D01*
X337934Y258795D01*
X337266Y258282D01*
X336753Y257614D01*
X336430Y256836D01*
X336320Y256000D01*
X336430Y255165D01*
X336753Y254386D01*
X337266Y253718D01*
X337934Y253205D01*
X338713Y252883D01*
X339548Y252772D01*
X340383Y252883D01*
X341162Y253205D01*
X341830Y253718D01*
X342343Y254386D01*
X342666Y255165D01*
X342776Y256000D01*
X342666Y256836D01*
X342343Y257614D01*
X341830Y258282D01*
X341162Y258795D01*
X340383Y259118D01*
X339548Y259228D01*
D02*
G37*
G36*
X284350Y258936D02*
X283515Y258826D01*
X282736Y258504D01*
X282068Y257991D01*
X281555Y257323D01*
X281233Y256544D01*
X281123Y255709D01*
X281233Y254873D01*
X281555Y254095D01*
X282068Y253427D01*
X282736Y252913D01*
X283515Y252591D01*
X284350Y252481D01*
X285186Y252591D01*
X285964Y252913D01*
X286633Y253427D01*
X287145Y254095D01*
X287468Y254873D01*
X287578Y255709D01*
X287468Y256544D01*
X287145Y257323D01*
X286633Y257991D01*
X285964Y258504D01*
X285186Y258826D01*
X284350Y258936D01*
D02*
G37*
G36*
X113394Y255433D02*
Y252468D01*
X116358D01*
X116304Y252882D01*
X115951Y253734D01*
X115390Y254465D01*
X114659Y255026D01*
X113807Y255378D01*
X113394Y255433D01*
D02*
G37*
G36*
X112394D02*
X111980Y255378D01*
X111129Y255026D01*
X110398Y254465D01*
X109836Y253734D01*
X109484Y252882D01*
X109429Y252468D01*
X112394D01*
Y255433D01*
D02*
G37*
G36*
X127185Y255307D02*
X124221D01*
Y252343D01*
X124634Y252397D01*
X125486Y252750D01*
X126217Y253311D01*
X126778Y254042D01*
X127130Y254893D01*
X127185Y255307D01*
D02*
G37*
G36*
X123221D02*
X120256D01*
X120311Y254893D01*
X120663Y254042D01*
X121224Y253311D01*
X121955Y252750D01*
X122807Y252397D01*
X123221Y252343D01*
Y255307D01*
D02*
G37*
G36*
X234922Y257948D02*
X234087Y257838D01*
X233308Y257516D01*
X232640Y257003D01*
X232127Y256334D01*
X231804Y255556D01*
X231694Y254721D01*
X231804Y253885D01*
X232127Y253107D01*
X232640Y252438D01*
X233308Y251926D01*
X234087Y251603D01*
X234922Y251493D01*
X235757Y251603D01*
X236536Y251926D01*
X237204Y252438D01*
X237717Y253107D01*
X238040Y253885D01*
X238150Y254721D01*
X238040Y255556D01*
X237717Y256334D01*
X237204Y257003D01*
X236536Y257516D01*
X235757Y257838D01*
X234922Y257948D01*
D02*
G37*
G36*
X64685Y254126D02*
X61721D01*
Y251162D01*
X62134Y251216D01*
X62986Y251569D01*
X63717Y252130D01*
X64278Y252861D01*
X64630Y253712D01*
X64685Y254126D01*
D02*
G37*
G36*
X60720D02*
X57756D01*
X57811Y253712D01*
X58163Y252861D01*
X58724Y252130D01*
X59455Y251569D01*
X60307Y251216D01*
X60720Y251162D01*
Y254126D01*
D02*
G37*
G36*
X143413Y253957D02*
Y250992D01*
X146378D01*
X146323Y251406D01*
X145971Y252257D01*
X145410Y252988D01*
X144678Y253549D01*
X143827Y253902D01*
X143413Y253957D01*
D02*
G37*
G36*
X142413D02*
X142000Y253902D01*
X141148Y253549D01*
X140417Y252988D01*
X139856Y252257D01*
X139504Y251406D01*
X139449Y250992D01*
X142413D01*
Y253957D01*
D02*
G37*
G36*
X293898Y256574D02*
X293062Y256464D01*
X292284Y256142D01*
X291615Y255629D01*
X291102Y254960D01*
X290780Y254182D01*
X290670Y253346D01*
X290780Y252511D01*
X291102Y251733D01*
X291615Y251064D01*
X292284Y250551D01*
X293062Y250229D01*
X293898Y250119D01*
X294733Y250229D01*
X295511Y250551D01*
X296180Y251064D01*
X296693Y251733D01*
X297015Y252511D01*
X297125Y253346D01*
X297015Y254182D01*
X296693Y254960D01*
X296180Y255629D01*
X295511Y256142D01*
X294733Y256464D01*
X293898Y256574D01*
D02*
G37*
G36*
X390375Y253491D02*
Y250069D01*
X393796D01*
X393726Y250601D01*
X393327Y251563D01*
X392694Y252389D01*
X391868Y253022D01*
X390907Y253421D01*
X390375Y253491D01*
D02*
G37*
G36*
X383827Y253522D02*
X380375D01*
Y250069D01*
X383827D01*
Y253522D01*
D02*
G37*
G36*
X389375Y253491D02*
X388843Y253421D01*
X387881Y253022D01*
X387056Y252389D01*
X386422Y251563D01*
X386024Y250601D01*
X385954Y250069D01*
X389375D01*
Y253491D01*
D02*
G37*
G36*
X379375Y253522D02*
X375922D01*
Y250069D01*
X379375D01*
Y253522D01*
D02*
G37*
G36*
X200905Y252256D02*
X197941D01*
Y249291D01*
X198355Y249346D01*
X199206Y249699D01*
X199937Y250260D01*
X200498Y250991D01*
X200851Y251842D01*
X200905Y252256D01*
D02*
G37*
G36*
X196941D02*
X193977D01*
X194031Y251842D01*
X194384Y250991D01*
X194945Y250260D01*
X195676Y249699D01*
X196527Y249346D01*
X196941Y249291D01*
Y252256D01*
D02*
G37*
G36*
X116358Y251468D02*
X113394D01*
Y248504D01*
X113807Y248559D01*
X114659Y248911D01*
X115390Y249472D01*
X115951Y250203D01*
X116304Y251055D01*
X116358Y251468D01*
D02*
G37*
G36*
X112394D02*
X109429D01*
X109484Y251055D01*
X109836Y250203D01*
X110398Y249472D01*
X111129Y248911D01*
X111980Y248559D01*
X112394Y248504D01*
Y251468D01*
D02*
G37*
G36*
X68174Y254959D02*
X67339Y254849D01*
X66560Y254526D01*
X65892Y254013D01*
X65379Y253345D01*
X65056Y252566D01*
X64946Y251731D01*
X65056Y250896D01*
X65379Y250117D01*
X65892Y249449D01*
X66560Y248936D01*
X67339Y248613D01*
X68174Y248503D01*
X69009Y248613D01*
X69788Y248936D01*
X70456Y249449D01*
X70969Y250117D01*
X71292Y250896D01*
X71402Y251731D01*
X71292Y252566D01*
X70969Y253345D01*
X70456Y254013D01*
X69788Y254526D01*
X69009Y254849D01*
X68174Y254959D01*
D02*
G37*
G36*
X100276Y254897D02*
X99441Y254787D01*
X98663Y254465D01*
X97994Y253952D01*
X97481Y253283D01*
X97159Y252505D01*
X97049Y251670D01*
X97159Y250834D01*
X97481Y250056D01*
X97994Y249387D01*
X98663Y248874D01*
X99441Y248552D01*
X100276Y248442D01*
X101112Y248552D01*
X101890Y248874D01*
X102559Y249387D01*
X103071Y250056D01*
X103394Y250834D01*
X103504Y251670D01*
X103394Y252505D01*
X103071Y253283D01*
X102559Y253952D01*
X101890Y254465D01*
X101112Y254787D01*
X100276Y254897D01*
D02*
G37*
G36*
X146378Y249992D02*
X143413D01*
Y247028D01*
X143827Y247082D01*
X144678Y247435D01*
X145410Y247996D01*
X145971Y248727D01*
X146323Y249578D01*
X146378Y249992D01*
D02*
G37*
G36*
X142413D02*
X139449D01*
X139504Y249578D01*
X139856Y248727D01*
X140417Y247996D01*
X141148Y247435D01*
X142000Y247082D01*
X142413Y247028D01*
Y249992D01*
D02*
G37*
G36*
X48882Y253222D02*
X41576D01*
Y245917D01*
X48882D01*
Y253222D01*
D02*
G37*
G36*
X55229Y253254D02*
X54276Y253128D01*
X53387Y252760D01*
X52624Y252175D01*
X52039Y251412D01*
X51670Y250523D01*
X51545Y249570D01*
X51670Y248616D01*
X52039Y247727D01*
X52624Y246964D01*
X53387Y246379D01*
X54276Y246011D01*
X55229Y245885D01*
X56183Y246011D01*
X57071Y246379D01*
X57834Y246964D01*
X58420Y247727D01*
X58788Y248616D01*
X58913Y249570D01*
X58788Y250523D01*
X58420Y251412D01*
X57834Y252175D01*
X57071Y252760D01*
X56183Y253128D01*
X55229Y253254D01*
D02*
G37*
G36*
X393796Y249069D02*
X390375D01*
Y245649D01*
X390907Y245719D01*
X391868Y246117D01*
X392694Y246750D01*
X393327Y247576D01*
X393726Y248538D01*
X393796Y249069D01*
D02*
G37*
G36*
X389375D02*
X385954D01*
X386024Y248538D01*
X386422Y247576D01*
X387056Y246750D01*
X387881Y246117D01*
X388843Y245719D01*
X389375Y245649D01*
Y249069D01*
D02*
G37*
G36*
X383827D02*
X380375D01*
Y245617D01*
X383827D01*
Y249069D01*
D02*
G37*
G36*
X379375D02*
X375922D01*
Y245617D01*
X379375D01*
Y249069D01*
D02*
G37*
G36*
X98433Y246772D02*
Y243807D01*
X101397D01*
X101343Y244221D01*
X100990Y245072D01*
X100429Y245803D01*
X99698Y246364D01*
X98847Y246717D01*
X98433Y246772D01*
D02*
G37*
G36*
X97433D02*
X97019Y246717D01*
X96168Y246364D01*
X95437Y245803D01*
X94876Y245072D01*
X94523Y244221D01*
X94469Y243807D01*
X97433D01*
Y246772D01*
D02*
G37*
G36*
X120674Y249959D02*
X119839Y249849D01*
X119060Y249526D01*
X118392Y249013D01*
X117879Y248345D01*
X117556Y247566D01*
X117446Y246731D01*
X117556Y245896D01*
X117879Y245117D01*
X118392Y244449D01*
X119060Y243936D01*
X119839Y243613D01*
X120674Y243503D01*
X121509Y243613D01*
X122288Y243936D01*
X122956Y244449D01*
X123469Y245117D01*
X123792Y245896D01*
X123902Y246731D01*
X123792Y247566D01*
X123469Y248345D01*
X122956Y249013D01*
X122288Y249526D01*
X121509Y249849D01*
X120674Y249959D01*
D02*
G37*
G36*
X362498Y247724D02*
X361663Y247614D01*
X360884Y247292D01*
X360216Y246779D01*
X359703Y246110D01*
X359381Y245332D01*
X359271Y244496D01*
X359381Y243661D01*
X359703Y242883D01*
X360216Y242214D01*
X360884Y241701D01*
X361663Y241379D01*
X362498Y241269D01*
X363334Y241379D01*
X364112Y241701D01*
X364781Y242214D01*
X365294Y242883D01*
X365616Y243661D01*
X365726Y244496D01*
X365616Y245332D01*
X365294Y246110D01*
X364781Y246779D01*
X364112Y247292D01*
X363334Y247614D01*
X362498Y247724D01*
D02*
G37*
G36*
X371563Y244212D02*
Y241248D01*
X374527D01*
X374473Y241662D01*
X374120Y242513D01*
X373559Y243244D01*
X372828Y243805D01*
X371977Y244158D01*
X371563Y244212D01*
D02*
G37*
G36*
X370563D02*
X370149Y244158D01*
X369298Y243805D01*
X368567Y243244D01*
X368006Y242513D01*
X367653Y241662D01*
X367599Y241248D01*
X370563D01*
Y244212D01*
D02*
G37*
G36*
X101397Y242807D02*
X98433D01*
Y239843D01*
X98847Y239897D01*
X99698Y240250D01*
X100429Y240811D01*
X100990Y241542D01*
X101343Y242393D01*
X101397Y242807D01*
D02*
G37*
G36*
X97433D02*
X94469D01*
X94523Y242393D01*
X94876Y241542D01*
X95437Y240811D01*
X96168Y240250D01*
X97019Y239897D01*
X97433Y239843D01*
Y242807D01*
D02*
G37*
G36*
X109063Y242145D02*
Y239181D01*
X112027D01*
X111973Y239595D01*
X111620Y240446D01*
X111059Y241177D01*
X110328Y241738D01*
X109477Y242091D01*
X109063Y242145D01*
D02*
G37*
G36*
X108063D02*
X107649Y242091D01*
X106798Y241738D01*
X106067Y241177D01*
X105506Y240446D01*
X105153Y239595D01*
X105099Y239181D01*
X108063D01*
Y242145D01*
D02*
G37*
G36*
X69854Y245034D02*
X69018Y244924D01*
X68240Y244602D01*
X67571Y244089D01*
X67058Y243420D01*
X66736Y242642D01*
X66626Y241807D01*
X66736Y240971D01*
X67058Y240193D01*
X67571Y239524D01*
X68240Y239011D01*
X69018Y238689D01*
X69854Y238579D01*
X70689Y238689D01*
X71467Y239011D01*
X72136Y239524D01*
X72649Y240193D01*
X72971Y240971D01*
X73081Y241807D01*
X72971Y242642D01*
X72649Y243420D01*
X72136Y244089D01*
X71467Y244602D01*
X70689Y244924D01*
X69854Y245034D01*
D02*
G37*
G36*
X163453Y244293D02*
X162618Y244183D01*
X161840Y243861D01*
X161171Y243348D01*
X160658Y242679D01*
X160336Y241901D01*
X160226Y241066D01*
X160336Y240230D01*
X160658Y239452D01*
X161171Y238783D01*
X161840Y238270D01*
X162618Y237948D01*
X163453Y237838D01*
X164289Y237948D01*
X165067Y238270D01*
X165736Y238783D01*
X166249Y239452D01*
X166571Y240230D01*
X166681Y241066D01*
X166571Y241901D01*
X166249Y242679D01*
X165736Y243348D01*
X165067Y243861D01*
X164289Y244183D01*
X163453Y244293D01*
D02*
G37*
G36*
X207855Y244169D02*
X207020Y244059D01*
X206241Y243736D01*
X205573Y243223D01*
X205060Y242555D01*
X204737Y241776D01*
X204627Y240941D01*
X204737Y240106D01*
X205060Y239327D01*
X205573Y238659D01*
X206241Y238146D01*
X207020Y237824D01*
X207855Y237714D01*
X208691Y237824D01*
X209469Y238146D01*
X210137Y238659D01*
X210650Y239327D01*
X210973Y240106D01*
X211083Y240941D01*
X210973Y241776D01*
X210650Y242555D01*
X210137Y243223D01*
X209469Y243736D01*
X208691Y244059D01*
X207855Y244169D01*
D02*
G37*
G36*
X374527Y240248D02*
X371563D01*
Y237284D01*
X371977Y237338D01*
X372828Y237691D01*
X373559Y238252D01*
X374120Y238983D01*
X374473Y239834D01*
X374527Y240248D01*
D02*
G37*
G36*
X370563D02*
X367599D01*
X367653Y239834D01*
X368006Y238983D01*
X368567Y238252D01*
X369298Y237691D01*
X370149Y237338D01*
X370563Y237284D01*
Y240248D01*
D02*
G37*
G36*
X217553Y243434D02*
X216718Y243324D01*
X215940Y243002D01*
X215271Y242489D01*
X214758Y241820D01*
X214436Y241042D01*
X214326Y240207D01*
X214436Y239371D01*
X214758Y238593D01*
X215271Y237924D01*
X215940Y237411D01*
X216718Y237089D01*
X217553Y236979D01*
X218389Y237089D01*
X219167Y237411D01*
X219836Y237924D01*
X220349Y238593D01*
X220671Y239371D01*
X220781Y240207D01*
X220671Y241042D01*
X220349Y241820D01*
X219836Y242489D01*
X219167Y243002D01*
X218389Y243324D01*
X217553Y243434D01*
D02*
G37*
G36*
X350785Y243000D02*
X349950Y242890D01*
X349171Y242567D01*
X348503Y242054D01*
X347990Y241386D01*
X347668Y240607D01*
X347557Y239772D01*
X347668Y238937D01*
X347990Y238158D01*
X348503Y237490D01*
X349171Y236977D01*
X349950Y236654D01*
X350785Y236544D01*
X351621Y236654D01*
X352399Y236977D01*
X353067Y237490D01*
X353580Y238158D01*
X353601Y238207D01*
X354142D01*
X354371Y237654D01*
X354884Y236986D01*
X355552Y236473D01*
X356331Y236150D01*
X357166Y236040D01*
X358001Y236150D01*
X358780Y236473D01*
X359448Y236986D01*
X359961Y237654D01*
X360284Y238433D01*
X360394Y239268D01*
X360284Y240103D01*
X359961Y240882D01*
X359448Y241550D01*
X358780Y242063D01*
X358001Y242386D01*
X357166Y242496D01*
X356331Y242386D01*
X355552Y242063D01*
X354884Y241550D01*
X354371Y240882D01*
X354351Y240833D01*
X353809D01*
X353580Y241386D01*
X353067Y242054D01*
X352399Y242567D01*
X351621Y242890D01*
X350785Y243000D01*
D02*
G37*
G36*
X389875Y243254D02*
X388921Y243128D01*
X388033Y242760D01*
X387270Y242175D01*
X386684Y241412D01*
X386316Y240523D01*
X386191Y239569D01*
X386316Y238616D01*
X386684Y237727D01*
X387270Y236964D01*
X388033Y236379D01*
X388921Y236011D01*
X389875Y235885D01*
X390828Y236011D01*
X391717Y236379D01*
X392480Y236964D01*
X393065Y237727D01*
X393433Y238616D01*
X393559Y239569D01*
X393433Y240523D01*
X393065Y241412D01*
X392480Y242175D01*
X391717Y242760D01*
X390828Y243128D01*
X389875Y243254D01*
D02*
G37*
G36*
X379875D02*
X378921Y243128D01*
X378033Y242760D01*
X377270Y242175D01*
X376684Y241412D01*
X376316Y240523D01*
X376190Y239569D01*
X376316Y238616D01*
X376684Y237727D01*
X377270Y236964D01*
X378033Y236379D01*
X378921Y236011D01*
X379875Y235885D01*
X380828Y236011D01*
X381717Y236379D01*
X382480Y236964D01*
X383065Y237727D01*
X383434Y238616D01*
X383559Y239569D01*
X383434Y240523D01*
X383065Y241412D01*
X382480Y242175D01*
X381717Y242760D01*
X380828Y243128D01*
X379875Y243254D01*
D02*
G37*
G36*
X55229D02*
X54276Y243128D01*
X53387Y242760D01*
X52624Y242175D01*
X52039Y241412D01*
X51670Y240523D01*
X51545Y239569D01*
X51670Y238616D01*
X52039Y237727D01*
X52624Y236964D01*
X53387Y236379D01*
X54276Y236011D01*
X55229Y235885D01*
X56183Y236011D01*
X57071Y236379D01*
X57834Y236964D01*
X58420Y237727D01*
X58788Y238616D01*
X58913Y239569D01*
X58788Y240523D01*
X58420Y241412D01*
X57834Y242175D01*
X57071Y242760D01*
X56183Y243128D01*
X55229Y243254D01*
D02*
G37*
G36*
X45229D02*
X44276Y243128D01*
X43387Y242760D01*
X42624Y242175D01*
X42039Y241412D01*
X41670Y240523D01*
X41545Y239569D01*
X41670Y238616D01*
X42039Y237727D01*
X42624Y236964D01*
X43387Y236379D01*
X44276Y236011D01*
X45229Y235885D01*
X46183Y236011D01*
X47071Y236379D01*
X47834Y236964D01*
X48420Y237727D01*
X48788Y238616D01*
X48913Y239569D01*
X48788Y240523D01*
X48420Y241412D01*
X47834Y242175D01*
X47071Y242760D01*
X46183Y243128D01*
X45229Y243254D01*
D02*
G37*
G36*
X112027Y238181D02*
X109063D01*
Y235217D01*
X109477Y235271D01*
X110328Y235624D01*
X111059Y236185D01*
X111620Y236916D01*
X111973Y237767D01*
X112027Y238181D01*
D02*
G37*
G36*
X108063D02*
X105099D01*
X105153Y237767D01*
X105506Y236916D01*
X106067Y236185D01*
X106798Y235624D01*
X107649Y235271D01*
X108063Y235217D01*
Y238181D01*
D02*
G37*
G36*
X85933Y237323D02*
Y234358D01*
X88897D01*
X88843Y234772D01*
X88490Y235623D01*
X87929Y236354D01*
X87198Y236915D01*
X86347Y237268D01*
X85933Y237323D01*
D02*
G37*
G36*
X84933D02*
X84519Y237268D01*
X83668Y236915D01*
X82937Y236354D01*
X82376Y235623D01*
X82023Y234772D01*
X81969Y234358D01*
X84933D01*
Y237323D01*
D02*
G37*
G36*
X139453Y239234D02*
X138618Y239124D01*
X137840Y238802D01*
X137171Y238289D01*
X136658Y237620D01*
X136336Y236842D01*
X136226Y236006D01*
X136336Y235171D01*
X136658Y234393D01*
X137171Y233724D01*
X137840Y233211D01*
X138618Y232889D01*
X139453Y232779D01*
X140289Y232889D01*
X141067Y233211D01*
X141736Y233724D01*
X142249Y234393D01*
X142571Y235171D01*
X142681Y236006D01*
X142571Y236842D01*
X142249Y237620D01*
X141736Y238289D01*
X141067Y238802D01*
X140289Y239124D01*
X139453Y239234D01*
D02*
G37*
G36*
X88897Y233358D02*
X85933D01*
Y230394D01*
X86347Y230448D01*
X87198Y230801D01*
X87929Y231362D01*
X88490Y232093D01*
X88843Y232945D01*
X88897Y233358D01*
D02*
G37*
G36*
X84933D02*
X81969D01*
X82023Y232945D01*
X82376Y232093D01*
X82937Y231362D01*
X83668Y230801D01*
X84519Y230448D01*
X84933Y230394D01*
Y233358D01*
D02*
G37*
G36*
X121358Y235314D02*
X120523Y235204D01*
X119745Y234882D01*
X119076Y234369D01*
X118563Y233700D01*
X118241Y232922D01*
X118131Y232086D01*
X118241Y231251D01*
X118563Y230473D01*
X119076Y229804D01*
X119745Y229291D01*
X120523Y228969D01*
X121358Y228859D01*
X122194Y228969D01*
X122972Y229291D01*
X123641Y229804D01*
X124153Y230473D01*
X124476Y231251D01*
X124586Y232086D01*
X124476Y232922D01*
X124153Y233700D01*
X123641Y234369D01*
X122972Y234882D01*
X122194Y235204D01*
X121358Y235314D01*
D02*
G37*
G36*
X357882Y231220D02*
Y228256D01*
X360846D01*
X360792Y228670D01*
X360439Y229521D01*
X359878Y230252D01*
X359147Y230813D01*
X358296Y231166D01*
X357882Y231220D01*
D02*
G37*
G36*
X356882D02*
X356468Y231166D01*
X355617Y230813D01*
X354886Y230252D01*
X354325Y229521D01*
X353972Y228670D01*
X353918Y228256D01*
X356882D01*
Y231220D01*
D02*
G37*
G36*
X250484Y229449D02*
X250071Y229394D01*
X249219Y229042D01*
X248488Y228481D01*
X247927Y227749D01*
X247810Y227467D01*
X247269D01*
X247152Y227749D01*
X246591Y228481D01*
X245860Y229042D01*
X245008Y229394D01*
X244595Y229449D01*
Y225984D01*
Y222520D01*
X245008Y222574D01*
X245860Y222927D01*
X246591Y223488D01*
X247152Y224219D01*
X247269Y224502D01*
X247810D01*
X247927Y224219D01*
X248488Y223488D01*
X249219Y222927D01*
X250071Y222574D01*
X250484Y222520D01*
Y225984D01*
Y229449D01*
D02*
G37*
G36*
X108544Y233539D02*
X107709Y233429D01*
X106930Y233106D01*
X106262Y232594D01*
X105749Y231925D01*
X105427Y231147D01*
X105316Y230311D01*
X105427Y229476D01*
X105749Y228697D01*
X106262Y228029D01*
X106930Y227516D01*
X107709Y227194D01*
X108544Y227084D01*
X109379Y227194D01*
X110158Y227516D01*
X110826Y228029D01*
X111339Y228697D01*
X111662Y229476D01*
X111772Y230311D01*
X111662Y231147D01*
X111339Y231925D01*
X110826Y232594D01*
X110158Y233106D01*
X109379Y233429D01*
X108544Y233539D01*
D02*
G37*
G36*
X314083Y229547D02*
Y226583D01*
X317047D01*
X316993Y226996D01*
X316640Y227848D01*
X316079Y228579D01*
X315348Y229140D01*
X314496Y229493D01*
X314083Y229547D01*
D02*
G37*
G36*
X313083D02*
X312669Y229493D01*
X311818Y229140D01*
X311087Y228579D01*
X310525Y227848D01*
X310173Y226996D01*
X310118Y226583D01*
X313083D01*
Y229547D01*
D02*
G37*
G36*
X251484Y229449D02*
Y226484D01*
X254449D01*
X254394Y226898D01*
X254042Y227749D01*
X253481Y228481D01*
X252749Y229042D01*
X251898Y229394D01*
X251484Y229449D01*
D02*
G37*
G36*
X243595D02*
X243181Y229394D01*
X242329Y229042D01*
X241598Y228481D01*
X241037Y227749D01*
X240685Y226898D01*
X240630Y226484D01*
X243595D01*
Y229449D01*
D02*
G37*
G36*
X389875Y233254D02*
X388921Y233128D01*
X388033Y232760D01*
X387270Y232175D01*
X386684Y231412D01*
X386316Y230523D01*
X386191Y229570D01*
X386316Y228616D01*
X386684Y227727D01*
X387270Y226964D01*
X388033Y226379D01*
X388921Y226011D01*
X389875Y225885D01*
X390828Y226011D01*
X391717Y226379D01*
X392480Y226964D01*
X393065Y227727D01*
X393433Y228616D01*
X393559Y229570D01*
X393433Y230523D01*
X393065Y231412D01*
X392480Y232175D01*
X391717Y232760D01*
X390828Y233128D01*
X389875Y233254D01*
D02*
G37*
G36*
X379875D02*
X378921Y233128D01*
X378033Y232760D01*
X377270Y232175D01*
X376684Y231412D01*
X376316Y230523D01*
X376190Y229570D01*
X376316Y228616D01*
X376684Y227727D01*
X377270Y226964D01*
X378033Y226379D01*
X378921Y226011D01*
X379875Y225885D01*
X380828Y226011D01*
X381717Y226379D01*
X382480Y226964D01*
X383065Y227727D01*
X383434Y228616D01*
X383559Y229570D01*
X383434Y230523D01*
X383065Y231412D01*
X382480Y232175D01*
X381717Y232760D01*
X380828Y233128D01*
X379875Y233254D01*
D02*
G37*
G36*
X55229D02*
X54276Y233128D01*
X53387Y232760D01*
X52624Y232175D01*
X52039Y231412D01*
X51670Y230523D01*
X51545Y229570D01*
X51670Y228616D01*
X52039Y227727D01*
X52624Y226964D01*
X53387Y226379D01*
X54276Y226011D01*
X55229Y225885D01*
X56183Y226011D01*
X57071Y226379D01*
X57834Y226964D01*
X58420Y227727D01*
X58788Y228616D01*
X58913Y229570D01*
X58788Y230523D01*
X58420Y231412D01*
X57834Y232175D01*
X57071Y232760D01*
X56183Y233128D01*
X55229Y233254D01*
D02*
G37*
G36*
X45229D02*
X44276Y233128D01*
X43387Y232760D01*
X42624Y232175D01*
X42039Y231412D01*
X41670Y230523D01*
X41545Y229570D01*
X41670Y228616D01*
X42039Y227727D01*
X42624Y226964D01*
X43387Y226379D01*
X44276Y226011D01*
X45229Y225885D01*
X46183Y226011D01*
X47071Y226379D01*
X47834Y226964D01*
X48420Y227727D01*
X48788Y228616D01*
X48913Y229570D01*
X48788Y230523D01*
X48420Y231412D01*
X47834Y232175D01*
X47071Y232760D01*
X46183Y233128D01*
X45229Y233254D01*
D02*
G37*
G36*
X149122Y227874D02*
Y224909D01*
X152086D01*
X152032Y225323D01*
X151679Y226174D01*
X151118Y226906D01*
X150387Y227467D01*
X149536Y227819D01*
X149122Y227874D01*
D02*
G37*
G36*
X148122D02*
X147708Y227819D01*
X146857Y227467D01*
X146126Y226906D01*
X145565Y226174D01*
X145212Y225323D01*
X145158Y224909D01*
X148122D01*
Y227874D01*
D02*
G37*
G36*
X360846Y227256D02*
X357882D01*
Y224291D01*
X358296Y224346D01*
X359147Y224699D01*
X359878Y225260D01*
X360439Y225991D01*
X360792Y226842D01*
X360846Y227256D01*
D02*
G37*
G36*
X356882D02*
X353918D01*
X353972Y226842D01*
X354325Y225991D01*
X354886Y225260D01*
X355617Y224699D01*
X356468Y224346D01*
X356882Y224291D01*
Y227256D01*
D02*
G37*
G36*
X64870Y227086D02*
Y224122D01*
X67835D01*
X67780Y224536D01*
X67427Y225387D01*
X66866Y226118D01*
X66135Y226679D01*
X65284Y227032D01*
X64870Y227086D01*
D02*
G37*
G36*
X63870D02*
X63456Y227032D01*
X62605Y226679D01*
X61874Y226118D01*
X61313Y225387D01*
X60960Y224536D01*
X60906Y224122D01*
X63870D01*
Y227086D01*
D02*
G37*
G36*
X110539Y226397D02*
Y223433D01*
X113504D01*
X113449Y223847D01*
X113097Y224698D01*
X112536Y225429D01*
X111804Y225990D01*
X110953Y226343D01*
X110539Y226397D01*
D02*
G37*
G36*
X109539D02*
X109126Y226343D01*
X108274Y225990D01*
X107543Y225429D01*
X106982Y224698D01*
X106630Y223847D01*
X106575Y223433D01*
X109539D01*
Y226397D01*
D02*
G37*
G36*
X317047Y225583D02*
X314083D01*
Y222618D01*
X314496Y222673D01*
X315348Y223025D01*
X316079Y223586D01*
X316640Y224318D01*
X316993Y225169D01*
X317047Y225583D01*
D02*
G37*
G36*
X313083D02*
X310118D01*
X310173Y225169D01*
X310525Y224318D01*
X311087Y223586D01*
X311818Y223025D01*
X312669Y222673D01*
X313083Y222618D01*
Y225583D01*
D02*
G37*
G36*
X254449Y225484D02*
X251484D01*
Y222520D01*
X251898Y222574D01*
X252749Y222927D01*
X253481Y223488D01*
X254042Y224219D01*
X254394Y225071D01*
X254449Y225484D01*
D02*
G37*
G36*
X243595D02*
X240630D01*
X240685Y225071D01*
X241037Y224219D01*
X241598Y223488D01*
X242329Y222927D01*
X243181Y222574D01*
X243595Y222520D01*
Y225484D01*
D02*
G37*
G36*
X152086Y223909D02*
X149122D01*
Y220945D01*
X149536Y221000D01*
X150387Y221352D01*
X151118Y221913D01*
X151679Y222644D01*
X152032Y223496D01*
X152086Y223909D01*
D02*
G37*
G36*
X148122D02*
X145158D01*
X145212Y223496D01*
X145565Y222644D01*
X146126Y221913D01*
X146857Y221352D01*
X147708Y221000D01*
X148122Y220945D01*
Y223909D01*
D02*
G37*
G36*
X67835Y223122D02*
X64870D01*
Y220158D01*
X65284Y220212D01*
X66135Y220565D01*
X66866Y221126D01*
X67427Y221857D01*
X67780Y222708D01*
X67835Y223122D01*
D02*
G37*
G36*
X63870D02*
X60906D01*
X60960Y222708D01*
X61313Y221857D01*
X61874Y221126D01*
X62605Y220565D01*
X63456Y220212D01*
X63870Y220158D01*
Y223122D01*
D02*
G37*
G36*
X113504Y222433D02*
X110539D01*
Y219469D01*
X110953Y219523D01*
X111804Y219876D01*
X112536Y220437D01*
X113097Y221168D01*
X113449Y222019D01*
X113504Y222433D01*
D02*
G37*
G36*
X109539D02*
X106575D01*
X106630Y222019D01*
X106982Y221168D01*
X107543Y220437D01*
X108274Y219876D01*
X109126Y219523D01*
X109539Y219469D01*
Y222433D01*
D02*
G37*
G36*
X389875Y223254D02*
X388921Y223128D01*
X388033Y222760D01*
X387270Y222175D01*
X386684Y221412D01*
X386316Y220523D01*
X386191Y219569D01*
X386316Y218616D01*
X386684Y217727D01*
X387270Y216964D01*
X388033Y216379D01*
X388921Y216011D01*
X389875Y215885D01*
X390828Y216011D01*
X391717Y216379D01*
X392480Y216964D01*
X393065Y217727D01*
X393433Y218616D01*
X393559Y219569D01*
X393433Y220523D01*
X393065Y221412D01*
X392480Y222175D01*
X391717Y222760D01*
X390828Y223128D01*
X389875Y223254D01*
D02*
G37*
G36*
X379875D02*
X378921Y223128D01*
X378033Y222760D01*
X377270Y222175D01*
X376684Y221412D01*
X376316Y220523D01*
X376190Y219569D01*
X376316Y218616D01*
X376684Y217727D01*
X377270Y216964D01*
X378033Y216379D01*
X378921Y216011D01*
X379875Y215885D01*
X380828Y216011D01*
X381717Y216379D01*
X382480Y216964D01*
X383065Y217727D01*
X383434Y218616D01*
X383559Y219569D01*
X383434Y220523D01*
X383065Y221412D01*
X382480Y222175D01*
X381717Y222760D01*
X380828Y223128D01*
X379875Y223254D01*
D02*
G37*
G36*
X55229D02*
X54276Y223128D01*
X53387Y222760D01*
X52624Y222175D01*
X52039Y221412D01*
X51670Y220523D01*
X51545Y219569D01*
X51670Y218616D01*
X52039Y217727D01*
X52624Y216964D01*
X53387Y216379D01*
X54276Y216011D01*
X55229Y215885D01*
X56183Y216011D01*
X57071Y216379D01*
X57834Y216964D01*
X58420Y217727D01*
X58788Y218616D01*
X58913Y219569D01*
X58788Y220523D01*
X58420Y221412D01*
X57834Y222175D01*
X57071Y222760D01*
X56183Y223128D01*
X55229Y223254D01*
D02*
G37*
G36*
X45229D02*
X44276Y223128D01*
X43387Y222760D01*
X42624Y222175D01*
X42039Y221412D01*
X41670Y220523D01*
X41545Y219569D01*
X41670Y218616D01*
X42039Y217727D01*
X42624Y216964D01*
X43387Y216379D01*
X44276Y216011D01*
X45229Y215885D01*
X46183Y216011D01*
X47071Y216379D01*
X47834Y216964D01*
X48420Y217727D01*
X48788Y218616D01*
X48913Y219569D01*
X48788Y220523D01*
X48420Y221412D01*
X47834Y222175D01*
X47071Y222760D01*
X46183Y223128D01*
X45229Y223254D01*
D02*
G37*
G36*
X134516Y218618D02*
Y215653D01*
X137480D01*
X137426Y216067D01*
X137073Y216919D01*
X136512Y217650D01*
X135781Y218211D01*
X134929Y218564D01*
X134516Y218618D01*
D02*
G37*
G36*
X133516D02*
X133102Y218564D01*
X132251Y218211D01*
X131519Y217650D01*
X130958Y216919D01*
X130606Y216067D01*
X130551Y215653D01*
X133516D01*
Y218618D01*
D02*
G37*
G36*
X153059Y218425D02*
Y215461D01*
X156023D01*
X155969Y215874D01*
X155616Y216726D01*
X155055Y217457D01*
X154324Y218018D01*
X153473Y218371D01*
X153059Y218425D01*
D02*
G37*
G36*
X152059D02*
X151645Y218371D01*
X150794Y218018D01*
X150063Y217457D01*
X149502Y216726D01*
X149149Y215874D01*
X149095Y215461D01*
X152059D01*
Y218425D01*
D02*
G37*
G36*
X175375Y218184D02*
X174539Y218075D01*
X173761Y217752D01*
X173092Y217239D01*
X172580Y216571D01*
X172257Y215792D01*
X172147Y214957D01*
X172257Y214122D01*
X172580Y213343D01*
X173092Y212675D01*
X173761Y212162D01*
X174539Y211839D01*
X175375Y211729D01*
X176210Y211839D01*
X176989Y212162D01*
X177657Y212675D01*
X178170Y213343D01*
X178492Y214122D01*
X178602Y214957D01*
X178492Y215792D01*
X178170Y216571D01*
X177657Y217239D01*
X176989Y217752D01*
X176210Y218075D01*
X175375Y218184D01*
D02*
G37*
G36*
X137480Y214653D02*
X134516D01*
Y211689D01*
X134929Y211744D01*
X135781Y212096D01*
X136512Y212657D01*
X137073Y213388D01*
X137426Y214240D01*
X137480Y214653D01*
D02*
G37*
G36*
X133516D02*
X130551D01*
X130606Y214240D01*
X130958Y213388D01*
X131519Y212657D01*
X132251Y212096D01*
X133102Y211744D01*
X133516Y211689D01*
Y214653D01*
D02*
G37*
G36*
X156023Y214461D02*
X153059D01*
Y211496D01*
X153473Y211551D01*
X154324Y211903D01*
X155055Y212464D01*
X155616Y213195D01*
X155969Y214047D01*
X156023Y214461D01*
D02*
G37*
G36*
X152059D02*
X149095D01*
X149149Y214047D01*
X149502Y213195D01*
X150063Y212464D01*
X150794Y211903D01*
X151645Y211551D01*
X152059Y211496D01*
Y214461D01*
D02*
G37*
G36*
X218701Y217204D02*
X217865Y217094D01*
X217087Y216772D01*
X216419Y216259D01*
X215906Y215590D01*
X215583Y214812D01*
X215473Y213976D01*
X215583Y213141D01*
X215906Y212363D01*
X216419Y211694D01*
X217087Y211181D01*
X217865Y210859D01*
X218701Y210749D01*
X219536Y210859D01*
X220315Y211181D01*
X220983Y211694D01*
X221496Y212363D01*
X221818Y213141D01*
X221928Y213976D01*
X221818Y214812D01*
X221496Y215590D01*
X220983Y216259D01*
X220315Y216772D01*
X219536Y217094D01*
X218701Y217204D01*
D02*
G37*
G36*
X170480Y213504D02*
Y210539D01*
X173445D01*
X173390Y210953D01*
X173038Y211805D01*
X172476Y212536D01*
X171745Y213097D01*
X170894Y213449D01*
X170480Y213504D01*
D02*
G37*
G36*
X169480D02*
X169067Y213449D01*
X168215Y213097D01*
X167484Y212536D01*
X166923Y211805D01*
X166570Y210953D01*
X166516Y210539D01*
X169480D01*
Y213504D01*
D02*
G37*
G36*
X173445Y209539D02*
X170480D01*
Y206575D01*
X170894Y206629D01*
X171745Y206982D01*
X172476Y207543D01*
X173038Y208274D01*
X173390Y209126D01*
X173445Y209539D01*
D02*
G37*
G36*
X169480D02*
X166516D01*
X166570Y209126D01*
X166923Y208274D01*
X167484Y207543D01*
X168215Y206982D01*
X169067Y206629D01*
X169480Y206575D01*
Y209539D01*
D02*
G37*
G36*
X389875Y213254D02*
X388921Y213128D01*
X388033Y212760D01*
X387270Y212175D01*
X386684Y211412D01*
X386316Y210523D01*
X386191Y209570D01*
X386316Y208616D01*
X386684Y207727D01*
X387270Y206964D01*
X388033Y206379D01*
X388921Y206011D01*
X389875Y205885D01*
X390828Y206011D01*
X391717Y206379D01*
X392480Y206964D01*
X393065Y207727D01*
X393433Y208616D01*
X393559Y209570D01*
X393433Y210523D01*
X393065Y211412D01*
X392480Y212175D01*
X391717Y212760D01*
X390828Y213128D01*
X389875Y213254D01*
D02*
G37*
G36*
X379875D02*
X378921Y213128D01*
X378033Y212760D01*
X377270Y212175D01*
X376684Y211412D01*
X376316Y210523D01*
X376190Y209570D01*
X376316Y208616D01*
X376684Y207727D01*
X377270Y206964D01*
X378033Y206379D01*
X378921Y206011D01*
X379875Y205885D01*
X380828Y206011D01*
X381717Y206379D01*
X382480Y206964D01*
X383065Y207727D01*
X383434Y208616D01*
X383559Y209570D01*
X383434Y210523D01*
X383065Y211412D01*
X382480Y212175D01*
X381717Y212760D01*
X380828Y213128D01*
X379875Y213254D01*
D02*
G37*
G36*
X55229D02*
X54276Y213128D01*
X53387Y212760D01*
X52624Y212175D01*
X52039Y211412D01*
X51670Y210523D01*
X51545Y209570D01*
X51670Y208616D01*
X52039Y207727D01*
X52624Y206964D01*
X53387Y206379D01*
X54276Y206011D01*
X55229Y205885D01*
X56183Y206011D01*
X57071Y206379D01*
X57834Y206964D01*
X58420Y207727D01*
X58788Y208616D01*
X58913Y209570D01*
X58788Y210523D01*
X58420Y211412D01*
X57834Y212175D01*
X57071Y212760D01*
X56183Y213128D01*
X55229Y213254D01*
D02*
G37*
G36*
X45229D02*
X44276Y213128D01*
X43387Y212760D01*
X42624Y212175D01*
X42039Y211412D01*
X41670Y210523D01*
X41545Y209570D01*
X41670Y208616D01*
X42039Y207727D01*
X42624Y206964D01*
X43387Y206379D01*
X44276Y206011D01*
X45229Y205885D01*
X46183Y206011D01*
X47071Y206379D01*
X47834Y206964D01*
X48420Y207727D01*
X48788Y208616D01*
X48913Y209570D01*
X48788Y210523D01*
X48420Y211412D01*
X47834Y212175D01*
X47071Y212760D01*
X46183Y213128D01*
X45229Y213254D01*
D02*
G37*
G36*
X201950Y210409D02*
X201114Y210299D01*
X200336Y209977D01*
X199667Y209464D01*
X199154Y208795D01*
X198832Y208017D01*
X198722Y207181D01*
X198832Y206346D01*
X199154Y205568D01*
X199667Y204899D01*
X200336Y204386D01*
X201114Y204064D01*
X201950Y203954D01*
X202785Y204064D01*
X203563Y204386D01*
X204232Y204899D01*
X204745Y205568D01*
X205067Y206346D01*
X205177Y207181D01*
X205067Y208017D01*
X204745Y208795D01*
X204232Y209464D01*
X203563Y209977D01*
X202785Y210299D01*
X201950Y210409D01*
D02*
G37*
G36*
X161694Y208145D02*
X160858Y208035D01*
X160080Y207713D01*
X159412Y207200D01*
X158899Y206531D01*
X158576Y205753D01*
X158466Y204918D01*
X158569Y204138D01*
X158448Y204012D01*
X158135Y203840D01*
X158091Y203874D01*
X157313Y204197D01*
X156477Y204307D01*
X155642Y204197D01*
X154863Y203874D01*
X154195Y203361D01*
X153682Y202693D01*
X153359Y201914D01*
X153250Y201079D01*
X153359Y200244D01*
X153682Y199465D01*
X154195Y198797D01*
X154863Y198284D01*
X155642Y197961D01*
X156477Y197851D01*
X157313Y197961D01*
X158091Y198284D01*
X158759Y198797D01*
X159272Y199465D01*
X159595Y200244D01*
X159705Y201079D01*
X159602Y201859D01*
X159723Y201985D01*
X160036Y202156D01*
X160080Y202122D01*
X160858Y201800D01*
X161694Y201690D01*
X162529Y201800D01*
X163308Y202122D01*
X163976Y202635D01*
X164489Y203304D01*
X164811Y204082D01*
X164921Y204918D01*
X164811Y205753D01*
X164489Y206531D01*
X163976Y207200D01*
X163308Y207713D01*
X162529Y208035D01*
X161694Y208145D01*
D02*
G37*
G36*
X150965Y209129D02*
X150130Y209019D01*
X149352Y208697D01*
X148683Y208184D01*
X148170Y207516D01*
X147848Y206737D01*
X147738Y205902D01*
X147848Y205066D01*
X148170Y204288D01*
X148683Y203620D01*
X149352Y203106D01*
X150130Y202784D01*
X150965Y202674D01*
X151801Y202784D01*
X152579Y203106D01*
X153248Y203620D01*
X153761Y204288D01*
X154083Y205066D01*
X154193Y205902D01*
X154083Y206737D01*
X153761Y207516D01*
X153248Y208184D01*
X152579Y208697D01*
X151801Y209019D01*
X150965Y209129D01*
D02*
G37*
G36*
X137481Y208440D02*
X136646Y208330D01*
X135867Y208008D01*
X135199Y207495D01*
X134686Y206826D01*
X134363Y206048D01*
X134253Y205213D01*
X134363Y204377D01*
X134686Y203599D01*
X135199Y202930D01*
X135867Y202418D01*
X136646Y202095D01*
X137481Y201985D01*
X138316Y202095D01*
X139095Y202418D01*
X139763Y202930D01*
X140276Y203599D01*
X140599Y204377D01*
X140709Y205213D01*
X140599Y206048D01*
X140276Y206826D01*
X139763Y207495D01*
X139095Y208008D01*
X138316Y208330D01*
X137481Y208440D01*
D02*
G37*
G36*
X199674Y200658D02*
X198839Y200549D01*
X198060Y200226D01*
X197392Y199713D01*
X196879Y199045D01*
X196572Y198305D01*
X196432Y198270D01*
X196054Y198283D01*
X195788Y198926D01*
X195275Y199594D01*
X194607Y200107D01*
X193828Y200430D01*
X192993Y200540D01*
X192158Y200430D01*
X191379Y200107D01*
X190711Y199594D01*
X190198Y198926D01*
X189875Y198147D01*
X189765Y197312D01*
X189875Y196477D01*
X190198Y195698D01*
X190711Y195030D01*
X191379Y194517D01*
X192158Y194194D01*
X192993Y194084D01*
X193828Y194194D01*
X194607Y194517D01*
X195275Y195030D01*
X195788Y195698D01*
X196094Y196438D01*
X196235Y196472D01*
X196613Y196460D01*
X196879Y195817D01*
X197392Y195149D01*
X198060Y194636D01*
X198839Y194313D01*
X199674Y194203D01*
X200509Y194313D01*
X201288Y194636D01*
X201956Y195149D01*
X202469Y195817D01*
X202792Y196596D01*
X202902Y197431D01*
X202792Y198266D01*
X202469Y199045D01*
X201956Y199713D01*
X201288Y200226D01*
X200509Y200549D01*
X199674Y200658D01*
D02*
G37*
G36*
X147225Y202928D02*
X146390Y202819D01*
X145611Y202496D01*
X144943Y201983D01*
X144430Y201315D01*
X144107Y200536D01*
X143998Y199701D01*
X144107Y198866D01*
X144430Y198087D01*
X144943Y197419D01*
X145611Y196906D01*
X146390Y196583D01*
X147225Y196473D01*
X148061Y196583D01*
X148839Y196906D01*
X149507Y197419D01*
X150020Y198087D01*
X150343Y198866D01*
X150453Y199701D01*
X150343Y200536D01*
X150020Y201315D01*
X149507Y201983D01*
X148839Y202496D01*
X148061Y202819D01*
X147225Y202928D01*
D02*
G37*
G36*
X97941Y199035D02*
Y196071D01*
X100905D01*
X100851Y196484D01*
X100498Y197336D01*
X99937Y198067D01*
X99206Y198628D01*
X98355Y198981D01*
X97941Y199035D01*
D02*
G37*
G36*
X96941D02*
X96527Y198981D01*
X95676Y198628D01*
X94945Y198067D01*
X94384Y197336D01*
X94031Y196484D01*
X93977Y196071D01*
X96941D01*
Y199035D01*
D02*
G37*
G36*
X389875Y203254D02*
X388921Y203128D01*
X388033Y202760D01*
X387270Y202175D01*
X386684Y201412D01*
X386316Y200523D01*
X386191Y199569D01*
X386316Y198616D01*
X386684Y197727D01*
X387270Y196964D01*
X388033Y196379D01*
X388921Y196011D01*
X389875Y195885D01*
X390828Y196011D01*
X391717Y196379D01*
X392480Y196964D01*
X393065Y197727D01*
X393433Y198616D01*
X393559Y199569D01*
X393433Y200523D01*
X393065Y201412D01*
X392480Y202175D01*
X391717Y202760D01*
X390828Y203128D01*
X389875Y203254D01*
D02*
G37*
G36*
X379875D02*
X378921Y203128D01*
X378033Y202760D01*
X377270Y202175D01*
X376684Y201412D01*
X376316Y200523D01*
X376190Y199569D01*
X376316Y198616D01*
X376684Y197727D01*
X377270Y196964D01*
X378033Y196379D01*
X378921Y196011D01*
X379875Y195885D01*
X380828Y196011D01*
X381717Y196379D01*
X382480Y196964D01*
X383065Y197727D01*
X383434Y198616D01*
X383559Y199569D01*
X383434Y200523D01*
X383065Y201412D01*
X382480Y202175D01*
X381717Y202760D01*
X380828Y203128D01*
X379875Y203254D01*
D02*
G37*
G36*
X55229D02*
X54276Y203128D01*
X53387Y202760D01*
X52624Y202175D01*
X52039Y201412D01*
X51670Y200523D01*
X51545Y199569D01*
X51670Y198616D01*
X52039Y197727D01*
X52624Y196964D01*
X53387Y196379D01*
X54276Y196011D01*
X55229Y195885D01*
X56183Y196011D01*
X57071Y196379D01*
X57834Y196964D01*
X58420Y197727D01*
X58788Y198616D01*
X58913Y199569D01*
X58788Y200523D01*
X58420Y201412D01*
X57834Y202175D01*
X57071Y202760D01*
X56183Y203128D01*
X55229Y203254D01*
D02*
G37*
G36*
X45229D02*
X44276Y203128D01*
X43387Y202760D01*
X42624Y202175D01*
X42039Y201412D01*
X41670Y200523D01*
X41545Y199569D01*
X41670Y198616D01*
X42039Y197727D01*
X42624Y196964D01*
X43387Y196379D01*
X44276Y196011D01*
X45229Y195885D01*
X46183Y196011D01*
X47071Y196379D01*
X47834Y196964D01*
X48420Y197727D01*
X48788Y198616D01*
X48913Y199569D01*
X48788Y200523D01*
X48420Y201412D01*
X47834Y202175D01*
X47071Y202760D01*
X46183Y203128D01*
X45229Y203254D01*
D02*
G37*
G36*
X83079Y196772D02*
Y193807D01*
X86043D01*
X85989Y194221D01*
X85636Y195072D01*
X85075Y195803D01*
X84344Y196364D01*
X83492Y196717D01*
X83079Y196772D01*
D02*
G37*
G36*
X82079D02*
X81665Y196717D01*
X80814Y196364D01*
X80082Y195803D01*
X79522Y195072D01*
X79169Y194221D01*
X79114Y193807D01*
X82079D01*
Y196772D01*
D02*
G37*
G36*
X132656Y199878D02*
X131821Y199768D01*
X131042Y199445D01*
X130374Y198932D01*
X129861Y198264D01*
X129538Y197485D01*
X129428Y196650D01*
X129538Y195815D01*
X129861Y195036D01*
X130374Y194368D01*
X131042Y193855D01*
X131821Y193532D01*
X132656Y193422D01*
X133491Y193532D01*
X134270Y193855D01*
X134938Y194368D01*
X135451Y195036D01*
X135774Y195815D01*
X135884Y196650D01*
X135774Y197485D01*
X135451Y198264D01*
X134938Y198932D01*
X134270Y199445D01*
X133491Y199768D01*
X132656Y199878D01*
D02*
G37*
G36*
X100905Y195071D02*
X97941D01*
Y192106D01*
X98355Y192161D01*
X99206Y192514D01*
X99937Y193075D01*
X100498Y193806D01*
X100851Y194657D01*
X100905Y195071D01*
D02*
G37*
G36*
X96941D02*
X93977D01*
X94031Y194657D01*
X94384Y193806D01*
X94945Y193075D01*
X95676Y192514D01*
X96527Y192161D01*
X96941Y192106D01*
Y195071D01*
D02*
G37*
G36*
X168879Y197220D02*
X168043Y197110D01*
X167265Y196788D01*
X166596Y196275D01*
X166084Y195606D01*
X165761Y194828D01*
X165651Y193992D01*
X165761Y193157D01*
X166084Y192378D01*
X166596Y191710D01*
X167265Y191197D01*
X168043Y190875D01*
X168879Y190765D01*
X169714Y190875D01*
X170493Y191197D01*
X171161Y191710D01*
X171674Y192378D01*
X171996Y193157D01*
X172106Y193992D01*
X171996Y194828D01*
X171674Y195606D01*
X171161Y196275D01*
X170493Y196788D01*
X169714Y197110D01*
X168879Y197220D01*
D02*
G37*
G36*
X139654Y196343D02*
X138819Y196233D01*
X138040Y195910D01*
X137372Y195397D01*
X136859Y194729D01*
X136536Y193950D01*
X136426Y193115D01*
X136536Y192280D01*
X136859Y191501D01*
X137372Y190833D01*
X138040Y190320D01*
X138819Y189997D01*
X139654Y189887D01*
X140489Y189997D01*
X141268Y190320D01*
X141936Y190833D01*
X142449Y191501D01*
X142772Y192280D01*
X142882Y193115D01*
X142772Y193950D01*
X142449Y194729D01*
X141936Y195397D01*
X141268Y195910D01*
X140489Y196233D01*
X139654Y196343D01*
D02*
G37*
G36*
X86043Y192807D02*
X83079D01*
Y189843D01*
X83492Y189897D01*
X84344Y190250D01*
X85075Y190811D01*
X85636Y191542D01*
X85989Y192393D01*
X86043Y192807D01*
D02*
G37*
G36*
X82079D02*
X79114D01*
X79169Y192393D01*
X79522Y191542D01*
X80082Y190811D01*
X80814Y190250D01*
X81665Y189897D01*
X82079Y189843D01*
Y192807D01*
D02*
G37*
G36*
X161407Y195360D02*
X160571Y195250D01*
X159793Y194927D01*
X159124Y194414D01*
X158611Y193746D01*
X158289Y192967D01*
X158179Y192132D01*
X158289Y191297D01*
X158611Y190518D01*
X159124Y189850D01*
X159793Y189337D01*
X160571Y189014D01*
X161407Y188904D01*
X162242Y189014D01*
X163020Y189337D01*
X163689Y189850D01*
X164202Y190518D01*
X164524Y191297D01*
X164634Y192132D01*
X164524Y192967D01*
X164202Y193746D01*
X163689Y194414D01*
X163020Y194927D01*
X162242Y195250D01*
X161407Y195360D01*
D02*
G37*
G36*
X65354Y194763D02*
X64519Y194653D01*
X63740Y194331D01*
X63072Y193818D01*
X62559Y193149D01*
X62237Y192371D01*
X62127Y191535D01*
X62237Y190700D01*
X62559Y189921D01*
X63072Y189253D01*
X63740Y188740D01*
X64519Y188418D01*
X65354Y188308D01*
X66190Y188418D01*
X66968Y188740D01*
X67637Y189253D01*
X68150Y189921D01*
X68472Y190700D01*
X68582Y191535D01*
X68472Y192371D01*
X68150Y193149D01*
X67637Y193818D01*
X66968Y194331D01*
X66190Y194653D01*
X65354Y194763D01*
D02*
G37*
G36*
X182087Y193779D02*
X181251Y193669D01*
X180473Y193346D01*
X179804Y192833D01*
X179291Y192165D01*
X178969Y191387D01*
X178859Y190551D01*
X178969Y189716D01*
X179291Y188937D01*
X179804Y188269D01*
X180473Y187756D01*
X181251Y187434D01*
X182087Y187324D01*
X182922Y187434D01*
X183700Y187756D01*
X184369Y188269D01*
X184882Y188937D01*
X185204Y189716D01*
X185314Y190551D01*
X185204Y191387D01*
X184882Y192165D01*
X184369Y192833D01*
X183700Y193346D01*
X182922Y193669D01*
X182087Y193779D01*
D02*
G37*
G36*
X203847Y189488D02*
Y186524D01*
X206811D01*
X206756Y186937D01*
X206404Y187789D01*
X205843Y188520D01*
X205112Y189081D01*
X204260Y189434D01*
X203847Y189488D01*
D02*
G37*
G36*
X202847D02*
X202433Y189434D01*
X201581Y189081D01*
X200850Y188520D01*
X200289Y187789D01*
X199937Y186937D01*
X199882Y186524D01*
X202847D01*
Y189488D01*
D02*
G37*
G36*
X389875Y193254D02*
X388921Y193128D01*
X388033Y192760D01*
X387270Y192175D01*
X386684Y191412D01*
X386316Y190523D01*
X386191Y189569D01*
X386316Y188616D01*
X386684Y187727D01*
X387270Y186964D01*
X388033Y186379D01*
X388921Y186011D01*
X389875Y185885D01*
X390828Y186011D01*
X391717Y186379D01*
X392480Y186964D01*
X393065Y187727D01*
X393433Y188616D01*
X393559Y189569D01*
X393433Y190523D01*
X393065Y191412D01*
X392480Y192175D01*
X391717Y192760D01*
X390828Y193128D01*
X389875Y193254D01*
D02*
G37*
G36*
X379875D02*
X378921Y193128D01*
X378033Y192760D01*
X377270Y192175D01*
X376684Y191412D01*
X376316Y190523D01*
X376190Y189569D01*
X376316Y188616D01*
X376684Y187727D01*
X377270Y186964D01*
X378033Y186379D01*
X378921Y186011D01*
X379875Y185885D01*
X380828Y186011D01*
X381717Y186379D01*
X382480Y186964D01*
X383065Y187727D01*
X383434Y188616D01*
X383559Y189569D01*
X383434Y190523D01*
X383065Y191412D01*
X382480Y192175D01*
X381717Y192760D01*
X380828Y193128D01*
X379875Y193254D01*
D02*
G37*
G36*
X55229D02*
X54276Y193128D01*
X53387Y192760D01*
X52624Y192175D01*
X52039Y191412D01*
X51670Y190523D01*
X51545Y189569D01*
X51670Y188616D01*
X52039Y187727D01*
X52624Y186964D01*
X53387Y186379D01*
X54276Y186011D01*
X55229Y185885D01*
X56183Y186011D01*
X57071Y186379D01*
X57834Y186964D01*
X58420Y187727D01*
X58788Y188616D01*
X58913Y189569D01*
X58788Y190523D01*
X58420Y191412D01*
X57834Y192175D01*
X57071Y192760D01*
X56183Y193128D01*
X55229Y193254D01*
D02*
G37*
G36*
X45229D02*
X44276Y193128D01*
X43387Y192760D01*
X42624Y192175D01*
X42039Y191412D01*
X41670Y190523D01*
X41545Y189569D01*
X41670Y188616D01*
X42039Y187727D01*
X42624Y186964D01*
X43387Y186379D01*
X44276Y186011D01*
X45229Y185885D01*
X46183Y186011D01*
X47071Y186379D01*
X47834Y186964D01*
X48420Y187727D01*
X48788Y188616D01*
X48913Y189569D01*
X48788Y190523D01*
X48420Y191412D01*
X47834Y192175D01*
X47071Y192760D01*
X46183Y193128D01*
X45229Y193254D01*
D02*
G37*
G36*
X206811Y185524D02*
X203847D01*
Y182559D01*
X204260Y182614D01*
X205112Y182966D01*
X205843Y183527D01*
X206404Y184258D01*
X206756Y185110D01*
X206811Y185524D01*
D02*
G37*
G36*
X202847D02*
X199882D01*
X199937Y185110D01*
X200289Y184258D01*
X200850Y183527D01*
X201581Y182966D01*
X202433Y182614D01*
X202847Y182559D01*
Y185524D01*
D02*
G37*
G36*
X103053Y188634D02*
X102218Y188524D01*
X101440Y188202D01*
X100771Y187689D01*
X100258Y187020D01*
X99936Y186242D01*
X99826Y185406D01*
X99936Y184571D01*
X100258Y183793D01*
X100771Y183124D01*
X101440Y182611D01*
X102218Y182289D01*
X103053Y182179D01*
X103889Y182289D01*
X104667Y182611D01*
X105336Y183124D01*
X105849Y183793D01*
X106171Y184571D01*
X106281Y185406D01*
X106171Y186242D01*
X105849Y187020D01*
X105336Y187689D01*
X104667Y188202D01*
X103889Y188524D01*
X103053Y188634D01*
D02*
G37*
G36*
X137580Y185507D02*
X136744Y185397D01*
X135966Y185075D01*
X135297Y184562D01*
X134784Y183894D01*
X134462Y183115D01*
X134352Y182280D01*
X134462Y181444D01*
X134784Y180666D01*
X135297Y179998D01*
X135966Y179484D01*
X136744Y179162D01*
X137580Y179052D01*
X138415Y179162D01*
X139193Y179484D01*
X139862Y179998D01*
X140375Y180666D01*
X140697Y181444D01*
X140807Y182280D01*
X140697Y183115D01*
X140375Y183894D01*
X139862Y184562D01*
X139193Y185075D01*
X138415Y185397D01*
X137580Y185507D01*
D02*
G37*
G36*
X389875Y183254D02*
X388921Y183128D01*
X388033Y182760D01*
X387270Y182175D01*
X386684Y181412D01*
X386316Y180523D01*
X386191Y179569D01*
X386316Y178616D01*
X386684Y177727D01*
X387270Y176964D01*
X388033Y176379D01*
X388921Y176011D01*
X389875Y175885D01*
X390828Y176011D01*
X391717Y176379D01*
X392480Y176964D01*
X393065Y177727D01*
X393433Y178616D01*
X393559Y179569D01*
X393433Y180523D01*
X393065Y181412D01*
X392480Y182175D01*
X391717Y182760D01*
X390828Y183128D01*
X389875Y183254D01*
D02*
G37*
G36*
X379875D02*
X378921Y183128D01*
X378033Y182760D01*
X377270Y182175D01*
X376684Y181412D01*
X376316Y180523D01*
X376190Y179569D01*
X376316Y178616D01*
X376684Y177727D01*
X377270Y176964D01*
X378033Y176379D01*
X378921Y176011D01*
X379875Y175885D01*
X380828Y176011D01*
X381717Y176379D01*
X382480Y176964D01*
X383065Y177727D01*
X383434Y178616D01*
X383559Y179569D01*
X383434Y180523D01*
X383065Y181412D01*
X382480Y182175D01*
X381717Y182760D01*
X380828Y183128D01*
X379875Y183254D01*
D02*
G37*
G36*
X55229D02*
X54276Y183128D01*
X53387Y182760D01*
X52624Y182175D01*
X52039Y181412D01*
X51670Y180523D01*
X51545Y179569D01*
X51670Y178616D01*
X52039Y177727D01*
X52624Y176964D01*
X53387Y176379D01*
X54276Y176011D01*
X55229Y175885D01*
X56183Y176011D01*
X57071Y176379D01*
X57834Y176964D01*
X58420Y177727D01*
X58788Y178616D01*
X58913Y179569D01*
X58788Y180523D01*
X58420Y181412D01*
X57834Y182175D01*
X57071Y182760D01*
X56183Y183128D01*
X55229Y183254D01*
D02*
G37*
G36*
X45229D02*
X44276Y183128D01*
X43387Y182760D01*
X42624Y182175D01*
X42039Y181412D01*
X41670Y180523D01*
X41545Y179569D01*
X41670Y178616D01*
X42039Y177727D01*
X42624Y176964D01*
X43387Y176379D01*
X44276Y176011D01*
X45229Y175885D01*
X46183Y176011D01*
X47071Y176379D01*
X47834Y176964D01*
X48420Y177727D01*
X48788Y178616D01*
X48913Y179569D01*
X48788Y180523D01*
X48420Y181412D01*
X47834Y182175D01*
X47071Y182760D01*
X46183Y183128D01*
X45229Y183254D01*
D02*
G37*
G36*
X175554Y180534D02*
X174718Y180424D01*
X173940Y180102D01*
X173271Y179589D01*
X172758Y178920D01*
X172436Y178142D01*
X172326Y177306D01*
X172436Y176471D01*
X172600Y176074D01*
X172249Y175616D01*
X172045Y175643D01*
X171209Y175533D01*
X170431Y175211D01*
X169762Y174698D01*
X169249Y174029D01*
X168927Y173251D01*
X168817Y172415D01*
X168927Y171580D01*
X169249Y170802D01*
X169762Y170133D01*
X170431Y169620D01*
X171209Y169298D01*
X172045Y169188D01*
X172880Y169298D01*
X173658Y169620D01*
X174327Y170133D01*
X174840Y170802D01*
X175162Y171580D01*
X175272Y172415D01*
X175162Y173251D01*
X174998Y173648D01*
X175349Y174106D01*
X175554Y174079D01*
X176389Y174189D01*
X177167Y174511D01*
X177836Y175024D01*
X178349Y175693D01*
X178671Y176471D01*
X178781Y177306D01*
X178671Y178142D01*
X178349Y178920D01*
X177836Y179589D01*
X177167Y180102D01*
X176389Y180424D01*
X175554Y180534D01*
D02*
G37*
G36*
X212024Y178559D02*
X208768D01*
Y175303D01*
X212024D01*
Y178559D01*
D02*
G37*
G36*
X148453Y180034D02*
X147618Y179924D01*
X146840Y179602D01*
X146171Y179089D01*
X145658Y178420D01*
X145336Y177642D01*
X145226Y176806D01*
X145336Y175971D01*
X145658Y175193D01*
X146171Y174524D01*
X146840Y174011D01*
X147618Y173689D01*
X148453Y173579D01*
X149289Y173689D01*
X150067Y174011D01*
X150736Y174524D01*
X151249Y175193D01*
X151571Y175971D01*
X151681Y176806D01*
X151571Y177642D01*
X151249Y178420D01*
X150736Y179089D01*
X150067Y179602D01*
X149289Y179924D01*
X148453Y180034D01*
D02*
G37*
G36*
X105892Y179414D02*
X105057Y179304D01*
X104278Y178981D01*
X103610Y178469D01*
X103097Y177800D01*
X102774Y177022D01*
X102664Y176186D01*
X102774Y175351D01*
X103097Y174573D01*
X103610Y173904D01*
X104278Y173391D01*
X105057Y173069D01*
X105892Y172959D01*
X106727Y173069D01*
X107506Y173391D01*
X108174Y173904D01*
X108687Y174573D01*
X109010Y175351D01*
X109120Y176186D01*
X109010Y177022D01*
X108687Y177800D01*
X108174Y178469D01*
X107506Y178981D01*
X106727Y179304D01*
X105892Y179414D01*
D02*
G37*
G36*
X163612Y178878D02*
X162776Y178768D01*
X161998Y178446D01*
X161329Y177933D01*
X160817Y177264D01*
X160494Y176486D01*
X160384Y175651D01*
X160494Y174815D01*
X160817Y174037D01*
X161329Y173369D01*
X161998Y172855D01*
X162776Y172533D01*
X163612Y172423D01*
X164447Y172533D01*
X165226Y172855D01*
X165894Y173369D01*
X166407Y174037D01*
X166729Y174815D01*
X166839Y175651D01*
X166729Y176486D01*
X166407Y177264D01*
X165894Y177933D01*
X165226Y178446D01*
X164447Y178768D01*
X163612Y178878D01*
D02*
G37*
G36*
X156189Y178626D02*
X155354Y178516D01*
X154575Y178194D01*
X153907Y177681D01*
X153394Y177013D01*
X153071Y176234D01*
X152962Y175399D01*
X153071Y174563D01*
X153394Y173785D01*
X153907Y173117D01*
X154575Y172603D01*
X155354Y172281D01*
X156189Y172171D01*
X157025Y172281D01*
X157803Y172603D01*
X158471Y173117D01*
X158984Y173785D01*
X159307Y174563D01*
X159417Y175399D01*
X159307Y176234D01*
X158984Y177013D01*
X158471Y177681D01*
X157803Y178194D01*
X157025Y178516D01*
X156189Y178626D01*
D02*
G37*
G36*
X90916Y174218D02*
Y171254D01*
X93880D01*
X93826Y171667D01*
X93473Y172519D01*
X92912Y173250D01*
X92181Y173811D01*
X91329Y174163D01*
X90916Y174218D01*
D02*
G37*
G36*
X85217Y178815D02*
X84382Y178705D01*
X83604Y178382D01*
X82935Y177869D01*
X82422Y177201D01*
X82100Y176422D01*
X81990Y175587D01*
X82100Y174752D01*
X82422Y173973D01*
X82935Y173305D01*
X83604Y172792D01*
X84382Y172469D01*
X85217Y172359D01*
X86053Y172469D01*
X86831Y172792D01*
X87091Y172991D01*
X87447Y172634D01*
X87358Y172519D01*
X87006Y171667D01*
X86951Y171254D01*
X89916D01*
Y174218D01*
X89502Y174163D01*
X88651Y173811D01*
X88328Y173564D01*
X87972Y173920D01*
X88012Y173973D01*
X88335Y174752D01*
X88445Y175587D01*
X88335Y176422D01*
X88012Y177201D01*
X87500Y177869D01*
X86831Y178382D01*
X86053Y178705D01*
X85217Y178815D01*
D02*
G37*
G36*
X212024Y174303D02*
X208768D01*
Y171047D01*
X212024D01*
Y174303D01*
D02*
G37*
G36*
X186024Y185413D02*
X185188Y185303D01*
X184410Y184980D01*
X183741Y184467D01*
X183228Y183799D01*
X182906Y183020D01*
X182796Y182185D01*
X182906Y181350D01*
X183228Y180571D01*
X183631Y180046D01*
X181221Y177637D01*
X180956Y177240D01*
X180863Y176772D01*
Y172944D01*
X178631D01*
Y166157D01*
X178331D01*
Y162901D01*
X185843D01*
Y166157D01*
X185543D01*
Y172944D01*
X183310D01*
Y176265D01*
X186005Y178960D01*
X186024Y178957D01*
X186859Y179067D01*
X187637Y179390D01*
X188306Y179903D01*
X188819Y180571D01*
X189141Y181350D01*
X189148Y181404D01*
X189862Y182117D01*
X189933Y182105D01*
X190092Y181820D01*
X190168Y181558D01*
X189875Y180851D01*
X189765Y180016D01*
X189875Y179181D01*
X190198Y178402D01*
X190711Y177734D01*
X191379Y177221D01*
X192158Y176898D01*
X192993Y176788D01*
X193828Y176898D01*
X194607Y177221D01*
X195275Y177734D01*
X195788Y178402D01*
X196111Y179181D01*
X196221Y180016D01*
X196111Y180851D01*
X196020Y181070D01*
X196444Y181353D01*
X199076Y178721D01*
X198885Y178259D01*
X197725D01*
Y171347D01*
X204512D01*
Y171047D01*
X207768D01*
Y174803D01*
Y178559D01*
X204512D01*
Y178259D01*
X202405D01*
Y178346D01*
X202311Y178815D01*
X202046Y179212D01*
X196677Y184581D01*
X196280Y184846D01*
X195812Y184940D01*
X189730D01*
X189262Y184846D01*
X188865Y184581D01*
X188724Y184440D01*
X188306Y184467D01*
X187637Y184980D01*
X186859Y185303D01*
X186024Y185413D01*
D02*
G37*
G36*
X93880Y170254D02*
X90916D01*
Y167289D01*
X91329Y167344D01*
X92181Y167696D01*
X92912Y168257D01*
X93473Y168988D01*
X93826Y169840D01*
X93880Y170254D01*
D02*
G37*
G36*
X89916D02*
X86951D01*
X87006Y169840D01*
X87358Y168988D01*
X87919Y168257D01*
X88651Y167696D01*
X89502Y167344D01*
X89916Y167289D01*
Y170254D01*
D02*
G37*
G36*
X147353Y172634D02*
X146518Y172524D01*
X145740Y172202D01*
X145071Y171689D01*
X144558Y171020D01*
X144236Y170242D01*
X144126Y169406D01*
X144236Y168571D01*
X144558Y167793D01*
X145071Y167124D01*
X145740Y166611D01*
X146518Y166289D01*
X147353Y166179D01*
X148189Y166289D01*
X148967Y166611D01*
X149636Y167124D01*
X150149Y167793D01*
X150471Y168571D01*
X150581Y169406D01*
X150471Y170242D01*
X150149Y171020D01*
X149636Y171689D01*
X148967Y172202D01*
X148189Y172524D01*
X147353Y172634D01*
D02*
G37*
G36*
X389875Y173254D02*
X388921Y173128D01*
X388033Y172760D01*
X387270Y172175D01*
X386684Y171412D01*
X386316Y170523D01*
X386191Y169570D01*
X386316Y168616D01*
X386684Y167727D01*
X387270Y166964D01*
X388033Y166379D01*
X388921Y166011D01*
X389875Y165885D01*
X390828Y166011D01*
X391717Y166379D01*
X392480Y166964D01*
X393065Y167727D01*
X393433Y168616D01*
X393559Y169570D01*
X393433Y170523D01*
X393065Y171412D01*
X392480Y172175D01*
X391717Y172760D01*
X390828Y173128D01*
X389875Y173254D01*
D02*
G37*
G36*
X379875D02*
X378921Y173128D01*
X378033Y172760D01*
X377270Y172175D01*
X376684Y171412D01*
X376316Y170523D01*
X376190Y169570D01*
X376316Y168616D01*
X376684Y167727D01*
X377270Y166964D01*
X378033Y166379D01*
X378921Y166011D01*
X379875Y165885D01*
X380828Y166011D01*
X381717Y166379D01*
X382480Y166964D01*
X383065Y167727D01*
X383434Y168616D01*
X383559Y169570D01*
X383434Y170523D01*
X383065Y171412D01*
X382480Y172175D01*
X381717Y172760D01*
X380828Y173128D01*
X379875Y173254D01*
D02*
G37*
G36*
X55229D02*
X54276Y173128D01*
X53387Y172760D01*
X52624Y172175D01*
X52039Y171412D01*
X51670Y170523D01*
X51545Y169570D01*
X51670Y168616D01*
X52039Y167727D01*
X52624Y166964D01*
X53387Y166379D01*
X54276Y166011D01*
X55229Y165885D01*
X56183Y166011D01*
X57071Y166379D01*
X57834Y166964D01*
X58420Y167727D01*
X58788Y168616D01*
X58913Y169570D01*
X58788Y170523D01*
X58420Y171412D01*
X57834Y172175D01*
X57071Y172760D01*
X56183Y173128D01*
X55229Y173254D01*
D02*
G37*
G36*
X45229D02*
X44276Y173128D01*
X43387Y172760D01*
X42624Y172175D01*
X42039Y171412D01*
X41670Y170523D01*
X41545Y169570D01*
X41670Y168616D01*
X42039Y167727D01*
X42624Y166964D01*
X43387Y166379D01*
X44276Y166011D01*
X45229Y165885D01*
X46183Y166011D01*
X47071Y166379D01*
X47834Y166964D01*
X48420Y167727D01*
X48788Y168616D01*
X48913Y169570D01*
X48788Y170523D01*
X48420Y171412D01*
X47834Y172175D01*
X47071Y172760D01*
X46183Y173128D01*
X45229Y173254D01*
D02*
G37*
G36*
X77737Y171925D02*
X76902Y171815D01*
X76123Y171492D01*
X75455Y170979D01*
X74942Y170311D01*
X74619Y169533D01*
X74509Y168697D01*
X74619Y167862D01*
X74942Y167083D01*
X75455Y166415D01*
X76123Y165902D01*
X76902Y165579D01*
X77737Y165470D01*
X78572Y165579D01*
X79351Y165902D01*
X80019Y166415D01*
X80532Y167083D01*
X80855Y167862D01*
X80965Y168697D01*
X80855Y169533D01*
X80532Y170311D01*
X80019Y170979D01*
X79351Y171492D01*
X78572Y171815D01*
X77737Y171925D01*
D02*
G37*
G36*
X155853Y170534D02*
X155018Y170424D01*
X154240Y170102D01*
X153571Y169589D01*
X153058Y168920D01*
X152736Y168142D01*
X152626Y167306D01*
X152736Y166471D01*
X153058Y165693D01*
X153571Y165024D01*
X154240Y164511D01*
X154841Y164262D01*
X155025Y163814D01*
X155027Y163683D01*
X154718Y163281D01*
X154366Y162429D01*
X154311Y162016D01*
X161240D01*
X161186Y162429D01*
X160833Y163281D01*
X160272Y164012D01*
X159541Y164573D01*
X158689Y164926D01*
X158469Y165459D01*
X158649Y165693D01*
X158971Y166471D01*
X159081Y167306D01*
X158971Y168142D01*
X158649Y168920D01*
X158136Y169589D01*
X157467Y170102D01*
X156689Y170424D01*
X155853Y170534D01*
D02*
G37*
G36*
X185843Y161901D02*
X182587D01*
Y158646D01*
X185843D01*
Y161901D01*
D02*
G37*
G36*
X181587D02*
X178331D01*
Y158646D01*
X181587D01*
Y161901D01*
D02*
G37*
G36*
X192304Y173500D02*
X191469Y173390D01*
X190690Y173067D01*
X190022Y172554D01*
X189509Y171886D01*
X189187Y171107D01*
X189076Y170272D01*
X189187Y169437D01*
X189509Y168658D01*
X190022Y167990D01*
X190690Y167477D01*
X191469Y167154D01*
X192304Y167044D01*
X193140Y167154D01*
X193774Y167417D01*
X193896Y167371D01*
X194125Y167198D01*
X194214Y167078D01*
X194126Y166407D01*
X194236Y165571D01*
X194558Y164793D01*
X195071Y164124D01*
X195740Y163611D01*
X196518Y163289D01*
X197232Y163195D01*
X197478Y162903D01*
X197569Y162703D01*
X197436Y162381D01*
X197326Y161546D01*
X197436Y160710D01*
X197758Y159932D01*
X198271Y159263D01*
X198940Y158750D01*
X199718Y158428D01*
X200554Y158318D01*
X201389Y158428D01*
X202168Y158750D01*
X202836Y159263D01*
X203349Y159932D01*
X203671Y160710D01*
X203781Y161546D01*
X203671Y162381D01*
X203349Y163159D01*
X202836Y163828D01*
X202168Y164341D01*
X201389Y164663D01*
X200675Y164757D01*
X200429Y165049D01*
X200338Y165249D01*
X200471Y165571D01*
X200581Y166407D01*
X200471Y167242D01*
X200149Y168020D01*
X199636Y168689D01*
X198967Y169202D01*
X198189Y169524D01*
X197353Y169634D01*
X196518Y169524D01*
X195884Y169261D01*
X195762Y169308D01*
X195533Y169480D01*
X195443Y169601D01*
X195532Y170272D01*
X195422Y171107D01*
X195099Y171886D01*
X194586Y172554D01*
X193918Y173067D01*
X193140Y173390D01*
X192304Y173500D01*
D02*
G37*
G36*
X161240Y161016D02*
X158276D01*
Y158051D01*
X158689Y158106D01*
X159541Y158458D01*
X160272Y159019D01*
X160833Y159751D01*
X161186Y160602D01*
X161240Y161016D01*
D02*
G37*
G36*
X157276D02*
X154311D01*
X154366Y160602D01*
X154718Y159751D01*
X155279Y159019D01*
X156010Y158458D01*
X156862Y158106D01*
X157276Y158051D01*
Y161016D01*
D02*
G37*
G36*
X167312Y169866D02*
X166476Y169756D01*
X165698Y169433D01*
X165030Y168921D01*
X164517Y168252D01*
X164194Y167474D01*
X164084Y166638D01*
X164194Y165803D01*
X164517Y165024D01*
X164836Y164609D01*
X164615Y164075D01*
X164429Y164051D01*
X163650Y163728D01*
X162982Y163215D01*
X162469Y162547D01*
X162146Y161768D01*
X162036Y160933D01*
X162146Y160098D01*
X162469Y159319D01*
X162982Y158651D01*
X163650Y158138D01*
X164429Y157815D01*
X165264Y157705D01*
X166099Y157815D01*
X166878Y158138D01*
X167546Y158651D01*
X168059Y159319D01*
X168382Y160098D01*
X168492Y160933D01*
X168382Y161768D01*
X168059Y162547D01*
X167740Y162963D01*
X167961Y163496D01*
X168147Y163521D01*
X168926Y163843D01*
X169594Y164356D01*
X170107Y165024D01*
X170429Y165803D01*
X170539Y166638D01*
X170429Y167474D01*
X170107Y168252D01*
X169594Y168921D01*
X168926Y169433D01*
X168147Y169756D01*
X167312Y169866D01*
D02*
G37*
G36*
X389875Y163254D02*
X388921Y163128D01*
X388033Y162760D01*
X387270Y162175D01*
X386684Y161412D01*
X386316Y160523D01*
X386191Y159570D01*
X386316Y158616D01*
X386684Y157727D01*
X387270Y156964D01*
X388033Y156379D01*
X388921Y156011D01*
X389875Y155885D01*
X390828Y156011D01*
X391717Y156379D01*
X392480Y156964D01*
X393065Y157727D01*
X393433Y158616D01*
X393559Y159570D01*
X393433Y160523D01*
X393065Y161412D01*
X392480Y162175D01*
X391717Y162760D01*
X390828Y163128D01*
X389875Y163254D01*
D02*
G37*
G36*
X379875D02*
X378921Y163128D01*
X378033Y162760D01*
X377270Y162175D01*
X376684Y161412D01*
X376316Y160523D01*
X376190Y159570D01*
X376316Y158616D01*
X376684Y157727D01*
X377270Y156964D01*
X378033Y156379D01*
X378921Y156011D01*
X379875Y155885D01*
X380828Y156011D01*
X381717Y156379D01*
X382480Y156964D01*
X383065Y157727D01*
X383434Y158616D01*
X383559Y159570D01*
X383434Y160523D01*
X383065Y161412D01*
X382480Y162175D01*
X381717Y162760D01*
X380828Y163128D01*
X379875Y163254D01*
D02*
G37*
G36*
X55229D02*
X54276Y163128D01*
X53387Y162760D01*
X52624Y162175D01*
X52039Y161412D01*
X51670Y160523D01*
X51545Y159570D01*
X51670Y158616D01*
X52039Y157727D01*
X52624Y156964D01*
X53387Y156379D01*
X54276Y156011D01*
X55229Y155885D01*
X56183Y156011D01*
X57071Y156379D01*
X57834Y156964D01*
X58420Y157727D01*
X58788Y158616D01*
X58913Y159570D01*
X58788Y160523D01*
X58420Y161412D01*
X57834Y162175D01*
X57071Y162760D01*
X56183Y163128D01*
X55229Y163254D01*
D02*
G37*
G36*
X45229D02*
X44276Y163128D01*
X43387Y162760D01*
X42624Y162175D01*
X42039Y161412D01*
X41670Y160523D01*
X41545Y159570D01*
X41670Y158616D01*
X42039Y157727D01*
X42624Y156964D01*
X43387Y156379D01*
X44276Y156011D01*
X45229Y155885D01*
X46183Y156011D01*
X47071Y156379D01*
X47834Y156964D01*
X48420Y157727D01*
X48788Y158616D01*
X48913Y159570D01*
X48788Y160523D01*
X48420Y161412D01*
X47834Y162175D01*
X47071Y162760D01*
X46183Y163128D01*
X45229Y163254D01*
D02*
G37*
G36*
X172754Y164934D02*
X171918Y164824D01*
X171140Y164502D01*
X170471Y163989D01*
X169958Y163320D01*
X169636Y162542D01*
X169526Y161706D01*
X169636Y160871D01*
X169958Y160093D01*
X170471Y159424D01*
X170951Y159056D01*
X170905Y158500D01*
X170903Y158495D01*
X170440Y158303D01*
X169771Y157790D01*
X169258Y157122D01*
X168936Y156343D01*
X168826Y155508D01*
X168898Y154963D01*
X168440Y154612D01*
X168254Y154689D01*
X167418Y154799D01*
X166583Y154689D01*
X165804Y154366D01*
X165136Y153853D01*
X164623Y153185D01*
X164301Y152407D01*
X164252Y152035D01*
X163718Y151815D01*
X163332Y152111D01*
X162554Y152433D01*
X161718Y152543D01*
X160883Y152433D01*
X160104Y152111D01*
X159436Y151598D01*
X158923Y150930D01*
X158600Y150151D01*
X158491Y149316D01*
X158600Y148480D01*
X158923Y147702D01*
X159436Y147034D01*
X160104Y146521D01*
X160883Y146198D01*
X161718Y146088D01*
X162554Y146198D01*
X163332Y146521D01*
X164000Y147034D01*
X164513Y147702D01*
X164836Y148480D01*
X164885Y148851D01*
X165418Y149072D01*
X165804Y148776D01*
X166583Y148453D01*
X167418Y148344D01*
X168254Y148453D01*
X169032Y148776D01*
X169700Y149289D01*
X170213Y149957D01*
X170536Y150736D01*
X170646Y151571D01*
X170574Y152116D01*
X171032Y152468D01*
X171218Y152391D01*
X172054Y152280D01*
X172889Y152391D01*
X173667Y152713D01*
X174336Y153226D01*
X174849Y153894D01*
X175171Y154673D01*
X175281Y155508D01*
X175171Y156343D01*
X174849Y157122D01*
X174336Y157790D01*
X173856Y158158D01*
X173902Y158715D01*
X173904Y158720D01*
X174367Y158911D01*
X175036Y159424D01*
X175549Y160093D01*
X175871Y160871D01*
X175981Y161706D01*
X175871Y162542D01*
X175549Y163320D01*
X175036Y163989D01*
X174367Y164502D01*
X173589Y164824D01*
X172754Y164934D01*
D02*
G37*
G36*
X201091Y157401D02*
Y154437D01*
X204055D01*
X204000Y154851D01*
X203648Y155702D01*
X203087Y156433D01*
X202356Y156994D01*
X201504Y157347D01*
X201091Y157401D01*
D02*
G37*
G36*
X200091D02*
X199677Y157347D01*
X198826Y156994D01*
X198094Y156433D01*
X197533Y155702D01*
X197181Y154851D01*
X197126Y154437D01*
X200091D01*
Y157401D01*
D02*
G37*
G36*
X120749Y159622D02*
X119913Y159512D01*
X119135Y159189D01*
X118466Y158676D01*
X117954Y158008D01*
X117631Y157229D01*
X117521Y156394D01*
X117631Y155559D01*
X117954Y154780D01*
X118466Y154112D01*
X119135Y153599D01*
X119913Y153276D01*
X120749Y153166D01*
X121584Y153276D01*
X122363Y153599D01*
X123031Y154112D01*
X123544Y154780D01*
X123866Y155559D01*
X123976Y156394D01*
X123866Y157229D01*
X123544Y158008D01*
X123031Y158676D01*
X122363Y159189D01*
X121584Y159512D01*
X120749Y159622D01*
D02*
G37*
G36*
X148757Y162164D02*
X147922Y162054D01*
X147143Y161731D01*
X146475Y161218D01*
X145962Y160550D01*
X145639Y159771D01*
X145529Y158936D01*
X145639Y158101D01*
X145962Y157322D01*
X146475Y156654D01*
X147143Y156141D01*
X147922Y155818D01*
X148757Y155708D01*
X149272Y155776D01*
X149445Y155632D01*
X149659Y155323D01*
X149565Y154606D01*
X149674Y153771D01*
X149997Y152993D01*
X150510Y152324D01*
X151178Y151811D01*
X151957Y151489D01*
X152792Y151379D01*
X153628Y151489D01*
X154406Y151811D01*
X155074Y152324D01*
X155587Y152993D01*
X155910Y153771D01*
X156020Y154606D01*
X155910Y155442D01*
X155587Y156220D01*
X155074Y156889D01*
X154406Y157402D01*
X153628Y157724D01*
X152792Y157834D01*
X152277Y157766D01*
X152104Y157910D01*
X151890Y158219D01*
X151985Y158936D01*
X151875Y159771D01*
X151552Y160550D01*
X151039Y161218D01*
X150371Y161731D01*
X149592Y162054D01*
X148757Y162164D01*
D02*
G37*
G36*
X204055Y153437D02*
X201091D01*
Y150473D01*
X201504Y150527D01*
X202356Y150880D01*
X203087Y151441D01*
X203648Y152172D01*
X204000Y153023D01*
X204055Y153437D01*
D02*
G37*
G36*
X200091D02*
X197126D01*
X197181Y153023D01*
X197533Y152172D01*
X198094Y151441D01*
X198826Y150880D01*
X199677Y150527D01*
X200091Y150473D01*
Y153437D01*
D02*
G37*
G36*
X126359Y154996D02*
X125524Y154886D01*
X124745Y154563D01*
X124077Y154050D01*
X123564Y153382D01*
X123241Y152603D01*
X123131Y151768D01*
X123241Y150933D01*
X123564Y150154D01*
X124077Y149486D01*
X124745Y148973D01*
X125524Y148650D01*
X126359Y148540D01*
X127194Y148650D01*
X127973Y148973D01*
X128641Y149486D01*
X129154Y150154D01*
X129477Y150933D01*
X129587Y151768D01*
X129477Y152603D01*
X129154Y153382D01*
X128641Y154050D01*
X127973Y154563D01*
X127194Y154886D01*
X126359Y154996D01*
D02*
G37*
G36*
X66910Y152437D02*
X66075Y152327D01*
X65296Y152004D01*
X64628Y151491D01*
X64115Y150823D01*
X63793Y150044D01*
X63683Y149209D01*
X63793Y148374D01*
X64115Y147595D01*
X64628Y146927D01*
X65296Y146414D01*
X66075Y146091D01*
X66910Y145981D01*
X67746Y146091D01*
X68524Y146414D01*
X69192Y146927D01*
X69705Y147595D01*
X70028Y148374D01*
X70138Y149209D01*
X70028Y150044D01*
X69705Y150823D01*
X69192Y151491D01*
X68524Y152004D01*
X67746Y152327D01*
X66910Y152437D01*
D02*
G37*
G36*
X389875Y153254D02*
X388921Y153128D01*
X388033Y152760D01*
X387270Y152175D01*
X386684Y151412D01*
X386316Y150523D01*
X386191Y149569D01*
X386316Y148616D01*
X386684Y147727D01*
X387270Y146964D01*
X388033Y146379D01*
X388921Y146011D01*
X389875Y145885D01*
X390828Y146011D01*
X391717Y146379D01*
X392480Y146964D01*
X393065Y147727D01*
X393433Y148616D01*
X393559Y149569D01*
X393433Y150523D01*
X393065Y151412D01*
X392480Y152175D01*
X391717Y152760D01*
X390828Y153128D01*
X389875Y153254D01*
D02*
G37*
G36*
X379875D02*
X378921Y153128D01*
X378033Y152760D01*
X377270Y152175D01*
X376684Y151412D01*
X376316Y150523D01*
X376190Y149569D01*
X376316Y148616D01*
X376684Y147727D01*
X377270Y146964D01*
X378033Y146379D01*
X378921Y146011D01*
X379875Y145885D01*
X380828Y146011D01*
X381717Y146379D01*
X382480Y146964D01*
X383065Y147727D01*
X383434Y148616D01*
X383559Y149569D01*
X383434Y150523D01*
X383065Y151412D01*
X382480Y152175D01*
X381717Y152760D01*
X380828Y153128D01*
X379875Y153254D01*
D02*
G37*
G36*
X55229D02*
X54276Y153128D01*
X53387Y152760D01*
X52624Y152175D01*
X52039Y151412D01*
X51670Y150523D01*
X51545Y149569D01*
X51670Y148616D01*
X52039Y147727D01*
X52624Y146964D01*
X53387Y146379D01*
X54276Y146011D01*
X55229Y145885D01*
X56183Y146011D01*
X57071Y146379D01*
X57834Y146964D01*
X58420Y147727D01*
X58788Y148616D01*
X58913Y149569D01*
X58788Y150523D01*
X58420Y151412D01*
X57834Y152175D01*
X57071Y152760D01*
X56183Y153128D01*
X55229Y153254D01*
D02*
G37*
G36*
X45229D02*
X44276Y153128D01*
X43387Y152760D01*
X42624Y152175D01*
X42039Y151412D01*
X41670Y150523D01*
X41545Y149569D01*
X41670Y148616D01*
X42039Y147727D01*
X42624Y146964D01*
X43387Y146379D01*
X44276Y146011D01*
X45229Y145885D01*
X46183Y146011D01*
X47071Y146379D01*
X47834Y146964D01*
X48420Y147727D01*
X48788Y148616D01*
X48913Y149569D01*
X48788Y150523D01*
X48420Y151412D01*
X47834Y152175D01*
X47071Y152760D01*
X46183Y153128D01*
X45229Y153254D01*
D02*
G37*
G36*
X213098Y148642D02*
Y145677D01*
X216063D01*
X216008Y146091D01*
X215656Y146942D01*
X215095Y147673D01*
X214364Y148234D01*
X213512Y148587D01*
X213098Y148642D01*
D02*
G37*
G36*
X207776Y153031D02*
X206940Y152921D01*
X206162Y152598D01*
X205493Y152085D01*
X204980Y151417D01*
X204658Y150638D01*
X204548Y149803D01*
X204658Y148968D01*
X204980Y148189D01*
X205493Y147521D01*
X206162Y147008D01*
X206940Y146686D01*
X207776Y146575D01*
X208611Y146686D01*
X208952Y146827D01*
X209335Y146444D01*
X209189Y146091D01*
X209134Y145677D01*
X212098D01*
Y148642D01*
X211685Y148587D01*
X211192Y148383D01*
X210809Y148766D01*
X210893Y148968D01*
X211003Y149803D01*
X210893Y150638D01*
X210571Y151417D01*
X210058Y152085D01*
X209389Y152598D01*
X208611Y152921D01*
X207776Y153031D01*
D02*
G37*
G36*
X96661Y147165D02*
Y144201D01*
X99626D01*
X99571Y144615D01*
X99219Y145466D01*
X98658Y146197D01*
X97926Y146758D01*
X97075Y147111D01*
X96661Y147165D01*
D02*
G37*
G36*
X95661D02*
X95248Y147111D01*
X94396Y146758D01*
X93665Y146197D01*
X93104Y145466D01*
X92751Y144615D01*
X92697Y144201D01*
X95661D01*
Y147165D01*
D02*
G37*
G36*
X175854Y150534D02*
X175018Y150424D01*
X174240Y150102D01*
X173571Y149589D01*
X173058Y148920D01*
X172736Y148142D01*
X172626Y147307D01*
X172736Y146471D01*
X173058Y145693D01*
X173571Y145024D01*
X174240Y144511D01*
X175018Y144189D01*
X175854Y144079D01*
X176689Y144189D01*
X177467Y144511D01*
X178136Y145024D01*
X178649Y145693D01*
X178971Y146471D01*
X179081Y147307D01*
X178971Y148142D01*
X178649Y148920D01*
X178136Y149589D01*
X177467Y150102D01*
X176689Y150424D01*
X175854Y150534D01*
D02*
G37*
G36*
X114750Y154413D02*
X113915Y154303D01*
X113136Y153980D01*
X112468Y153467D01*
X111955Y152799D01*
X111633Y152020D01*
X111522Y151185D01*
X111633Y150350D01*
X111955Y149571D01*
X112468Y148903D01*
X113136Y148390D01*
X113915Y148067D01*
X114396Y148004D01*
X114414Y147984D01*
X114589Y147474D01*
X114213Y146984D01*
X113891Y146206D01*
X113781Y145370D01*
X113891Y144535D01*
X114213Y143756D01*
X114726Y143088D01*
X115395Y142575D01*
X116173Y142253D01*
X117008Y142143D01*
X117844Y142253D01*
X118622Y142575D01*
X119291Y143088D01*
X119804Y143756D01*
X120126Y144535D01*
X120236Y145370D01*
X120126Y146206D01*
X119804Y146984D01*
X119291Y147653D01*
X118622Y148166D01*
X117844Y148488D01*
X117363Y148551D01*
X117344Y148571D01*
X117169Y149081D01*
X117545Y149571D01*
X117868Y150350D01*
X117978Y151185D01*
X117868Y152020D01*
X117545Y152799D01*
X117032Y153467D01*
X116364Y153980D01*
X115585Y154303D01*
X114750Y154413D01*
D02*
G37*
G36*
X212098Y144677D02*
X209134D01*
X209189Y144264D01*
X209541Y143412D01*
X210102Y142681D01*
X210833Y142120D01*
X211685Y141767D01*
X212098Y141713D01*
Y144677D01*
D02*
G37*
G36*
X99626Y143201D02*
X96661D01*
Y140236D01*
X97075Y140291D01*
X97926Y140644D01*
X98658Y141205D01*
X99219Y141936D01*
X99571Y142787D01*
X99626Y143201D01*
D02*
G37*
G36*
X95661D02*
X92697D01*
X92751Y142787D01*
X93104Y141936D01*
X93665Y141205D01*
X94396Y140644D01*
X95248Y140291D01*
X95661Y140236D01*
Y143201D01*
D02*
G37*
G36*
X67012Y144176D02*
X66177Y144066D01*
X65398Y143744D01*
X64730Y143231D01*
X64217Y142562D01*
X63894Y141784D01*
X63784Y140948D01*
X63894Y140113D01*
X64217Y139334D01*
X64730Y138666D01*
X65398Y138153D01*
X66177Y137831D01*
X67012Y137721D01*
X67848Y137831D01*
X68626Y138153D01*
X69294Y138666D01*
X69807Y139334D01*
X70130Y140113D01*
X70240Y140948D01*
X70130Y141784D01*
X69807Y142562D01*
X69294Y143231D01*
X68626Y143744D01*
X67848Y144066D01*
X67012Y144176D01*
D02*
G37*
G36*
X216063Y144677D02*
X213098D01*
Y141713D01*
X213512Y141767D01*
X214222Y142061D01*
X214586Y141759D01*
X214617Y141710D01*
X214402Y141189D01*
X214292Y140354D01*
X214402Y139519D01*
X214724Y138740D01*
X215237Y138072D01*
X215905Y137559D01*
X216684Y137236D01*
X217519Y137126D01*
X218355Y137236D01*
X219133Y137559D01*
X219801Y138072D01*
X220314Y138740D01*
X220637Y139519D01*
X220747Y140354D01*
X220637Y141189D01*
X220314Y141968D01*
X219801Y142636D01*
X219133Y143149D01*
X218355Y143472D01*
X217519Y143582D01*
X216684Y143472D01*
X216126Y143240D01*
X215743Y143623D01*
X216008Y144264D01*
X216063Y144677D01*
D02*
G37*
G36*
X182166Y142889D02*
X181331Y142779D01*
X180552Y142457D01*
X179884Y141944D01*
X179371Y141276D01*
X179049Y140497D01*
X178938Y139662D01*
X179049Y138826D01*
X179371Y138048D01*
X179884Y137380D01*
X180552Y136867D01*
X181331Y136544D01*
X182166Y136434D01*
X183001Y136544D01*
X183780Y136867D01*
X184448Y137380D01*
X184961Y138048D01*
X185284Y138826D01*
X185394Y139662D01*
X185284Y140497D01*
X184961Y141276D01*
X184448Y141944D01*
X183780Y142457D01*
X183001Y142779D01*
X182166Y142889D01*
D02*
G37*
G36*
X74574Y142658D02*
X73739Y142549D01*
X72960Y142226D01*
X72292Y141713D01*
X71779Y141045D01*
X71456Y140266D01*
X71346Y139431D01*
X71456Y138596D01*
X71779Y137817D01*
X72292Y137149D01*
X72960Y136636D01*
X73739Y136313D01*
X74574Y136203D01*
X75409Y136313D01*
X76188Y136636D01*
X76856Y137149D01*
X77369Y137817D01*
X77692Y138596D01*
X77802Y139431D01*
X77692Y140266D01*
X77369Y141045D01*
X76856Y141713D01*
X76188Y142226D01*
X75409Y142549D01*
X74574Y142658D01*
D02*
G37*
G36*
X389875Y143254D02*
X388921Y143128D01*
X388033Y142760D01*
X387270Y142175D01*
X386684Y141412D01*
X386316Y140523D01*
X386191Y139569D01*
X386316Y138616D01*
X386684Y137727D01*
X387270Y136964D01*
X388033Y136379D01*
X388921Y136011D01*
X389875Y135885D01*
X390828Y136011D01*
X391717Y136379D01*
X392480Y136964D01*
X393065Y137727D01*
X393433Y138616D01*
X393559Y139569D01*
X393433Y140523D01*
X393065Y141412D01*
X392480Y142175D01*
X391717Y142760D01*
X390828Y143128D01*
X389875Y143254D01*
D02*
G37*
G36*
X379875D02*
X378921Y143128D01*
X378033Y142760D01*
X377270Y142175D01*
X376684Y141412D01*
X376316Y140523D01*
X376190Y139569D01*
X376316Y138616D01*
X376684Y137727D01*
X377270Y136964D01*
X378033Y136379D01*
X378921Y136011D01*
X379875Y135885D01*
X380828Y136011D01*
X381717Y136379D01*
X382480Y136964D01*
X383065Y137727D01*
X383434Y138616D01*
X383559Y139569D01*
X383434Y140523D01*
X383065Y141412D01*
X382480Y142175D01*
X381717Y142760D01*
X380828Y143128D01*
X379875Y143254D01*
D02*
G37*
G36*
X55229D02*
X54276Y143128D01*
X53387Y142760D01*
X52624Y142175D01*
X52039Y141412D01*
X51670Y140523D01*
X51545Y139569D01*
X51670Y138616D01*
X52039Y137727D01*
X52624Y136964D01*
X53387Y136379D01*
X54276Y136011D01*
X55229Y135885D01*
X56183Y136011D01*
X57071Y136379D01*
X57834Y136964D01*
X58420Y137727D01*
X58788Y138616D01*
X58913Y139569D01*
X58788Y140523D01*
X58420Y141412D01*
X57834Y142175D01*
X57071Y142760D01*
X56183Y143128D01*
X55229Y143254D01*
D02*
G37*
G36*
X45229D02*
X44276Y143128D01*
X43387Y142760D01*
X42624Y142175D01*
X42039Y141412D01*
X41670Y140523D01*
X41545Y139569D01*
X41670Y138616D01*
X42039Y137727D01*
X42624Y136964D01*
X43387Y136379D01*
X44276Y136011D01*
X45229Y135885D01*
X46183Y136011D01*
X47071Y136379D01*
X47834Y136964D01*
X48420Y137727D01*
X48788Y138616D01*
X48913Y139569D01*
X48788Y140523D01*
X48420Y141412D01*
X47834Y142175D01*
X47071Y142760D01*
X46183Y143128D01*
X45229Y143254D01*
D02*
G37*
G36*
X138957Y142003D02*
X138122Y141893D01*
X137343Y141571D01*
X136675Y141058D01*
X136162Y140389D01*
X135839Y139611D01*
X135730Y138776D01*
X135839Y137940D01*
X136162Y137162D01*
X136675Y136493D01*
X137343Y135980D01*
X138122Y135658D01*
X138957Y135548D01*
X139793Y135658D01*
X140571Y135980D01*
X141239Y136493D01*
X141752Y137162D01*
X142075Y137940D01*
X142185Y138776D01*
X142075Y139611D01*
X141752Y140389D01*
X141239Y141058D01*
X140571Y141571D01*
X139793Y141893D01*
X138957Y142003D01*
D02*
G37*
G36*
X196044Y139248D02*
X195209Y139138D01*
X194430Y138815D01*
X193762Y138302D01*
X193249Y137634D01*
X192926Y136855D01*
X192816Y136020D01*
X192926Y135185D01*
X193249Y134406D01*
X193762Y133738D01*
X194430Y133225D01*
X195209Y132902D01*
X196044Y132792D01*
X196879Y132902D01*
X197658Y133225D01*
X198326Y133738D01*
X198839Y134406D01*
X199162Y135185D01*
X199272Y136020D01*
X199162Y136855D01*
X198839Y137634D01*
X198326Y138302D01*
X197658Y138815D01*
X196879Y139138D01*
X196044Y139248D01*
D02*
G37*
G36*
X125867Y138657D02*
X125032Y138547D01*
X124253Y138224D01*
X123585Y137712D01*
X123072Y137043D01*
X122749Y136265D01*
X122639Y135429D01*
X122749Y134594D01*
X123072Y133816D01*
X123585Y133147D01*
X124253Y132634D01*
X125032Y132312D01*
X125867Y132202D01*
X126702Y132312D01*
X127481Y132634D01*
X128149Y133147D01*
X128662Y133816D01*
X128985Y134594D01*
X129095Y135429D01*
X128985Y136265D01*
X128662Y137043D01*
X128149Y137712D01*
X127481Y138224D01*
X126702Y138547D01*
X125867Y138657D01*
D02*
G37*
G36*
X147127Y136000D02*
X146291Y135890D01*
X145513Y135567D01*
X144844Y135054D01*
X144332Y134386D01*
X144009Y133607D01*
X143899Y132772D01*
X144009Y131937D01*
X144332Y131158D01*
X144844Y130490D01*
X145513Y129977D01*
X146291Y129654D01*
X147127Y129544D01*
X147962Y129654D01*
X148741Y129977D01*
X149409Y130490D01*
X149922Y131158D01*
X150244Y131937D01*
X150354Y132772D01*
X150244Y133607D01*
X149922Y134386D01*
X149409Y135054D01*
X148741Y135567D01*
X147962Y135890D01*
X147127Y136000D01*
D02*
G37*
G36*
X154811Y135612D02*
X153976Y135502D01*
X153197Y135180D01*
X152529Y134667D01*
X152016Y133999D01*
X151693Y133220D01*
X151584Y132385D01*
X151693Y131549D01*
X152016Y130771D01*
X152529Y130103D01*
X153197Y129590D01*
X153976Y129267D01*
X154811Y129157D01*
X155647Y129267D01*
X156425Y129590D01*
X157093Y130103D01*
X157606Y130771D01*
X157929Y131549D01*
X158039Y132385D01*
X157929Y133220D01*
X157606Y133999D01*
X157093Y134667D01*
X156425Y135180D01*
X155647Y135502D01*
X154811Y135612D01*
D02*
G37*
G36*
X172127Y135507D02*
X171291Y135397D01*
X170513Y135075D01*
X169844Y134562D01*
X169332Y133894D01*
X169009Y133115D01*
X168899Y132280D01*
X169009Y131444D01*
X169332Y130666D01*
X169844Y129998D01*
X170513Y129484D01*
X171291Y129162D01*
X172127Y129052D01*
X172962Y129162D01*
X173741Y129484D01*
X174409Y129998D01*
X174922Y130666D01*
X175244Y131444D01*
X175354Y132280D01*
X175244Y133115D01*
X174922Y133894D01*
X174409Y134562D01*
X173741Y135075D01*
X172962Y135397D01*
X172127Y135507D01*
D02*
G37*
G36*
X196957Y129941D02*
Y126976D01*
X199921D01*
X199867Y127390D01*
X199514Y128242D01*
X198953Y128973D01*
X198222Y129534D01*
X197370Y129886D01*
X196957Y129941D01*
D02*
G37*
G36*
X195957D02*
X195543Y129886D01*
X194692Y129534D01*
X193960Y128973D01*
X193400Y128242D01*
X193047Y127390D01*
X192992Y126976D01*
X195957D01*
Y129941D01*
D02*
G37*
G36*
X389875Y133254D02*
X388921Y133128D01*
X388033Y132760D01*
X387270Y132175D01*
X386684Y131412D01*
X386316Y130523D01*
X386191Y129569D01*
X386316Y128616D01*
X386684Y127727D01*
X387270Y126964D01*
X388033Y126379D01*
X388921Y126011D01*
X389875Y125885D01*
X390828Y126011D01*
X391717Y126379D01*
X392480Y126964D01*
X393065Y127727D01*
X393433Y128616D01*
X393559Y129569D01*
X393433Y130523D01*
X393065Y131412D01*
X392480Y132175D01*
X391717Y132760D01*
X390828Y133128D01*
X389875Y133254D01*
D02*
G37*
G36*
X379875D02*
X378921Y133128D01*
X378033Y132760D01*
X377270Y132175D01*
X376684Y131412D01*
X376316Y130523D01*
X376190Y129569D01*
X376316Y128616D01*
X376684Y127727D01*
X377270Y126964D01*
X378033Y126379D01*
X378921Y126011D01*
X379875Y125885D01*
X380828Y126011D01*
X381717Y126379D01*
X382480Y126964D01*
X383065Y127727D01*
X383434Y128616D01*
X383559Y129569D01*
X383434Y130523D01*
X383065Y131412D01*
X382480Y132175D01*
X381717Y132760D01*
X380828Y133128D01*
X379875Y133254D01*
D02*
G37*
G36*
X55229D02*
X54276Y133128D01*
X53387Y132760D01*
X52624Y132175D01*
X52039Y131412D01*
X51670Y130523D01*
X51545Y129569D01*
X51670Y128616D01*
X52039Y127727D01*
X52624Y126964D01*
X53387Y126379D01*
X54276Y126011D01*
X55229Y125885D01*
X56183Y126011D01*
X57071Y126379D01*
X57834Y126964D01*
X58420Y127727D01*
X58788Y128616D01*
X58913Y129569D01*
X58788Y130523D01*
X58420Y131412D01*
X57834Y132175D01*
X57071Y132760D01*
X56183Y133128D01*
X55229Y133254D01*
D02*
G37*
G36*
X45229D02*
X44276Y133128D01*
X43387Y132760D01*
X42624Y132175D01*
X42039Y131412D01*
X41670Y130523D01*
X41545Y129569D01*
X41670Y128616D01*
X42039Y127727D01*
X42624Y126964D01*
X43387Y126379D01*
X44276Y126011D01*
X45229Y125885D01*
X46183Y126011D01*
X47071Y126379D01*
X47834Y126964D01*
X48420Y127727D01*
X48788Y128616D01*
X48913Y129569D01*
X48788Y130523D01*
X48420Y131412D01*
X47834Y132175D01*
X47071Y132760D01*
X46183Y133128D01*
X45229Y133254D01*
D02*
G37*
G36*
X163375Y131183D02*
X162540Y131073D01*
X161761Y130751D01*
X161093Y130238D01*
X160580Y129569D01*
X160257Y128791D01*
X160148Y127956D01*
X160257Y127120D01*
X160580Y126342D01*
X161093Y125673D01*
X161761Y125161D01*
X162540Y124838D01*
X163375Y124728D01*
X164210Y124838D01*
X164989Y125161D01*
X165657Y125673D01*
X166170Y126342D01*
X166493Y127120D01*
X166603Y127956D01*
X166493Y128791D01*
X166170Y129569D01*
X165657Y130238D01*
X164989Y130751D01*
X164210Y131073D01*
X163375Y131183D01*
D02*
G37*
G36*
X199921Y125976D02*
X196957D01*
Y123012D01*
X197370Y123066D01*
X198222Y123419D01*
X198953Y123980D01*
X199514Y124711D01*
X199867Y125563D01*
X199921Y125976D01*
D02*
G37*
G36*
X195957D02*
X192992D01*
X193047Y125563D01*
X193400Y124711D01*
X193960Y123980D01*
X194692Y123419D01*
X195543Y123066D01*
X195957Y123012D01*
Y125976D01*
D02*
G37*
G36*
X179115Y129208D02*
X178280Y129098D01*
X177501Y128776D01*
X176833Y128263D01*
X176320Y127594D01*
X175997Y126816D01*
X175887Y125980D01*
X175997Y125145D01*
X176320Y124367D01*
X176833Y123698D01*
X177501Y123185D01*
X178280Y122863D01*
X179115Y122753D01*
X179950Y122863D01*
X180729Y123185D01*
X181397Y123698D01*
X181910Y124367D01*
X182233Y125145D01*
X182343Y125980D01*
X182233Y126816D01*
X181910Y127594D01*
X181397Y128263D01*
X180729Y128776D01*
X179950Y129098D01*
X179115Y129208D01*
D02*
G37*
G36*
X204508Y127535D02*
X203673Y127425D01*
X202895Y127102D01*
X202226Y126590D01*
X201713Y125921D01*
X201391Y125143D01*
X201281Y124307D01*
X201391Y123472D01*
X201713Y122694D01*
X202226Y122025D01*
X202895Y121512D01*
X203673Y121190D01*
X204508Y121080D01*
X205344Y121190D01*
X206122Y121512D01*
X206791Y122025D01*
X207304Y122694D01*
X207626Y123472D01*
X207736Y124307D01*
X207626Y125143D01*
X207304Y125921D01*
X206791Y126590D01*
X206122Y127102D01*
X205344Y127425D01*
X204508Y127535D01*
D02*
G37*
G36*
X151268Y126655D02*
X150432Y126545D01*
X149654Y126223D01*
X148985Y125710D01*
X148472Y125041D01*
X148150Y124263D01*
X148040Y123427D01*
X148150Y122592D01*
X148472Y121814D01*
X148985Y121145D01*
X149654Y120632D01*
X150432Y120310D01*
X151268Y120200D01*
X152103Y120310D01*
X152881Y120632D01*
X153550Y121145D01*
X154063Y121814D01*
X154385Y122592D01*
X154495Y123427D01*
X154385Y124263D01*
X154063Y125041D01*
X153550Y125710D01*
X152881Y126223D01*
X152103Y126545D01*
X151268Y126655D01*
D02*
G37*
G36*
X168977Y125862D02*
X168142Y125752D01*
X167363Y125429D01*
X166695Y124916D01*
X166182Y124248D01*
X165859Y123469D01*
X165750Y122634D01*
X165859Y121799D01*
X166182Y121020D01*
X166695Y120352D01*
X167363Y119839D01*
X168142Y119517D01*
X168977Y119406D01*
X169813Y119517D01*
X170591Y119839D01*
X171259Y120352D01*
X171772Y121020D01*
X172095Y121799D01*
X172205Y122634D01*
X172095Y123469D01*
X171772Y124248D01*
X171259Y124916D01*
X170591Y125429D01*
X169813Y125752D01*
X168977Y125862D01*
D02*
G37*
G36*
X74516Y121968D02*
Y119004D01*
X77480D01*
X77426Y119418D01*
X77073Y120269D01*
X76512Y121000D01*
X75781Y121561D01*
X74929Y121914D01*
X74516Y121968D01*
D02*
G37*
G36*
X73516D02*
X73102Y121914D01*
X72251Y121561D01*
X71520Y121000D01*
X70959Y120269D01*
X70606Y119418D01*
X70551Y119004D01*
X73516D01*
Y121968D01*
D02*
G37*
G36*
X123630Y120394D02*
Y117429D01*
X126594D01*
X126540Y117843D01*
X126187Y118694D01*
X125626Y119425D01*
X124895Y119986D01*
X124044Y120339D01*
X123630Y120394D01*
D02*
G37*
G36*
X122630D02*
X122216Y120339D01*
X121365Y119986D01*
X120634Y119425D01*
X120073Y118694D01*
X119720Y117843D01*
X119666Y117429D01*
X122630D01*
Y120394D01*
D02*
G37*
G36*
X389875Y123254D02*
X388921Y123128D01*
X388033Y122760D01*
X387270Y122175D01*
X386684Y121412D01*
X386316Y120523D01*
X386191Y119570D01*
X386316Y118616D01*
X386684Y117727D01*
X387270Y116964D01*
X388033Y116379D01*
X388921Y116011D01*
X389875Y115885D01*
X390828Y116011D01*
X391717Y116379D01*
X392480Y116964D01*
X393065Y117727D01*
X393433Y118616D01*
X393559Y119570D01*
X393433Y120523D01*
X393065Y121412D01*
X392480Y122175D01*
X391717Y122760D01*
X390828Y123128D01*
X389875Y123254D01*
D02*
G37*
G36*
X379875D02*
X378921Y123128D01*
X378033Y122760D01*
X377270Y122175D01*
X376684Y121412D01*
X376316Y120523D01*
X376190Y119570D01*
X376316Y118616D01*
X376684Y117727D01*
X377270Y116964D01*
X378033Y116379D01*
X378921Y116011D01*
X379875Y115885D01*
X380828Y116011D01*
X381717Y116379D01*
X382480Y116964D01*
X383065Y117727D01*
X383434Y118616D01*
X383559Y119570D01*
X383434Y120523D01*
X383065Y121412D01*
X382480Y122175D01*
X381717Y122760D01*
X380828Y123128D01*
X379875Y123254D01*
D02*
G37*
G36*
X55229D02*
X54276Y123128D01*
X53387Y122760D01*
X52624Y122175D01*
X52039Y121412D01*
X51670Y120523D01*
X51545Y119570D01*
X51670Y118616D01*
X52039Y117727D01*
X52624Y116964D01*
X53387Y116379D01*
X54276Y116011D01*
X55229Y115885D01*
X56183Y116011D01*
X57071Y116379D01*
X57834Y116964D01*
X58420Y117727D01*
X58788Y118616D01*
X58913Y119570D01*
X58788Y120523D01*
X58420Y121412D01*
X57834Y122175D01*
X57071Y122760D01*
X56183Y123128D01*
X55229Y123254D01*
D02*
G37*
G36*
X45229D02*
X44276Y123128D01*
X43387Y122760D01*
X42624Y122175D01*
X42039Y121412D01*
X41670Y120523D01*
X41545Y119570D01*
X41670Y118616D01*
X42039Y117727D01*
X42624Y116964D01*
X43387Y116379D01*
X44276Y116011D01*
X45229Y115885D01*
X46183Y116011D01*
X47071Y116379D01*
X47834Y116964D01*
X48420Y117727D01*
X48788Y118616D01*
X48913Y119570D01*
X48788Y120523D01*
X48420Y121412D01*
X47834Y122175D01*
X47071Y122760D01*
X46183Y123128D01*
X45229Y123254D01*
D02*
G37*
G36*
X97135Y122234D02*
X96300Y122124D01*
X95521Y121802D01*
X94853Y121289D01*
X94340Y120620D01*
X94017Y119842D01*
X93907Y119007D01*
X94017Y118171D01*
X94340Y117393D01*
X94853Y116724D01*
X95521Y116211D01*
X96300Y115889D01*
X97135Y115779D01*
X97970Y115889D01*
X98749Y116211D01*
X99417Y116724D01*
X99930Y117393D01*
X100253Y118171D01*
X100363Y119007D01*
X100253Y119842D01*
X99930Y120620D01*
X99417Y121289D01*
X98749Y121802D01*
X97970Y122124D01*
X97135Y122234D01*
D02*
G37*
G36*
X77480Y118004D02*
X74516D01*
Y115040D01*
X74929Y115094D01*
X75781Y115447D01*
X76512Y116008D01*
X77073Y116739D01*
X77426Y117590D01*
X77480Y118004D01*
D02*
G37*
G36*
X73516D02*
X70551D01*
X70606Y117590D01*
X70959Y116739D01*
X71520Y116008D01*
X72251Y115447D01*
X73102Y115094D01*
X73516Y115040D01*
Y118004D01*
D02*
G37*
G36*
X222255Y120852D02*
X221420Y120742D01*
X220641Y120419D01*
X219973Y119906D01*
X219460Y119238D01*
X219137Y118459D01*
X219027Y117624D01*
X219137Y116789D01*
X219460Y116010D01*
X219973Y115342D01*
X220641Y114829D01*
X221420Y114506D01*
X222255Y114396D01*
X223090Y114506D01*
X223869Y114829D01*
X224537Y115342D01*
X225050Y116010D01*
X225373Y116789D01*
X225483Y117624D01*
X225373Y118459D01*
X225050Y119238D01*
X224537Y119906D01*
X223869Y120419D01*
X223090Y120742D01*
X222255Y120852D01*
D02*
G37*
G36*
X126594Y116429D02*
X123630D01*
Y113465D01*
X124044Y113519D01*
X124895Y113872D01*
X125626Y114433D01*
X126187Y115164D01*
X126540Y116016D01*
X126594Y116429D01*
D02*
G37*
G36*
X122630D02*
X119666D01*
X119720Y116016D01*
X120073Y115164D01*
X120634Y114433D01*
X121365Y113872D01*
X122216Y113519D01*
X122630Y113465D01*
Y116429D01*
D02*
G37*
G36*
X165040Y118283D02*
X164205Y118173D01*
X163426Y117850D01*
X162758Y117338D01*
X162245Y116669D01*
X161923Y115891D01*
X161812Y115055D01*
X161923Y114220D01*
X162245Y113442D01*
X162758Y112773D01*
X163426Y112260D01*
X164205Y111938D01*
X165040Y111828D01*
X165875Y111938D01*
X166654Y112260D01*
X167322Y112773D01*
X167835Y113442D01*
X168158Y114220D01*
X168268Y115055D01*
X168158Y115891D01*
X167835Y116669D01*
X167322Y117338D01*
X166654Y117850D01*
X165875Y118173D01*
X165040Y118283D01*
D02*
G37*
G36*
X365067Y112027D02*
Y109063D01*
X368031D01*
X367977Y109477D01*
X367624Y110328D01*
X367063Y111059D01*
X366332Y111620D01*
X365481Y111973D01*
X365067Y112027D01*
D02*
G37*
G36*
X364067D02*
X363653Y111973D01*
X362802Y111620D01*
X362071Y111059D01*
X361510Y110328D01*
X361157Y109477D01*
X361103Y109063D01*
X364067D01*
Y112027D01*
D02*
G37*
G36*
X389875Y113254D02*
X388921Y113128D01*
X388033Y112760D01*
X387270Y112175D01*
X386684Y111412D01*
X386316Y110523D01*
X386191Y109570D01*
X386316Y108616D01*
X386684Y107727D01*
X387270Y106964D01*
X388033Y106379D01*
X388921Y106011D01*
X389875Y105885D01*
X390828Y106011D01*
X391717Y106379D01*
X392480Y106964D01*
X393065Y107727D01*
X393433Y108616D01*
X393559Y109570D01*
X393433Y110523D01*
X393065Y111412D01*
X392480Y112175D01*
X391717Y112760D01*
X390828Y113128D01*
X389875Y113254D01*
D02*
G37*
G36*
X379875D02*
X378921Y113128D01*
X378033Y112760D01*
X377270Y112175D01*
X376684Y111412D01*
X376316Y110523D01*
X376190Y109570D01*
X376316Y108616D01*
X376684Y107727D01*
X377270Y106964D01*
X378033Y106379D01*
X378921Y106011D01*
X379875Y105885D01*
X380828Y106011D01*
X381717Y106379D01*
X382480Y106964D01*
X383065Y107727D01*
X383434Y108616D01*
X383559Y109570D01*
X383434Y110523D01*
X383065Y111412D01*
X382480Y112175D01*
X381717Y112760D01*
X380828Y113128D01*
X379875Y113254D01*
D02*
G37*
G36*
X55229D02*
X54276Y113128D01*
X53387Y112760D01*
X52624Y112175D01*
X52039Y111412D01*
X51670Y110523D01*
X51545Y109570D01*
X51670Y108616D01*
X52039Y107727D01*
X52624Y106964D01*
X53387Y106379D01*
X54276Y106011D01*
X55229Y105885D01*
X56183Y106011D01*
X57071Y106379D01*
X57834Y106964D01*
X58420Y107727D01*
X58788Y108616D01*
X58913Y109570D01*
X58788Y110523D01*
X58420Y111412D01*
X57834Y112175D01*
X57071Y112760D01*
X56183Y113128D01*
X55229Y113254D01*
D02*
G37*
G36*
X45229D02*
X44276Y113128D01*
X43387Y112760D01*
X42624Y112175D01*
X42039Y111412D01*
X41670Y110523D01*
X41545Y109570D01*
X41670Y108616D01*
X42039Y107727D01*
X42624Y106964D01*
X43387Y106379D01*
X44276Y106011D01*
X45229Y105885D01*
X46183Y106011D01*
X47071Y106379D01*
X47834Y106964D01*
X48420Y107727D01*
X48788Y108616D01*
X48913Y109570D01*
X48788Y110523D01*
X48420Y111412D01*
X47834Y112175D01*
X47071Y112760D01*
X46183Y113128D01*
X45229Y113254D01*
D02*
G37*
G36*
X108194Y112334D02*
X107358Y112224D01*
X106580Y111902D01*
X105911Y111389D01*
X105398Y110720D01*
X105076Y109942D01*
X104966Y109107D01*
X105076Y108271D01*
X105398Y107493D01*
X105911Y106824D01*
X106580Y106311D01*
X107358Y105989D01*
X108194Y105879D01*
X109029Y105989D01*
X109807Y106311D01*
X110476Y106824D01*
X110989Y107493D01*
X111311Y108271D01*
X111421Y109107D01*
X111311Y109942D01*
X110989Y110720D01*
X110476Y111389D01*
X109807Y111902D01*
X109029Y112224D01*
X108194Y112334D01*
D02*
G37*
G36*
X75753D02*
X74918Y112224D01*
X74140Y111902D01*
X73471Y111389D01*
X72958Y110720D01*
X72636Y109942D01*
X72526Y109107D01*
X72636Y108271D01*
X72958Y107493D01*
X73471Y106824D01*
X74140Y106311D01*
X74918Y105989D01*
X75753Y105879D01*
X76589Y105989D01*
X77367Y106311D01*
X78036Y106824D01*
X78549Y107493D01*
X78871Y108271D01*
X78981Y109107D01*
X78871Y109942D01*
X78549Y110720D01*
X78036Y111389D01*
X77367Y111902D01*
X76589Y112224D01*
X75753Y112334D01*
D02*
G37*
G36*
X368031Y108063D02*
X365067D01*
Y105099D01*
X365481Y105153D01*
X366332Y105506D01*
X367063Y106067D01*
X367624Y106798D01*
X367977Y107649D01*
X368031Y108063D01*
D02*
G37*
G36*
X364067D02*
X361103D01*
X361157Y107649D01*
X361510Y106798D01*
X362071Y106067D01*
X362802Y105506D01*
X363653Y105153D01*
X364067Y105099D01*
Y108063D01*
D02*
G37*
G36*
X207685Y104547D02*
Y101583D01*
X210649D01*
X210595Y101996D01*
X210242Y102848D01*
X209681Y103579D01*
X208950Y104140D01*
X208099Y104493D01*
X207685Y104547D01*
D02*
G37*
G36*
X206685D02*
X206271Y104493D01*
X205420Y104140D01*
X204689Y103579D01*
X204128Y102848D01*
X203775Y101996D01*
X203721Y101583D01*
X206685D01*
Y104547D01*
D02*
G37*
G36*
X276064Y107751D02*
X275228Y107641D01*
X274450Y107319D01*
X273781Y106806D01*
X273269Y106138D01*
X272946Y105359D01*
X272836Y104524D01*
X272946Y103688D01*
X273269Y102910D01*
X273781Y102242D01*
X274450Y101728D01*
X275228Y101406D01*
X276064Y101296D01*
X276899Y101406D01*
X277678Y101728D01*
X278346Y102242D01*
X278859Y102910D01*
X279181Y103688D01*
X279291Y104524D01*
X279181Y105359D01*
X278859Y106138D01*
X278346Y106806D01*
X277678Y107319D01*
X276899Y107641D01*
X276064Y107751D01*
D02*
G37*
G36*
X293307Y106377D02*
X292472Y106267D01*
X291693Y105945D01*
X291025Y105432D01*
X290512Y104763D01*
X290190Y103985D01*
X290079Y103150D01*
X290190Y102314D01*
X290512Y101536D01*
X291025Y100867D01*
X291693Y100354D01*
X292472Y100032D01*
X293307Y99922D01*
X294143Y100032D01*
X294921Y100354D01*
X295589Y100867D01*
X296102Y101536D01*
X296425Y102314D01*
X296535Y103150D01*
X296425Y103985D01*
X296102Y104763D01*
X295589Y105432D01*
X294921Y105945D01*
X294143Y106267D01*
X293307Y106377D01*
D02*
G37*
G36*
X318288Y106176D02*
X317452Y106067D01*
X316674Y105744D01*
X316005Y105231D01*
X315492Y104563D01*
X315170Y103784D01*
X315060Y102949D01*
X315170Y102114D01*
X315492Y101335D01*
X316005Y100667D01*
X316674Y100154D01*
X317452Y99831D01*
X318288Y99721D01*
X319123Y99831D01*
X319901Y100154D01*
X320570Y100667D01*
X321083Y101335D01*
X321405Y102114D01*
X321515Y102949D01*
X321405Y103784D01*
X321083Y104563D01*
X320570Y105231D01*
X319901Y105744D01*
X319123Y106067D01*
X318288Y106176D01*
D02*
G37*
G36*
X175795Y101791D02*
Y98827D01*
X178760D01*
X178705Y99240D01*
X178352Y100092D01*
X177792Y100823D01*
X177060Y101384D01*
X176209Y101737D01*
X175795Y101791D01*
D02*
G37*
G36*
X174795D02*
X174382Y101737D01*
X173530Y101384D01*
X172799Y100823D01*
X172238Y100092D01*
X171885Y99240D01*
X171831Y98827D01*
X174795D01*
Y101791D01*
D02*
G37*
G36*
X71071Y101594D02*
Y98630D01*
X74035D01*
X73981Y99044D01*
X73628Y99895D01*
X73067Y100626D01*
X72336Y101187D01*
X71485Y101540D01*
X71071Y101594D01*
D02*
G37*
G36*
X70071D02*
X69657Y101540D01*
X68806Y101187D01*
X68075Y100626D01*
X67514Y99895D01*
X67161Y99044D01*
X67106Y98630D01*
X70071D01*
Y101594D01*
D02*
G37*
G36*
X243118Y101496D02*
Y98532D01*
X246082D01*
X246028Y98945D01*
X245675Y99797D01*
X245114Y100528D01*
X244383Y101089D01*
X243532Y101441D01*
X243118Y101496D01*
D02*
G37*
G36*
X242118D02*
X241704Y101441D01*
X240853Y101089D01*
X240122Y100528D01*
X239561Y99797D01*
X239208Y98945D01*
X239154Y98532D01*
X242118D01*
Y101496D01*
D02*
G37*
G36*
X210649Y100583D02*
X207685D01*
Y97618D01*
X208099Y97673D01*
X208950Y98025D01*
X209681Y98586D01*
X210242Y99318D01*
X210595Y100169D01*
X210649Y100583D01*
D02*
G37*
G36*
X206685D02*
X203721D01*
X203775Y100169D01*
X204128Y99318D01*
X204689Y98586D01*
X205420Y98025D01*
X206271Y97673D01*
X206685Y97618D01*
Y100583D01*
D02*
G37*
G36*
X189253Y104034D02*
X188418Y103924D01*
X187640Y103602D01*
X186971Y103089D01*
X186458Y102420D01*
X186136Y101642D01*
X186026Y100806D01*
X186136Y99971D01*
X186458Y99193D01*
X186971Y98524D01*
X187640Y98011D01*
X188418Y97689D01*
X189253Y97579D01*
X190089Y97689D01*
X190867Y98011D01*
X191536Y98524D01*
X192049Y99193D01*
X192371Y99971D01*
X192481Y100806D01*
X192371Y101642D01*
X192049Y102420D01*
X191536Y103089D01*
X190867Y103602D01*
X190089Y103924D01*
X189253Y104034D01*
D02*
G37*
G36*
X306477Y102633D02*
X305642Y102523D01*
X304863Y102201D01*
X304195Y101688D01*
X303682Y101020D01*
X303360Y100241D01*
X303250Y99406D01*
X303360Y98570D01*
X303682Y97792D01*
X304195Y97123D01*
X304863Y96611D01*
X305642Y96288D01*
X306477Y96178D01*
X307312Y96288D01*
X308091Y96611D01*
X308759Y97123D01*
X309272Y97792D01*
X309595Y98570D01*
X309705Y99406D01*
X309595Y100241D01*
X309272Y101020D01*
X308759Y101688D01*
X308091Y102201D01*
X307312Y102523D01*
X306477Y102633D01*
D02*
G37*
G36*
X389875Y103254D02*
X388921Y103128D01*
X388033Y102760D01*
X387270Y102175D01*
X386684Y101412D01*
X386316Y100523D01*
X386191Y99569D01*
X386316Y98616D01*
X386684Y97727D01*
X387270Y96964D01*
X388033Y96379D01*
X388921Y96011D01*
X389875Y95885D01*
X390828Y96011D01*
X391717Y96379D01*
X392480Y96964D01*
X393065Y97727D01*
X393433Y98616D01*
X393559Y99569D01*
X393433Y100523D01*
X393065Y101412D01*
X392480Y102175D01*
X391717Y102760D01*
X390828Y103128D01*
X389875Y103254D01*
D02*
G37*
G36*
X379875D02*
X378921Y103128D01*
X378033Y102760D01*
X377270Y102175D01*
X376684Y101412D01*
X376316Y100523D01*
X376190Y99569D01*
X376316Y98616D01*
X376684Y97727D01*
X377270Y96964D01*
X378033Y96379D01*
X378921Y96011D01*
X379875Y95885D01*
X380828Y96011D01*
X381717Y96379D01*
X382480Y96964D01*
X383065Y97727D01*
X383434Y98616D01*
X383559Y99569D01*
X383434Y100523D01*
X383065Y101412D01*
X382480Y102175D01*
X381717Y102760D01*
X380828Y103128D01*
X379875Y103254D01*
D02*
G37*
G36*
X55229D02*
X54276Y103128D01*
X53387Y102760D01*
X52624Y102175D01*
X52039Y101412D01*
X51670Y100523D01*
X51545Y99569D01*
X51670Y98616D01*
X52039Y97727D01*
X52624Y96964D01*
X53387Y96379D01*
X54276Y96011D01*
X55229Y95885D01*
X56183Y96011D01*
X57071Y96379D01*
X57834Y96964D01*
X58420Y97727D01*
X58788Y98616D01*
X58913Y99569D01*
X58788Y100523D01*
X58420Y101412D01*
X57834Y102175D01*
X57071Y102760D01*
X56183Y103128D01*
X55229Y103254D01*
D02*
G37*
G36*
X45229D02*
X44276Y103128D01*
X43387Y102760D01*
X42624Y102175D01*
X42039Y101412D01*
X41670Y100523D01*
X41545Y99569D01*
X41670Y98616D01*
X42039Y97727D01*
X42624Y96964D01*
X43387Y96379D01*
X44276Y96011D01*
X45229Y95885D01*
X46183Y96011D01*
X47071Y96379D01*
X47834Y96964D01*
X48420Y97727D01*
X48788Y98616D01*
X48913Y99569D01*
X48788Y100523D01*
X48420Y101412D01*
X47834Y102175D01*
X47071Y102760D01*
X46183Y103128D01*
X45229Y103254D01*
D02*
G37*
G36*
X358446Y102240D02*
X357610Y102130D01*
X356832Y101807D01*
X356164Y101294D01*
X355651Y100626D01*
X355328Y99847D01*
X355218Y99012D01*
X355328Y98177D01*
X355651Y97398D01*
X356164Y96730D01*
X356832Y96217D01*
X357610Y95894D01*
X358446Y95784D01*
X359281Y95894D01*
X360060Y96217D01*
X360728Y96730D01*
X361241Y97398D01*
X361563Y98177D01*
X361673Y99012D01*
X361563Y99847D01*
X361241Y100626D01*
X360728Y101294D01*
X360060Y101807D01*
X359281Y102130D01*
X358446Y102240D01*
D02*
G37*
G36*
X224992Y102146D02*
X224156Y102036D01*
X223378Y101714D01*
X222709Y101201D01*
X222197Y100532D01*
X221874Y99754D01*
X221764Y98918D01*
X221874Y98083D01*
X222197Y97305D01*
X222709Y96636D01*
X223378Y96123D01*
X224156Y95801D01*
X224992Y95691D01*
X225827Y95801D01*
X226606Y96123D01*
X227274Y96636D01*
X227787Y97305D01*
X227970Y97747D01*
X228272Y97772D01*
X228499Y97716D01*
X228791Y97009D01*
X229304Y96341D01*
X229973Y95828D01*
X230751Y95505D01*
X231587Y95395D01*
X232422Y95505D01*
X233200Y95828D01*
X233869Y96341D01*
X234382Y97009D01*
X234704Y97788D01*
X234814Y98623D01*
X234704Y99458D01*
X234382Y100237D01*
X233869Y100905D01*
X233200Y101418D01*
X232422Y101741D01*
X231587Y101851D01*
X230751Y101741D01*
X229973Y101418D01*
X229304Y100905D01*
X228791Y100237D01*
X228608Y99795D01*
X228307Y99770D01*
X228080Y99826D01*
X227787Y100532D01*
X227274Y101201D01*
X226606Y101714D01*
X225827Y102036D01*
X224992Y102146D01*
D02*
G37*
G36*
X178760Y97827D02*
X175795D01*
Y94862D01*
X176209Y94917D01*
X177060Y95270D01*
X177792Y95831D01*
X178352Y96562D01*
X178705Y97413D01*
X178760Y97827D01*
D02*
G37*
G36*
X174795D02*
X171831D01*
X171885Y97413D01*
X172238Y96562D01*
X172799Y95831D01*
X173530Y95270D01*
X174382Y94917D01*
X174795Y94862D01*
Y97827D01*
D02*
G37*
G36*
X246082Y97531D02*
X243118D01*
Y94567D01*
X243532Y94622D01*
X244383Y94974D01*
X245114Y95535D01*
X245675Y96266D01*
X246028Y97118D01*
X246082Y97531D01*
D02*
G37*
G36*
X242118D02*
X239154D01*
X239208Y97118D01*
X239561Y96266D01*
X240122Y95535D01*
X240853Y94974D01*
X241704Y94622D01*
X242118Y94567D01*
Y97531D01*
D02*
G37*
G36*
X138197Y96870D02*
Y93906D01*
X141161D01*
X141107Y94319D01*
X140754Y95171D01*
X140193Y95902D01*
X139462Y96463D01*
X138610Y96815D01*
X138197Y96870D01*
D02*
G37*
G36*
X137197D02*
X136783Y96815D01*
X135932Y96463D01*
X135201Y95902D01*
X134640Y95171D01*
X134287Y94319D01*
X134232Y93906D01*
X137197D01*
Y96870D01*
D02*
G37*
G36*
X151851Y99878D02*
X151016Y99768D01*
X150237Y99445D01*
X149569Y98932D01*
X149056Y98264D01*
X148733Y97485D01*
X148624Y96650D01*
X148733Y95815D01*
X149056Y95036D01*
X149569Y94368D01*
X150237Y93855D01*
X151016Y93532D01*
X151851Y93422D01*
X152687Y93532D01*
X153465Y93855D01*
X154133Y94368D01*
X154646Y95036D01*
X154969Y95815D01*
X155079Y96650D01*
X154969Y97485D01*
X154646Y98264D01*
X154133Y98932D01*
X153465Y99445D01*
X152687Y99768D01*
X151851Y99878D01*
D02*
G37*
G36*
X88583Y99291D02*
X87747Y99181D01*
X86969Y98858D01*
X86300Y98345D01*
X85788Y97677D01*
X85465Y96898D01*
X85355Y96063D01*
X85465Y95228D01*
X85788Y94449D01*
X86300Y93781D01*
X86969Y93268D01*
X87747Y92945D01*
X88583Y92835D01*
X89418Y92945D01*
X90197Y93268D01*
X90865Y93781D01*
X91378Y94449D01*
X91700Y95228D01*
X91810Y96063D01*
X91700Y96898D01*
X91378Y97677D01*
X90865Y98345D01*
X90197Y98858D01*
X89418Y99181D01*
X88583Y99291D01*
D02*
G37*
G36*
X212776Y98598D02*
X211941Y98488D01*
X211162Y98166D01*
X210494Y97653D01*
X209981Y96984D01*
X209659Y96206D01*
X209549Y95370D01*
X209659Y94535D01*
X209981Y93757D01*
X210494Y93088D01*
X211162Y92575D01*
X211941Y92253D01*
X212776Y92143D01*
X213612Y92253D01*
X214390Y92575D01*
X215059Y93088D01*
X215571Y93757D01*
X215894Y94535D01*
X216004Y95370D01*
X215894Y96206D01*
X215571Y96984D01*
X215059Y97653D01*
X214390Y98166D01*
X213612Y98488D01*
X212776Y98598D01*
D02*
G37*
G36*
X105709Y98405D02*
X104873Y98295D01*
X104095Y97972D01*
X103427Y97459D01*
X102914Y96791D01*
X102591Y96013D01*
X102481Y95177D01*
X102591Y94342D01*
X102914Y93563D01*
X103427Y92895D01*
X104095Y92382D01*
X104873Y92059D01*
X105709Y91949D01*
X106544Y92059D01*
X107323Y92382D01*
X107991Y92895D01*
X108504Y93563D01*
X108826Y94342D01*
X108936Y95177D01*
X108826Y96013D01*
X108504Y96791D01*
X107991Y97459D01*
X107323Y97972D01*
X106544Y98295D01*
X105709Y98405D01*
D02*
G37*
G36*
X82095Y94212D02*
Y91248D01*
X85059D01*
X85004Y91662D01*
X84652Y92513D01*
X84091Y93244D01*
X83360Y93805D01*
X82508Y94158D01*
X82095Y94212D01*
D02*
G37*
G36*
X81094D02*
X80681Y94158D01*
X79829Y93805D01*
X79098Y93244D01*
X78537Y92513D01*
X78185Y91662D01*
X78130Y91248D01*
X81094D01*
Y94212D01*
D02*
G37*
G36*
X182954Y96433D02*
X182118Y96323D01*
X181340Y96000D01*
X180671Y95487D01*
X180158Y94819D01*
X179836Y94040D01*
X179726Y93205D01*
X179836Y92370D01*
X180158Y91591D01*
X180671Y90923D01*
X181340Y90410D01*
X182118Y90087D01*
X182954Y89977D01*
X183789Y90087D01*
X184567Y90410D01*
X185236Y90923D01*
X185749Y91591D01*
X186071Y92370D01*
X186181Y93205D01*
X186071Y94040D01*
X185749Y94819D01*
X185236Y95487D01*
X184567Y96000D01*
X183789Y96323D01*
X182954Y96433D01*
D02*
G37*
G36*
X141161Y92905D02*
X138197D01*
Y89941D01*
X138610Y89996D01*
X139462Y90348D01*
X140193Y90909D01*
X140754Y91640D01*
X141107Y92492D01*
X141161Y92905D01*
D02*
G37*
G36*
X137197D02*
X134232D01*
X134287Y92492D01*
X134640Y91640D01*
X135201Y90909D01*
X135932Y90348D01*
X136783Y89996D01*
X137197Y89941D01*
Y92905D01*
D02*
G37*
G36*
X74035Y97630D02*
X67106D01*
X67161Y97216D01*
X67514Y96365D01*
X68075Y95634D01*
X68806Y95073D01*
X69608Y94740D01*
X69623Y94699D01*
X69518Y94224D01*
X68740Y93902D01*
X68071Y93389D01*
X67558Y92720D01*
X67236Y91942D01*
X67126Y91106D01*
X67236Y90271D01*
X67558Y89493D01*
X68071Y88824D01*
X68740Y88311D01*
X69518Y87989D01*
X70354Y87879D01*
X71189Y87989D01*
X71967Y88311D01*
X72636Y88824D01*
X73149Y89493D01*
X73471Y90271D01*
X73581Y91106D01*
X73471Y91942D01*
X73149Y92720D01*
X72636Y93389D01*
X71967Y93902D01*
X71276Y94188D01*
X71247Y94479D01*
X71297Y94695D01*
X71485Y94720D01*
X72336Y95073D01*
X73067Y95634D01*
X73628Y96365D01*
X73981Y97216D01*
X74035Y97630D01*
D02*
G37*
G36*
X169890Y90571D02*
Y87606D01*
X172854D01*
X172800Y88020D01*
X172447Y88871D01*
X171886Y89603D01*
X171155Y90163D01*
X170303Y90516D01*
X169890Y90571D01*
D02*
G37*
G36*
X168890D02*
X168476Y90516D01*
X167625Y90163D01*
X166893Y89603D01*
X166332Y88871D01*
X165980Y88020D01*
X165925Y87606D01*
X168890D01*
Y90571D01*
D02*
G37*
G36*
X85059Y90248D02*
X82095D01*
Y87284D01*
X82508Y87338D01*
X83360Y87691D01*
X84091Y88252D01*
X84652Y88983D01*
X85004Y89834D01*
X85059Y90248D01*
D02*
G37*
G36*
X81094D02*
X78130D01*
X78185Y89834D01*
X78537Y88983D01*
X79098Y88252D01*
X79829Y87691D01*
X80681Y87338D01*
X81094Y87284D01*
Y90248D01*
D02*
G37*
G36*
X234460Y93094D02*
X233625Y92984D01*
X232846Y92662D01*
X232178Y92149D01*
X231665Y91480D01*
X231343Y90702D01*
X231233Y89867D01*
X231343Y89031D01*
X231665Y88253D01*
X232178Y87585D01*
X232846Y87072D01*
X233625Y86749D01*
X234460Y86639D01*
X235296Y86749D01*
X236074Y87072D01*
X236743Y87585D01*
X237256Y88253D01*
X237578Y89031D01*
X237688Y89867D01*
X237578Y90702D01*
X237256Y91480D01*
X236743Y92149D01*
X236074Y92662D01*
X235296Y92984D01*
X234460Y93094D01*
D02*
G37*
G36*
X389875Y93254D02*
X388921Y93128D01*
X388033Y92760D01*
X387270Y92175D01*
X386684Y91412D01*
X386316Y90523D01*
X386191Y89569D01*
X386316Y88616D01*
X386684Y87727D01*
X387270Y86964D01*
X388033Y86379D01*
X388921Y86011D01*
X389875Y85885D01*
X390828Y86011D01*
X391717Y86379D01*
X392480Y86964D01*
X393065Y87727D01*
X393433Y88616D01*
X393559Y89569D01*
X393433Y90523D01*
X393065Y91412D01*
X392480Y92175D01*
X391717Y92760D01*
X390828Y93128D01*
X389875Y93254D01*
D02*
G37*
G36*
X379875D02*
X378921Y93128D01*
X378033Y92760D01*
X377270Y92175D01*
X376684Y91412D01*
X376316Y90523D01*
X376190Y89569D01*
X376316Y88616D01*
X376684Y87727D01*
X377270Y86964D01*
X378033Y86379D01*
X378921Y86011D01*
X379875Y85885D01*
X380828Y86011D01*
X381717Y86379D01*
X382480Y86964D01*
X383065Y87727D01*
X383434Y88616D01*
X383559Y89569D01*
X383434Y90523D01*
X383065Y91412D01*
X382480Y92175D01*
X381717Y92760D01*
X380828Y93128D01*
X379875Y93254D01*
D02*
G37*
G36*
X55229D02*
X54276Y93128D01*
X53387Y92760D01*
X52624Y92175D01*
X52039Y91412D01*
X51670Y90523D01*
X51545Y89569D01*
X51670Y88616D01*
X52039Y87727D01*
X52624Y86964D01*
X53387Y86379D01*
X54276Y86011D01*
X55229Y85885D01*
X56183Y86011D01*
X57071Y86379D01*
X57834Y86964D01*
X58420Y87727D01*
X58788Y88616D01*
X58913Y89569D01*
X58788Y90523D01*
X58420Y91412D01*
X57834Y92175D01*
X57071Y92760D01*
X56183Y93128D01*
X55229Y93254D01*
D02*
G37*
G36*
X45229D02*
X44276Y93128D01*
X43387Y92760D01*
X42624Y92175D01*
X42039Y91412D01*
X41670Y90523D01*
X41545Y89569D01*
X41670Y88616D01*
X42039Y87727D01*
X42624Y86964D01*
X43387Y86379D01*
X44276Y86011D01*
X45229Y85885D01*
X46183Y86011D01*
X47071Y86379D01*
X47834Y86964D01*
X48420Y87727D01*
X48788Y88616D01*
X48913Y89569D01*
X48788Y90523D01*
X48420Y91412D01*
X47834Y92175D01*
X47071Y92760D01*
X46183Y93128D01*
X45229Y93254D01*
D02*
G37*
G36*
X335906Y91216D02*
X335071Y91106D01*
X334292Y90784D01*
X333624Y90271D01*
X333111Y89602D01*
X332788Y88824D01*
X332679Y87988D01*
X332788Y87153D01*
X333111Y86374D01*
X333624Y85706D01*
X334292Y85193D01*
X335071Y84871D01*
X335906Y84761D01*
X336741Y84871D01*
X337520Y85193D01*
X338188Y85706D01*
X338701Y86374D01*
X339024Y87153D01*
X339134Y87988D01*
X339024Y88824D01*
X338701Y89602D01*
X338188Y90271D01*
X337520Y90784D01*
X336741Y91106D01*
X335906Y91216D01*
D02*
G37*
G36*
X251878Y87716D02*
Y84752D01*
X254842D01*
X254788Y85166D01*
X254435Y86017D01*
X253874Y86748D01*
X253143Y87309D01*
X252292Y87662D01*
X251878Y87716D01*
D02*
G37*
G36*
X250878D02*
X250464Y87662D01*
X249613Y87309D01*
X248882Y86748D01*
X248321Y86017D01*
X247968Y85166D01*
X247914Y84752D01*
X250878D01*
Y87716D01*
D02*
G37*
G36*
X62114Y87224D02*
Y84260D01*
X65079D01*
X65024Y84674D01*
X64671Y85525D01*
X64110Y86256D01*
X63379Y86817D01*
X62528Y87170D01*
X62114Y87224D01*
D02*
G37*
G36*
X61114D02*
X60701Y87170D01*
X59849Y86817D01*
X59118Y86256D01*
X58557Y85525D01*
X58204Y84674D01*
X58150Y84260D01*
X61114D01*
Y87224D01*
D02*
G37*
G36*
X172854Y86606D02*
X169890D01*
Y83642D01*
X170303Y83696D01*
X171155Y84049D01*
X171886Y84610D01*
X172447Y85341D01*
X172800Y86193D01*
X172854Y86606D01*
D02*
G37*
G36*
X168890D02*
X165925D01*
X165980Y86193D01*
X166332Y85341D01*
X166893Y84610D01*
X167625Y84049D01*
X168476Y83696D01*
X168890Y83642D01*
Y86606D01*
D02*
G37*
G36*
X132193Y85157D02*
Y82193D01*
X135157D01*
X135103Y82607D01*
X134750Y83458D01*
X134189Y84189D01*
X133458Y84750D01*
X132607Y85103D01*
X132193Y85157D01*
D02*
G37*
G36*
X131193D02*
X130779Y85103D01*
X129928Y84750D01*
X129197Y84189D01*
X128636Y83458D01*
X128283Y82607D01*
X128228Y82193D01*
X131193D01*
Y85157D01*
D02*
G37*
G36*
X61114Y83260D02*
X58150D01*
X58204Y82846D01*
X58503Y82124D01*
X58067Y81872D01*
X57834Y82175D01*
X57071Y82760D01*
X56183Y83128D01*
X55229Y83254D01*
X54276Y83128D01*
X53387Y82760D01*
X52624Y82175D01*
X52039Y81412D01*
X51670Y80523D01*
X51545Y79570D01*
X51670Y78616D01*
X52039Y77727D01*
X52624Y76964D01*
X53387Y76379D01*
X54276Y76011D01*
X55229Y75885D01*
X56183Y76011D01*
X57071Y76379D01*
X57834Y76964D01*
X58420Y77727D01*
X58788Y78616D01*
X58913Y79570D01*
X58788Y80523D01*
X58473Y81282D01*
X58910Y81534D01*
X59118Y81264D01*
X59849Y80703D01*
X60701Y80350D01*
X61114Y80295D01*
Y83260D01*
D02*
G37*
G36*
X274489Y88263D02*
X273654Y88153D01*
X272875Y87831D01*
X272207Y87318D01*
X271694Y86650D01*
X271371Y85871D01*
X271261Y85036D01*
X271371Y84200D01*
X271694Y83422D01*
X272207Y82753D01*
X272875Y82240D01*
X273654Y81918D01*
X274489Y81808D01*
X275324Y81918D01*
X276103Y82240D01*
X276771Y82753D01*
X277284Y83422D01*
X277607Y84200D01*
X277717Y85036D01*
X277607Y85871D01*
X277284Y86650D01*
X276771Y87318D01*
X276103Y87831D01*
X275324Y88153D01*
X274489Y88263D01*
D02*
G37*
G36*
X358353Y88134D02*
X357518Y88024D01*
X356740Y87702D01*
X356071Y87189D01*
X355558Y86520D01*
X355236Y85742D01*
X355126Y84907D01*
X355236Y84071D01*
X355558Y83293D01*
X356071Y82624D01*
X356740Y82111D01*
X357518Y81789D01*
X358353Y81679D01*
X359189Y81789D01*
X359967Y82111D01*
X360636Y82624D01*
X361149Y83293D01*
X361471Y84071D01*
X361581Y84907D01*
X361471Y85742D01*
X361149Y86520D01*
X360636Y87189D01*
X359967Y87702D01*
X359189Y88024D01*
X358353Y88134D01*
D02*
G37*
G36*
X254842Y83752D02*
X251878D01*
Y80788D01*
X252292Y80842D01*
X253143Y81195D01*
X253874Y81756D01*
X254435Y82487D01*
X254788Y83338D01*
X254842Y83752D01*
D02*
G37*
G36*
X250878D02*
X247914D01*
X247968Y83338D01*
X248321Y82487D01*
X248882Y81756D01*
X249613Y81195D01*
X250464Y80842D01*
X250878Y80788D01*
Y83752D01*
D02*
G37*
G36*
X289745Y86787D02*
X288909Y86677D01*
X288131Y86355D01*
X287462Y85842D01*
X286950Y85173D01*
X286627Y84395D01*
X286517Y83559D01*
X286627Y82724D01*
X286950Y81946D01*
X287462Y81277D01*
X288131Y80764D01*
X288909Y80442D01*
X289745Y80332D01*
X290580Y80442D01*
X291359Y80764D01*
X292027Y81277D01*
X292540Y81946D01*
X292862Y82724D01*
X292972Y83559D01*
X292862Y84395D01*
X292540Y85173D01*
X292027Y85842D01*
X291359Y86355D01*
X290580Y86677D01*
X289745Y86787D01*
D02*
G37*
G36*
X65079Y83260D02*
X62114D01*
Y80295D01*
X62528Y80350D01*
X63379Y80703D01*
X64110Y81264D01*
X64671Y81995D01*
X65024Y82846D01*
X65079Y83260D01*
D02*
G37*
G36*
X103721Y85015D02*
X102886Y84905D01*
X102108Y84583D01*
X101439Y84070D01*
X100926Y83402D01*
X100604Y82623D01*
X100494Y81788D01*
X100604Y80952D01*
X100926Y80174D01*
X101439Y79505D01*
X102108Y78993D01*
X102886Y78670D01*
X103721Y78560D01*
X104557Y78670D01*
X105335Y78993D01*
X106004Y79505D01*
X106517Y80174D01*
X106839Y80952D01*
X106949Y81788D01*
X106839Y82623D01*
X106517Y83402D01*
X106004Y84070D01*
X105335Y84583D01*
X104557Y84905D01*
X103721Y85015D01*
D02*
G37*
G36*
X135157Y81193D02*
X132193D01*
Y78228D01*
X132607Y78283D01*
X133458Y78636D01*
X134189Y79197D01*
X134750Y79928D01*
X135103Y80779D01*
X135157Y81193D01*
D02*
G37*
G36*
X131193D02*
X128228D01*
X128283Y80779D01*
X128636Y79928D01*
X129197Y79197D01*
X129928Y78636D01*
X130779Y78283D01*
X131193Y78228D01*
Y81193D01*
D02*
G37*
G36*
X329732Y80433D02*
Y77469D01*
X332697D01*
X332642Y77882D01*
X332290Y78734D01*
X331729Y79465D01*
X330997Y80026D01*
X330146Y80378D01*
X329732Y80433D01*
D02*
G37*
G36*
X328732D02*
X328319Y80378D01*
X327467Y80026D01*
X326736Y79465D01*
X326175Y78734D01*
X325822Y77882D01*
X325768Y77469D01*
X328732D01*
Y80433D01*
D02*
G37*
G36*
X241350Y83744D02*
X240515Y83634D01*
X239737Y83311D01*
X239068Y82798D01*
X238555Y82130D01*
X238233Y81351D01*
X238123Y80516D01*
X238233Y79681D01*
X238555Y78902D01*
X239068Y78234D01*
X239737Y77721D01*
X240515Y77398D01*
X241350Y77288D01*
X242186Y77398D01*
X242964Y77721D01*
X243633Y78234D01*
X244145Y78902D01*
X244468Y79681D01*
X244578Y80516D01*
X244468Y81351D01*
X244145Y82130D01*
X243633Y82798D01*
X242964Y83311D01*
X242186Y83634D01*
X241350Y83744D01*
D02*
G37*
G36*
X73013Y83736D02*
X72177Y83626D01*
X71399Y83303D01*
X70730Y82790D01*
X70217Y82122D01*
X69895Y81344D01*
X69785Y80508D01*
X69895Y79673D01*
X70217Y78894D01*
X70730Y78226D01*
X71399Y77713D01*
X72177Y77390D01*
X73013Y77280D01*
X73848Y77390D01*
X74626Y77713D01*
X75295Y78226D01*
X75808Y78894D01*
X76130Y79673D01*
X76240Y80508D01*
X76130Y81344D01*
X75808Y82122D01*
X75295Y82790D01*
X74626Y83303D01*
X73848Y83626D01*
X73013Y83736D01*
D02*
G37*
G36*
X303945Y79744D02*
Y76780D01*
X306909D01*
X306855Y77193D01*
X306502Y78045D01*
X305941Y78776D01*
X305210Y79337D01*
X304359Y79689D01*
X303945Y79744D01*
D02*
G37*
G36*
X302945D02*
X302531Y79689D01*
X301680Y79337D01*
X300949Y78776D01*
X300388Y78045D01*
X300035Y77193D01*
X299980Y76780D01*
X302945D01*
Y79744D01*
D02*
G37*
G36*
X369094Y82558D02*
X368259Y82448D01*
X367481Y82126D01*
X366812Y81613D01*
X366299Y80945D01*
X365977Y80166D01*
X365867Y79331D01*
X365977Y78495D01*
X366299Y77717D01*
X366812Y77048D01*
X367481Y76536D01*
X368259Y76213D01*
X369094Y76103D01*
X369930Y76213D01*
X370708Y76536D01*
X371377Y77048D01*
X371890Y77717D01*
X372212Y78495D01*
X372322Y79331D01*
X372212Y80166D01*
X371890Y80945D01*
X371377Y81613D01*
X370708Y82126D01*
X369930Y82448D01*
X369094Y82558D01*
D02*
G37*
G36*
X276484Y78957D02*
Y75992D01*
X279449D01*
X279394Y76406D01*
X279042Y77257D01*
X278481Y77988D01*
X277749Y78549D01*
X276898Y78902D01*
X276484Y78957D01*
D02*
G37*
G36*
X275484D02*
X275071Y78902D01*
X274219Y78549D01*
X273488Y77988D01*
X272927Y77257D01*
X272574Y76406D01*
X272520Y75992D01*
X275484D01*
Y78957D01*
D02*
G37*
G36*
X379875Y83254D02*
X378921Y83128D01*
X378033Y82760D01*
X377270Y82175D01*
X376684Y81412D01*
X376316Y80523D01*
X376190Y79570D01*
X376316Y78616D01*
X376684Y77727D01*
X377270Y76964D01*
X378033Y76379D01*
X378921Y76011D01*
X379875Y75885D01*
X380828Y76011D01*
X381717Y76379D01*
X382480Y76964D01*
X383065Y77727D01*
X383434Y78616D01*
X383559Y79570D01*
X383434Y80523D01*
X383065Y81412D01*
X382480Y82175D01*
X381717Y82760D01*
X380828Y83128D01*
X379875Y83254D01*
D02*
G37*
G36*
X45229D02*
X44276Y83128D01*
X43387Y82760D01*
X42624Y82175D01*
X42039Y81412D01*
X41670Y80523D01*
X41545Y79570D01*
X41670Y78616D01*
X42039Y77727D01*
X42624Y76964D01*
X43387Y76379D01*
X44276Y76011D01*
X45229Y75885D01*
X46183Y76011D01*
X47071Y76379D01*
X47834Y76964D01*
X48420Y77727D01*
X48788Y78616D01*
X48913Y79570D01*
X48788Y80523D01*
X48420Y81412D01*
X47834Y82175D01*
X47071Y82760D01*
X46183Y83128D01*
X45229Y83254D01*
D02*
G37*
G36*
X194254Y80934D02*
X193418Y80824D01*
X192640Y80502D01*
X191971Y79989D01*
X191458Y79320D01*
X191136Y78542D01*
X191026Y77706D01*
X191136Y76871D01*
X191458Y76093D01*
X191971Y75424D01*
X192640Y74911D01*
X193418Y74589D01*
X194254Y74479D01*
X195089Y74589D01*
X195867Y74911D01*
X196536Y75424D01*
X197049Y76093D01*
X197371Y76871D01*
X197481Y77706D01*
X197371Y78542D01*
X197049Y79320D01*
X196536Y79989D01*
X195867Y80502D01*
X195089Y80824D01*
X194254Y80934D01*
D02*
G37*
G36*
X229753Y80334D02*
X228918Y80224D01*
X228140Y79902D01*
X227471Y79389D01*
X226958Y78720D01*
X226636Y77942D01*
X226526Y77106D01*
X226636Y76271D01*
X226958Y75493D01*
X227471Y74824D01*
X228140Y74311D01*
X228918Y73989D01*
X229753Y73879D01*
X230589Y73989D01*
X231367Y74311D01*
X232036Y74824D01*
X232549Y75493D01*
X232871Y76271D01*
X232981Y77106D01*
X232871Y77942D01*
X232549Y78720D01*
X232036Y79389D01*
X231367Y79902D01*
X230589Y80224D01*
X229753Y80334D01*
D02*
G37*
G36*
X203426Y90822D02*
X202591Y90712D01*
X201812Y90390D01*
X201144Y89877D01*
X200631Y89209D01*
X200308Y88430D01*
X200198Y87595D01*
X200308Y86759D01*
X200631Y85981D01*
X201144Y85312D01*
X201812Y84799D01*
X202591Y84477D01*
X203426Y84367D01*
X203739Y84408D01*
X203870Y83921D01*
X203340Y83702D01*
X202671Y83189D01*
X202158Y82520D01*
X201836Y81742D01*
X201726Y80906D01*
X201836Y80071D01*
X202158Y79293D01*
X202671Y78624D01*
X203340Y78111D01*
X204118Y77789D01*
X204954Y77679D01*
X205789Y77789D01*
X206024Y77886D01*
X206482Y77535D01*
X206426Y77106D01*
X206536Y76271D01*
X206858Y75493D01*
X207371Y74824D01*
X208040Y74311D01*
X208818Y73989D01*
X209653Y73879D01*
X210489Y73989D01*
X211267Y74311D01*
X211936Y74824D01*
X212449Y75493D01*
X212771Y76271D01*
X212881Y77106D01*
X212771Y77942D01*
X212449Y78720D01*
X211936Y79389D01*
X211267Y79902D01*
X210489Y80224D01*
X209653Y80334D01*
X208818Y80224D01*
X208583Y80127D01*
X208125Y80478D01*
X208181Y80906D01*
X208071Y81742D01*
X207749Y82520D01*
X207236Y83189D01*
X206567Y83702D01*
X205789Y84024D01*
X204954Y84134D01*
X204640Y84093D01*
X204510Y84580D01*
X205040Y84799D01*
X205708Y85312D01*
X206221Y85981D01*
X206544Y86759D01*
X206654Y87595D01*
X206544Y88430D01*
X206221Y89209D01*
X205708Y89877D01*
X205040Y90390D01*
X204261Y90712D01*
X203426Y90822D01*
D02*
G37*
G36*
X332697Y76468D02*
X329732D01*
Y73504D01*
X330146Y73559D01*
X330997Y73911D01*
X331729Y74472D01*
X332290Y75203D01*
X332642Y76055D01*
X332697Y76468D01*
D02*
G37*
G36*
X328732D02*
X325768D01*
X325822Y76055D01*
X326175Y75203D01*
X326736Y74472D01*
X327467Y73911D01*
X328319Y73559D01*
X328732Y73504D01*
Y76468D01*
D02*
G37*
G36*
X306909Y75779D02*
X303945D01*
Y72815D01*
X304359Y72870D01*
X305210Y73222D01*
X305941Y73783D01*
X306502Y74514D01*
X306855Y75366D01*
X306909Y75779D01*
D02*
G37*
G36*
X302945D02*
X299980D01*
X300035Y75366D01*
X300388Y74514D01*
X300949Y73783D01*
X301680Y73222D01*
X302531Y72870D01*
X302945Y72815D01*
Y75779D01*
D02*
G37*
G36*
X341535Y78621D02*
X340700Y78511D01*
X339921Y78189D01*
X339253Y77676D01*
X338740Y77008D01*
X338418Y76229D01*
X338308Y75394D01*
X338418Y74558D01*
X338740Y73780D01*
X339253Y73111D01*
X339921Y72599D01*
X340700Y72276D01*
X341535Y72166D01*
X342371Y72276D01*
X343149Y72599D01*
X343818Y73111D01*
X344331Y73780D01*
X344653Y74558D01*
X344763Y75394D01*
X344653Y76229D01*
X344331Y77008D01*
X343818Y77676D01*
X343149Y78189D01*
X342371Y78511D01*
X341535Y78621D01*
D02*
G37*
G36*
X279449Y74992D02*
X276484D01*
Y72028D01*
X276898Y72082D01*
X277749Y72435D01*
X278481Y72996D01*
X279042Y73727D01*
X279394Y74578D01*
X279449Y74992D01*
D02*
G37*
G36*
X275484D02*
X272520D01*
X272574Y74578D01*
X272927Y73727D01*
X273488Y72996D01*
X274219Y72435D01*
X275071Y72082D01*
X275484Y72028D01*
Y74992D01*
D02*
G37*
G36*
X246713Y78278D02*
X245877Y78168D01*
X245099Y77846D01*
X244430Y77333D01*
X243917Y76664D01*
X243595Y75886D01*
X243485Y75050D01*
X243595Y74215D01*
X243917Y73437D01*
X244430Y72768D01*
X245099Y72255D01*
X245877Y71933D01*
X246713Y71823D01*
X247548Y71933D01*
X248326Y72255D01*
X248995Y72768D01*
X249508Y73437D01*
X249830Y74215D01*
X249940Y75050D01*
X249830Y75886D01*
X249508Y76664D01*
X248995Y77333D01*
X248326Y77846D01*
X247548Y78168D01*
X246713Y78278D01*
D02*
G37*
G36*
X389875Y83254D02*
X388921Y83128D01*
X388033Y82760D01*
X387270Y82175D01*
X386684Y81412D01*
X386316Y80523D01*
X386191Y79570D01*
X386316Y78616D01*
X386684Y77727D01*
X387270Y76964D01*
X388033Y76379D01*
X388921Y76011D01*
X389875Y75885D01*
X390305Y75942D01*
X390609Y75545D01*
X390485Y75245D01*
X390375Y74410D01*
X390485Y73574D01*
X390807Y72796D01*
X391320Y72127D01*
X391988Y71614D01*
X392767Y71292D01*
X393602Y71182D01*
X394438Y71292D01*
X395216Y71614D01*
X395885Y72127D01*
X396397Y72796D01*
X396720Y73574D01*
X396830Y74410D01*
X396720Y75245D01*
X396397Y76023D01*
X395885Y76692D01*
X395216Y77205D01*
X394438Y77527D01*
X393602Y77637D01*
X393567Y77632D01*
X393216Y78091D01*
X393433Y78616D01*
X393559Y79570D01*
X393433Y80523D01*
X393065Y81412D01*
X392480Y82175D01*
X391717Y82760D01*
X390828Y83128D01*
X389875Y83254D01*
D02*
G37*
G36*
X361221Y75805D02*
X360385Y75695D01*
X359607Y75372D01*
X358938Y74860D01*
X358425Y74191D01*
X358103Y73413D01*
X357993Y72577D01*
X358103Y71742D01*
X358425Y70964D01*
X358938Y70295D01*
X359607Y69782D01*
X360385Y69460D01*
X361221Y69350D01*
X362056Y69460D01*
X362834Y69782D01*
X363503Y70295D01*
X364016Y70964D01*
X364338Y71742D01*
X364448Y72577D01*
X364338Y73413D01*
X364016Y74191D01*
X363503Y74860D01*
X362834Y75372D01*
X362056Y75695D01*
X361221Y75805D01*
D02*
G37*
%LPD*%
D12*
X318405Y351378D02*
D03*
Y362008D02*
D03*
X317126Y343799D02*
D03*
Y333169D02*
D03*
D17*
X182087Y162401D02*
D03*
Y169488D02*
D03*
D25*
X208268Y174803D02*
D03*
X201181D02*
D03*
D27*
X321162Y392947D02*
Y394693D01*
X303955Y331919D02*
Y381613D01*
X305655Y332623D02*
Y364991D01*
X307355Y333327D02*
Y364287D01*
X309055Y334031D02*
Y363583D01*
X313971Y368499D01*
X320467D01*
X327388Y375420D01*
X343635D01*
X307355Y364287D02*
X320188Y377120D01*
X305655Y364991D02*
X319484Y378820D01*
X327035Y387125D02*
X331162Y382998D01*
X323595Y387125D02*
X327035D01*
X319442Y382972D02*
X323595Y387125D01*
X347035D02*
X349468Y384693D01*
X343595Y387125D02*
X347035D01*
X341162Y384693D02*
X343595Y387125D01*
X341162Y384300D02*
Y384693D01*
X339468Y382605D02*
X341162Y384300D01*
X339468Y381252D02*
Y382605D01*
X337035Y378820D02*
X339468Y381252D01*
X333595Y378820D02*
X337035D01*
X331162Y381252D02*
X333595Y378820D01*
X331162Y381252D02*
Y382998D01*
X349468Y381252D02*
Y384693D01*
X334293Y319568D02*
X335688Y320963D01*
X342520Y307087D02*
X350394D01*
X320188Y377120D02*
X337739D01*
X319484Y378820D02*
X321162D01*
X325315Y382972D01*
X357035Y378820D02*
X359468Y381252D01*
X326969Y367182D02*
X330751D01*
X326969D02*
Y368406D01*
X330751Y367182D02*
X333307Y364626D01*
Y361122D02*
Y364626D01*
X368307Y361122D02*
Y365158D01*
X373307Y361122D02*
Y367753D01*
X343635Y375420D02*
X349468Y381252D01*
X355633Y378820D02*
X357035D01*
X343663Y366849D02*
X355633Y378820D01*
X342321Y366849D02*
X343663D01*
X340926Y365455D02*
X342321Y366849D01*
X355315Y380906D02*
Y382972D01*
X342959Y368549D02*
X355315Y380906D01*
X339021Y368549D02*
X342959D01*
X335688Y365217D02*
X339021Y368549D01*
X335688Y355488D02*
Y365217D01*
X341168Y381901D02*
X341836Y382570D01*
X341168Y380548D02*
Y381901D01*
X337739Y377120D02*
X341168Y380548D01*
X335315Y382972D02*
X337431D01*
X345218Y382220D02*
X345315Y382317D01*
X345003Y382220D02*
X345218D01*
X344653Y382570D02*
X345003Y382220D01*
X341836Y382570D02*
X344653D01*
X343307Y364075D02*
X353150Y373917D01*
X356260D01*
X365315Y382972D01*
X345315Y382317D02*
Y382972D01*
X340926Y363741D02*
Y365455D01*
X338307Y361122D02*
X340926Y363741D01*
X303955Y381613D02*
X305315Y382972D01*
Y392972D02*
X309468Y388820D01*
X317035D01*
X321162Y392947D01*
X343307Y361122D02*
Y364075D01*
X315315Y382972D02*
X319442D01*
X375688Y320963D02*
Y322676D01*
X378307Y325295D01*
X374980Y326969D02*
X375926D01*
X373307Y325295D02*
X374980Y326969D01*
X375926D02*
Y329628D01*
X377321Y331023D01*
X381881Y322155D02*
Y328436D01*
X377321Y331023D02*
X379293D01*
X381881Y328436D01*
X368307Y365158D02*
X375315Y372165D01*
Y382972D01*
X373307Y367753D02*
X381496Y375942D01*
Y392664D01*
X372718Y312992D02*
X381881Y322155D01*
X368307Y319571D02*
Y325295D01*
X369785Y315059D02*
X375688Y320963D01*
X173702Y280075D02*
X174256D01*
X179331Y275000D01*
X183661D02*
X183702Y275040D01*
X179331Y275000D02*
X183661D01*
X213702Y279212D02*
Y280075D01*
Y279212D02*
X217913Y275000D01*
X209502D02*
X213702Y279200D01*
Y280075D01*
X257677Y275000D02*
X262008Y279331D01*
X217913Y275000D02*
X257677D01*
X331398Y346162D02*
Y350492D01*
X318405Y348917D02*
Y351378D01*
Y348917D02*
X320158Y347164D01*
X317126Y343799D02*
X320491Y347164D01*
X320969D01*
X320158D02*
X320491D01*
X378307Y356654D02*
Y361122D01*
X353150Y339370D02*
X361024D01*
X323519Y319568D02*
X334293D01*
X322882Y312992D02*
X372718D01*
X303955Y331919D02*
X322882Y312992D01*
X305655Y332623D02*
X323219Y315059D01*
X309055Y334031D02*
X323519Y319568D01*
X320969Y347164D02*
X334252Y333882D01*
X335688Y320963D02*
Y325295D01*
X338307D01*
X345926Y332147D02*
X353150Y339370D01*
X333307Y325295D02*
Y329370D01*
X334252Y330315D01*
X323219Y315059D02*
X369785D01*
X345926Y321200D02*
Y332147D01*
X366603Y317868D02*
X368307Y319571D01*
X307355Y333327D02*
X322814Y317868D01*
X366603D01*
X342626Y325976D02*
X343307Y325295D01*
X342626Y325976D02*
Y331489D01*
X334095Y353895D02*
X335688Y355488D01*
X334095Y340020D02*
Y353895D01*
Y340020D02*
X342626Y331489D01*
X344293Y319568D02*
X345926Y321200D01*
X342321Y319568D02*
X344293D01*
X340688Y321200D02*
X342321Y319568D01*
X340688Y321200D02*
Y329628D01*
X338033Y332283D02*
X340688Y329628D01*
X334252Y332283D02*
X338033D01*
X334252Y330315D02*
Y332283D01*
Y333882D01*
X359468Y381252D02*
Y394693D01*
X357035Y397125D02*
X359468Y394693D01*
X323595Y397125D02*
X357035D01*
X321162Y394693D02*
X323595Y397125D01*
X375335Y398825D02*
X381496Y392664D01*
X315315Y392972D02*
X321168Y398825D01*
X375335D01*
X182087Y169488D02*
Y176772D01*
X186024Y180709D01*
Y182185D01*
X193702Y275196D02*
Y280075D01*
Y275196D02*
X193898Y275000D01*
X183661D02*
X193898D01*
X209502D01*
X195812Y183716D02*
X201181Y178346D01*
Y174803D02*
Y178346D01*
X186024Y182185D02*
X188199D01*
X189730Y183716D01*
X195812D01*
X369094Y347441D02*
X372047D01*
X377756Y341732D01*
X402756D01*
X406693Y337795D01*
X361024Y339370D02*
X369094Y347441D01*
X378307Y356654D01*
D28*
X305315Y382972D02*
D03*
X173702Y270075D02*
D03*
D29*
X305315Y392972D02*
D03*
X315315Y382972D02*
D03*
Y392972D02*
D03*
X325315Y382972D02*
D03*
Y392972D02*
D03*
X335315Y382972D02*
D03*
Y392972D02*
D03*
X345315Y382972D02*
D03*
Y392972D02*
D03*
X355315Y382972D02*
D03*
Y392972D02*
D03*
X365315Y382972D02*
D03*
Y392972D02*
D03*
X375315Y382972D02*
D03*
Y392972D02*
D03*
X55229Y79570D02*
D03*
X45229D02*
D03*
X55229Y89569D02*
D03*
X45229D02*
D03*
X55229Y99569D02*
D03*
X45229D02*
D03*
X55229Y109570D02*
D03*
X45229D02*
D03*
X55229Y119570D02*
D03*
X45229D02*
D03*
X55229Y129569D02*
D03*
X45229D02*
D03*
X55229Y139569D02*
D03*
X45229D02*
D03*
X55229Y149569D02*
D03*
X45229D02*
D03*
X55229Y159570D02*
D03*
X45229D02*
D03*
X55229Y169570D02*
D03*
X45229D02*
D03*
X55229Y179569D02*
D03*
X45229D02*
D03*
X55229Y189569D02*
D03*
X45229D02*
D03*
X55229Y199569D02*
D03*
X45229D02*
D03*
X55229Y209570D02*
D03*
X45229D02*
D03*
X55229Y219569D02*
D03*
X45229D02*
D03*
X55229Y229570D02*
D03*
X45229D02*
D03*
X55229Y239569D02*
D03*
X45229D02*
D03*
X55229Y249570D02*
D03*
X243702Y280075D02*
D03*
Y270075D02*
D03*
X233701Y280075D02*
D03*
Y270075D02*
D03*
X223702Y280075D02*
D03*
Y270075D02*
D03*
X213702Y280075D02*
D03*
Y270075D02*
D03*
X203701Y280075D02*
D03*
Y270075D02*
D03*
X193702Y280075D02*
D03*
Y270075D02*
D03*
X183702Y280075D02*
D03*
Y270075D02*
D03*
X173702Y280075D02*
D03*
X389875Y79570D02*
D03*
X379875D02*
D03*
X389875Y89569D02*
D03*
X379875D02*
D03*
X389875Y99569D02*
D03*
X379875D02*
D03*
X389875Y109570D02*
D03*
X379875D02*
D03*
X389875Y119570D02*
D03*
X379875D02*
D03*
X389875Y129569D02*
D03*
X379875D02*
D03*
X389875Y139569D02*
D03*
X379875D02*
D03*
X389875Y149569D02*
D03*
X379875D02*
D03*
X389875Y159570D02*
D03*
X379875D02*
D03*
X389875Y169570D02*
D03*
X379875D02*
D03*
X389875Y179569D02*
D03*
X379875D02*
D03*
X389875Y189569D02*
D03*
X379875D02*
D03*
X389875Y199569D02*
D03*
X379875D02*
D03*
X389875Y209570D02*
D03*
X379875D02*
D03*
X389875Y219569D02*
D03*
X379875D02*
D03*
X389875Y229570D02*
D03*
X379875D02*
D03*
X389875Y239569D02*
D03*
X379875D02*
D03*
X389875Y249570D02*
D03*
D30*
X45229D02*
D03*
X379875D02*
D03*
D31*
X401968Y392126D02*
D03*
X390945Y403543D02*
D03*
X396063Y398031D02*
D03*
X377953Y302362D02*
D03*
X381496Y407480D02*
D03*
X408268Y388189D02*
D03*
X414961Y387402D02*
D03*
X421654D02*
D03*
X426378Y381890D02*
D03*
X428346Y375197D02*
D03*
X425591Y338583D02*
D03*
X400000Y312205D02*
D03*
X395669Y307874D02*
D03*
X387008Y303543D02*
D03*
X428150Y318799D02*
D03*
X394094Y313779D02*
D03*
X399213Y318110D02*
D03*
X222255Y117624D02*
D03*
X389764Y309055D02*
D03*
X423228Y348425D02*
D03*
X423622Y356299D02*
D03*
X422441Y377165D02*
D03*
X418504Y382283D02*
D03*
X411024Y382677D02*
D03*
X401575Y385827D02*
D03*
X395669Y391732D02*
D03*
X389764Y397638D02*
D03*
X385039Y402559D02*
D03*
X389075Y381791D02*
D03*
X378080Y402401D02*
D03*
X313583Y226083D02*
D03*
X295276Y391732D02*
D03*
Y383858D02*
D03*
Y375984D02*
D03*
Y368110D02*
D03*
Y360236D02*
D03*
Y352362D02*
D03*
Y344488D02*
D03*
Y336614D02*
D03*
X298333Y330505D02*
D03*
X302461Y326476D02*
D03*
X306693Y322441D02*
D03*
X311122Y317618D02*
D03*
X315059Y313287D02*
D03*
X320374Y308957D02*
D03*
X342520Y408169D02*
D03*
X334350Y408268D02*
D03*
X326870Y408169D02*
D03*
X318898Y408268D02*
D03*
X250984Y225984D02*
D03*
X362205Y403543D02*
D03*
X354331D02*
D03*
X338583D02*
D03*
X330709D02*
D03*
X322835D02*
D03*
X315945Y402559D02*
D03*
X309555D02*
D03*
X108194Y109107D02*
D03*
X301083Y320472D02*
D03*
X314469Y306988D02*
D03*
X293307Y103150D02*
D03*
X370177Y302461D02*
D03*
X362500Y302362D02*
D03*
X354331D02*
D03*
X346358Y302264D02*
D03*
X338681Y301969D02*
D03*
X330807Y302264D02*
D03*
X322244Y303051D02*
D03*
X309154Y311811D02*
D03*
X304921Y316732D02*
D03*
X296555Y324705D02*
D03*
X292323Y331201D02*
D03*
X290650Y340453D02*
D03*
Y348327D02*
D03*
X290453Y356299D02*
D03*
X290551Y363976D02*
D03*
X290453Y372047D02*
D03*
Y379823D02*
D03*
Y387795D02*
D03*
X192304Y170272D02*
D03*
X217519Y140354D02*
D03*
X289370Y309055D02*
D03*
X374016Y307087D02*
D03*
X366142D02*
D03*
X358268D02*
D03*
X350394D02*
D03*
X342520D02*
D03*
X334646D02*
D03*
X326772D02*
D03*
X356806Y345480D02*
D03*
X327165Y367618D02*
D03*
X155905Y269390D02*
D03*
X215059Y256594D02*
D03*
X268091Y264465D02*
D03*
X61221Y254626D02*
D03*
X85433Y233858D02*
D03*
X97933Y243307D02*
D03*
X61614Y83760D02*
D03*
X70571Y98130D02*
D03*
X131693Y81693D02*
D03*
X175295Y98327D02*
D03*
X207185Y101083D02*
D03*
X241350Y80516D02*
D03*
X251378Y84252D02*
D03*
X275984Y75492D02*
D03*
X303445Y76279D02*
D03*
X329232Y76968D02*
D03*
X364567Y108563D02*
D03*
X196457Y126476D02*
D03*
X169390Y87106D02*
D03*
X137697Y93405D02*
D03*
X81595Y90748D02*
D03*
X123130Y116929D02*
D03*
X74016Y118504D02*
D03*
X96161Y143701D02*
D03*
X64370Y223622D02*
D03*
X82579Y193307D02*
D03*
X97441Y195571D02*
D03*
X203346Y186024D02*
D03*
X169980Y210039D02*
D03*
X148622Y224410D02*
D03*
X110039Y222933D02*
D03*
X108563Y238681D02*
D03*
X112894Y251969D02*
D03*
X142913Y250492D02*
D03*
X197441Y252756D02*
D03*
X378740Y275000D02*
D03*
X320276Y267913D02*
D03*
X361319Y262402D02*
D03*
X330610Y257283D02*
D03*
X242618Y98032D02*
D03*
X338287Y352854D02*
D03*
X134016Y215154D02*
D03*
X90416Y170754D02*
D03*
X147127Y132772D02*
D03*
X179115Y125980D02*
D03*
X137481Y205213D02*
D03*
X175375Y214957D02*
D03*
X196044Y136020D02*
D03*
X192993Y197312D02*
D03*
X43471Y274228D02*
D03*
X68174Y251731D02*
D03*
Y265231D02*
D03*
X137580Y182280D02*
D03*
X350785Y239772D02*
D03*
X105709Y95177D02*
D03*
X207855Y240941D02*
D03*
X289745Y83559D02*
D03*
X276064Y104524D02*
D03*
X204508Y124307D02*
D03*
X358353Y84907D02*
D03*
X151851Y96650D02*
D03*
X175854Y147307D02*
D03*
X209653Y77106D02*
D03*
X231587Y98623D02*
D03*
X204954Y80906D02*
D03*
X203426Y87595D02*
D03*
X97135Y119007D02*
D03*
X182954Y93205D02*
D03*
X229753Y77106D02*
D03*
X212776Y95370D02*
D03*
X246713Y75050D02*
D03*
X161694Y204918D02*
D03*
X143387Y269189D02*
D03*
X163453Y241066D02*
D03*
X167008Y257969D02*
D03*
X100276Y251670D02*
D03*
X154811Y132385D02*
D03*
X165040Y115055D02*
D03*
X125867Y135429D02*
D03*
X182166Y139662D02*
D03*
X120674Y246731D02*
D03*
X139654Y193115D02*
D03*
X139453Y236006D02*
D03*
X199674Y197431D02*
D03*
X69854Y241807D02*
D03*
X85217Y175587D02*
D03*
X362498Y244496D02*
D03*
X77737Y168697D02*
D03*
X172754Y161706D02*
D03*
X151260Y256591D02*
D03*
X201950Y207181D02*
D03*
X339548Y256000D02*
D03*
X351332Y266906D02*
D03*
X108544Y230311D02*
D03*
X370574Y261331D02*
D03*
X75753Y109107D02*
D03*
X73013Y80508D02*
D03*
X103721Y81788D02*
D03*
X70354Y91106D02*
D03*
X88583Y96063D02*
D03*
X335906Y87988D02*
D03*
X318288Y102949D02*
D03*
X341535Y75394D02*
D03*
X361221Y72577D02*
D03*
X358446Y99012D02*
D03*
X369094Y79331D02*
D03*
X156477Y201079D02*
D03*
X148453Y176806D02*
D03*
X161407Y192132D02*
D03*
X156189Y175399D02*
D03*
X168879Y193992D02*
D03*
X163612Y175651D02*
D03*
X175554Y177306D02*
D03*
X295662Y300691D02*
D03*
X172045Y172415D02*
D03*
X167312Y166638D02*
D03*
X306477Y99406D02*
D03*
X274489Y85036D02*
D03*
X172054Y155508D02*
D03*
X234460Y89867D02*
D03*
X167418Y151571D02*
D03*
X393602Y74410D02*
D03*
X189253Y100806D02*
D03*
X194254Y77706D02*
D03*
X172127Y132280D02*
D03*
X168977Y122634D02*
D03*
X163375Y127956D02*
D03*
X152792Y154606D02*
D03*
X151268Y123427D02*
D03*
X138957Y138776D02*
D03*
X148757Y158936D02*
D03*
X155853Y167306D02*
D03*
X105892Y176186D02*
D03*
X66910Y149209D02*
D03*
X67012Y140948D02*
D03*
X114750Y151185D02*
D03*
X74574Y139431D02*
D03*
X126359Y151768D02*
D03*
X65354Y191535D02*
D03*
X120749Y156394D02*
D03*
X103053Y185406D02*
D03*
X132656Y196650D02*
D03*
X147353Y169406D02*
D03*
X381791Y349409D02*
D03*
X363976Y334350D02*
D03*
X403543Y322835D02*
D03*
X405118Y317323D02*
D03*
X419685Y339370D02*
D03*
X409842Y322835D02*
D03*
X421260Y333465D02*
D03*
X381890Y307087D02*
D03*
X415748Y328740D02*
D03*
X409449D02*
D03*
X415354Y334646D02*
D03*
X428346Y367717D02*
D03*
Y360236D02*
D03*
Y352362D02*
D03*
Y344882D02*
D03*
X423228Y371260D02*
D03*
Y363779D02*
D03*
X370079Y403543D02*
D03*
X366043Y408169D02*
D03*
X358071D02*
D03*
X350394D02*
D03*
X357166Y239268D02*
D03*
X357382Y227756D02*
D03*
X367963Y371408D02*
D03*
X262008Y279331D02*
D03*
X284350Y255709D02*
D03*
X277658Y269193D02*
D03*
X293898Y253346D02*
D03*
X289961Y271063D02*
D03*
X337795Y344193D02*
D03*
X406693Y337795D02*
D03*
X325787Y326575D02*
D03*
X329521Y331052D02*
D03*
X244094Y225984D02*
D03*
X218701Y213976D02*
D03*
X290740Y395661D02*
D03*
X298713Y397138D02*
D03*
X298228Y405512D02*
D03*
X293307Y401575D02*
D03*
X303150D02*
D03*
X182087Y190551D02*
D03*
X186024Y182185D02*
D03*
X197353Y166407D02*
D03*
X192993Y180016D02*
D03*
X117008Y145370D02*
D03*
X382579Y334055D02*
D03*
X385335Y317028D02*
D03*
X430413Y407972D02*
D03*
X371063Y240748D02*
D03*
X217553Y240207D02*
D03*
X147225Y199701D02*
D03*
X150965Y205902D02*
D03*
X152559Y214961D02*
D03*
X165264Y160933D02*
D03*
X161718Y149316D02*
D03*
X157776Y161516D02*
D03*
X123721Y255807D02*
D03*
X200554Y161546D02*
D03*
X207776Y149803D02*
D03*
X200591Y153937D02*
D03*
X212598Y145177D02*
D03*
X234922Y254721D02*
D03*
X245177Y258661D02*
D03*
X121358Y232086D02*
D03*
X224992Y98918D02*
D03*
D32*
X326982Y346170D02*
D03*
X331398Y350492D02*
D03*
Y346162D02*
D03*
X326982Y347744D02*
D03*
D34*
X378307Y325295D02*
D03*
X373307D02*
D03*
X368307D02*
D03*
X363307D02*
D03*
X358307D02*
D03*
X353307D02*
D03*
X348307D02*
D03*
X343307D02*
D03*
X338307D02*
D03*
X333307D02*
D03*
X378307Y361122D02*
D03*
X373307D02*
D03*
X368307D02*
D03*
X363307D02*
D03*
X358307D02*
D03*
X353307D02*
D03*
X348307D02*
D03*
X343307D02*
D03*
X338307D02*
D03*
X333307D02*
D03*
M02*
