G04 Layer_Color=65535*
%FSLAX25Y25*%
%MOIN*%
G70*
G01*
G75*
%ADD27C,0.01000*%
%ADD35C,0.00984*%
%ADD36C,0.02362*%
%ADD37C,0.00787*%
%ADD38C,0.00394*%
%ADD39C,0.00197*%
%ADD40C,0.00800*%
D27*
X295468Y401416D02*
Y407414D01*
X298467D01*
X299466Y406414D01*
Y404415D01*
X298467Y403415D01*
X295468D01*
X304465Y401416D02*
Y407414D01*
X301466Y404415D01*
X305465D01*
X318874Y372761D02*
Y367763D01*
X319874Y366763D01*
X321873D01*
X322873Y367763D01*
Y372761D01*
X324872Y367763D02*
X325872Y366763D01*
X327871D01*
X328871Y367763D01*
Y371761D01*
X327871Y372761D01*
X325872D01*
X324872Y371761D01*
Y370762D01*
X325872Y369762D01*
X328871D01*
X337795Y346850D02*
Y352849D01*
X340794D01*
X341794Y351849D01*
Y349849D01*
X340794Y348850D01*
X337795D01*
X339795D02*
X341794Y346850D01*
X347792D02*
X343793D01*
X347792Y350849D01*
Y351849D01*
X346792Y352849D01*
X344793D01*
X343793Y351849D01*
X349791D02*
X350791Y352849D01*
X352790D01*
X353790Y351849D01*
Y350849D01*
X352790Y349849D01*
X351791D01*
X352790D01*
X353790Y348850D01*
Y347850D01*
X352790Y346850D01*
X350791D01*
X349791Y347850D01*
X346654Y297244D02*
Y291246D01*
X343654D01*
X342655Y292246D01*
Y294245D01*
X343654Y295245D01*
X346654D01*
X344654D02*
X342655Y297244D01*
X336657D02*
X340655D01*
X336657Y293245D01*
Y292246D01*
X337656Y291246D01*
X339656D01*
X340655Y292246D01*
X330659Y297244D02*
X334657D01*
X330659Y293245D01*
Y292246D01*
X331658Y291246D01*
X333658D01*
X334657Y292246D01*
X337795Y358661D02*
Y364660D01*
X340794D01*
X341794Y363660D01*
Y361660D01*
X340794Y360661D01*
X337795D01*
X339795D02*
X341794Y358661D01*
X347792D02*
X343793D01*
X347792Y362660D01*
Y363660D01*
X346792Y364660D01*
X344793D01*
X343793Y363660D01*
X349791Y358661D02*
X351791D01*
X350791D01*
Y364660D01*
X349791Y363660D01*
X340551Y301575D02*
X334553D01*
Y304574D01*
X335553Y305574D01*
X337552D01*
X338552Y304574D01*
Y301575D01*
Y303574D02*
X340551Y305574D01*
Y311572D02*
Y307573D01*
X336553Y311572D01*
X335553D01*
X334553Y310572D01*
Y308573D01*
X335553Y307573D01*
Y313571D02*
X334553Y314571D01*
Y316570D01*
X335553Y317570D01*
X339551D01*
X340551Y316570D01*
Y314571D01*
X339551Y313571D01*
X335553D01*
X363386Y353543D02*
X357388D01*
Y356542D01*
X358387Y357542D01*
X360387D01*
X361386Y356542D01*
Y353543D01*
Y355543D02*
X363386Y357542D01*
Y359541D02*
Y361541D01*
Y360541D01*
X357388D01*
X358387Y359541D01*
X362386Y364540D02*
X363386Y365539D01*
Y367539D01*
X362386Y368538D01*
X358387D01*
X357388Y367539D01*
Y365539D01*
X358387Y364540D01*
X359387D01*
X360387Y365539D01*
Y368538D01*
X354724Y301575D02*
X348726D01*
Y304574D01*
X349726Y305574D01*
X351725D01*
X352725Y304574D01*
Y301575D01*
Y303574D02*
X354724Y305574D01*
Y307573D02*
Y309572D01*
Y308573D01*
X348726D01*
X349726Y307573D01*
Y312571D02*
X348726Y313571D01*
Y315570D01*
X349726Y316570D01*
X350726D01*
X351725Y315570D01*
X352725Y316570D01*
X353725D01*
X354724Y315570D01*
Y313571D01*
X353725Y312571D01*
X352725D01*
X351725Y313571D01*
X350726Y312571D01*
X349726D01*
X351725Y313571D02*
Y315570D01*
X337795Y364173D02*
Y370171D01*
X340794D01*
X341794Y369172D01*
Y367172D01*
X340794Y366173D01*
X337795D01*
X339795D02*
X341794Y364173D01*
X343793D02*
X345793D01*
X344793D01*
Y370171D01*
X343793Y369172D01*
X348792Y370171D02*
X352790D01*
Y369172D01*
X348792Y365173D01*
Y364173D01*
X344094Y352756D02*
Y358754D01*
X347094D01*
X348093Y357754D01*
Y355755D01*
X347094Y354755D01*
X344094D01*
X346094D02*
X348093Y352756D01*
X350093D02*
X352092D01*
X351092D01*
Y358754D01*
X350093Y357754D01*
X359090Y358754D02*
X357090Y357754D01*
X355091Y355755D01*
Y353756D01*
X356091Y352756D01*
X358090D01*
X359090Y353756D01*
Y354755D01*
X358090Y355755D01*
X355091D01*
X385340Y366142D02*
X391339D01*
Y370140D01*
Y376138D02*
Y372140D01*
X387340Y376138D01*
X386340D01*
X385340Y375139D01*
Y373140D01*
X386340Y372140D01*
X403057Y332283D02*
X409055D01*
Y336282D01*
Y338281D02*
Y340281D01*
Y339281D01*
X403057D01*
X404057Y338281D01*
X412506Y356299D02*
X418504D01*
Y359298D01*
X417504Y360298D01*
X413506D01*
X412506Y359298D01*
Y356299D01*
X418504Y366296D02*
Y362297D01*
X414505Y366296D01*
X413506D01*
X412506Y365296D01*
Y363297D01*
X413506Y362297D01*
X397545Y322835D02*
X403543D01*
Y325834D01*
X402544Y326833D01*
X398545D01*
X397545Y325834D01*
Y322835D01*
X403543Y328833D02*
Y330832D01*
Y329832D01*
X397545D01*
X398545Y328833D01*
X344156Y344368D02*
X343157Y345368D01*
X341157D01*
X340158Y344368D01*
Y340370D01*
X341157Y339370D01*
X343157D01*
X344156Y340370D01*
X346156Y344368D02*
X347155Y345368D01*
X349155D01*
X350154Y344368D01*
Y343369D01*
X349155Y342369D01*
X348155D01*
X349155D01*
X350154Y341369D01*
Y340370D01*
X349155Y339370D01*
X347155D01*
X346156Y340370D01*
X355153Y339370D02*
Y345368D01*
X352154Y342369D01*
X356152D01*
X342246Y331164D02*
X341246Y330164D01*
Y328165D01*
X342246Y327165D01*
X346244D01*
X347244Y328165D01*
Y330164D01*
X346244Y331164D01*
X342246Y333163D02*
X341246Y334163D01*
Y336162D01*
X342246Y337162D01*
X343245D01*
X344245Y336162D01*
Y335163D01*
Y336162D01*
X345245Y337162D01*
X346244D01*
X347244Y336162D01*
Y334163D01*
X346244Y333163D01*
X342246Y339161D02*
X341246Y340161D01*
Y342161D01*
X342246Y343160D01*
X343245D01*
X344245Y342161D01*
Y341161D01*
Y342161D01*
X345245Y343160D01*
X346244D01*
X347244Y342161D01*
Y340161D01*
X346244Y339161D01*
X341007Y379014D02*
X340007Y380014D01*
X338008D01*
X337008Y379014D01*
Y375015D01*
X338008Y374016D01*
X340007D01*
X341007Y375015D01*
X343006Y379014D02*
X344006Y380014D01*
X346005D01*
X347005Y379014D01*
Y378014D01*
X346005Y377015D01*
X345005D01*
X346005D01*
X347005Y376015D01*
Y375015D01*
X346005Y374016D01*
X344006D01*
X343006Y375015D01*
X353003Y374016D02*
X349004D01*
X353003Y378014D01*
Y379014D01*
X352003Y380014D01*
X350004D01*
X349004Y379014D01*
X323684Y380983D02*
X322684Y381982D01*
X320685D01*
X319685Y380983D01*
Y376984D01*
X320685Y375984D01*
X322684D01*
X323684Y376984D01*
X325683Y380983D02*
X326683Y381982D01*
X328682D01*
X329682Y380983D01*
Y379983D01*
X328682Y378983D01*
X327682D01*
X328682D01*
X329682Y377984D01*
Y376984D01*
X328682Y375984D01*
X326683D01*
X325683Y376984D01*
X331681Y375984D02*
X333681D01*
X332681D01*
Y381982D01*
X331681Y380983D01*
X367049Y339432D02*
X366049Y338432D01*
Y336433D01*
X367049Y335433D01*
X371048D01*
X372047Y336433D01*
Y338432D01*
X371048Y339432D01*
X367049Y341431D02*
X366049Y342431D01*
Y344430D01*
X367049Y345430D01*
X368049D01*
X369048Y344430D01*
Y343430D01*
Y344430D01*
X370048Y345430D01*
X371048D01*
X372047Y344430D01*
Y342431D01*
X371048Y341431D01*
X367049Y347429D02*
X366049Y348429D01*
Y350428D01*
X367049Y351428D01*
X371048D01*
X372047Y350428D01*
Y348429D01*
X371048Y347429D01*
X367049D01*
X379450Y339727D02*
X378451Y338727D01*
Y336728D01*
X379450Y335728D01*
X383449D01*
X384449Y336728D01*
Y338727D01*
X383449Y339727D01*
X384449Y345725D02*
Y341726D01*
X380450Y345725D01*
X379450D01*
X378451Y344725D01*
Y342726D01*
X379450Y341726D01*
X383449Y347724D02*
X384449Y348724D01*
Y350724D01*
X383449Y351723D01*
X379450D01*
X378451Y350724D01*
Y348724D01*
X379450Y347724D01*
X380450D01*
X381450Y348724D01*
Y351723D01*
X371322Y366022D02*
X370322Y367022D01*
X368322D01*
X367323Y366022D01*
Y362023D01*
X368322Y361024D01*
X370322D01*
X371322Y362023D01*
X377320Y361024D02*
X373321D01*
X377320Y365022D01*
Y366022D01*
X376320Y367022D01*
X374321D01*
X373321Y366022D01*
X379319D02*
X380319Y367022D01*
X382318D01*
X383318Y366022D01*
Y365022D01*
X382318Y364023D01*
X383318Y363023D01*
Y362023D01*
X382318Y361024D01*
X380319D01*
X379319Y362023D01*
Y363023D01*
X380319Y364023D01*
X379319Y365022D01*
Y366022D01*
X380319Y364023D02*
X382318D01*
X359569Y302030D02*
X358569Y301030D01*
Y299031D01*
X359569Y298031D01*
X363567D01*
X364567Y299031D01*
Y301030D01*
X363567Y302030D01*
X364567Y308028D02*
Y304030D01*
X360568Y308028D01*
X359569D01*
X358569Y307029D01*
Y305029D01*
X359569Y304030D01*
X358569Y310028D02*
Y314026D01*
X359569D01*
X363567Y310028D01*
X364567D01*
X368230Y303999D02*
X367230Y302999D01*
Y301000D01*
X368230Y300000D01*
X372229D01*
X373228Y301000D01*
Y302999D01*
X372229Y303999D01*
X373228Y309997D02*
Y305998D01*
X369230Y309997D01*
X368230D01*
X367230Y308997D01*
Y306998D01*
X368230Y305998D01*
X367230Y315995D02*
X368230Y313996D01*
X370229Y311996D01*
X372229D01*
X373228Y312996D01*
Y314995D01*
X372229Y315995D01*
X371229D01*
X370229Y314995D01*
Y311996D01*
X360298Y378620D02*
X359298Y379620D01*
X357299D01*
X356299Y378620D01*
Y374622D01*
X357299Y373622D01*
X359298D01*
X360298Y374622D01*
X366296Y373622D02*
X362297D01*
X366296Y377621D01*
Y378620D01*
X365296Y379620D01*
X363297D01*
X362297Y378620D01*
X372294Y379620D02*
X368295D01*
Y376621D01*
X370295Y377621D01*
X371294D01*
X372294Y376621D01*
Y374622D01*
X371294Y373622D01*
X369295D01*
X368295Y374622D01*
X378860Y306361D02*
X377860Y305361D01*
Y303362D01*
X378860Y302362D01*
X382859D01*
X383858Y303362D01*
Y305361D01*
X382859Y306361D01*
X383858Y312359D02*
Y308360D01*
X379860Y312359D01*
X378860D01*
X377860Y311359D01*
Y309360D01*
X378860Y308360D01*
X383858Y317357D02*
X377860D01*
X380859Y314358D01*
Y318357D01*
X303999Y371140D02*
X302999Y372140D01*
X301000D01*
X300000Y371140D01*
Y367141D01*
X301000Y366142D01*
X302999D01*
X303999Y367141D01*
X309997Y366142D02*
X305998D01*
X309997Y370140D01*
Y371140D01*
X308997Y372140D01*
X306998D01*
X305998Y371140D01*
X311996D02*
X312996Y372140D01*
X314995D01*
X315995Y371140D01*
Y370140D01*
X314995Y369141D01*
X313996D01*
X314995D01*
X315995Y368141D01*
Y367141D01*
X314995Y366142D01*
X312996D01*
X311996Y367141D01*
X322503Y328620D02*
X321503Y329620D01*
X319504D01*
X318504Y328620D01*
Y324622D01*
X319504Y323622D01*
X321503D01*
X322503Y324622D01*
X328501Y323622D02*
X324502D01*
X328501Y327621D01*
Y328620D01*
X327501Y329620D01*
X325502D01*
X324502Y328620D01*
X334499Y323622D02*
X330500D01*
X334499Y327621D01*
Y328620D01*
X333499Y329620D01*
X331500D01*
X330500Y328620D01*
X315628Y319033D02*
X316628Y320033D01*
Y322032D01*
X315628Y323031D01*
X311630D01*
X310630Y322032D01*
Y320033D01*
X311630Y319033D01*
X310630Y313035D02*
Y317033D01*
X314629Y313035D01*
X315628D01*
X316628Y314034D01*
Y316034D01*
X315628Y317033D01*
X310630Y311035D02*
Y309036D01*
Y310036D01*
X316628D01*
X315628Y311035D01*
X297364Y344156D02*
X296364Y343157D01*
Y341157D01*
X297364Y340158D01*
X301362D01*
X302362Y341157D01*
Y343157D01*
X301362Y344156D01*
X302362Y350154D02*
Y346156D01*
X298363Y350154D01*
X297364D01*
X296364Y349155D01*
Y347155D01*
X297364Y346156D01*
Y352154D02*
X296364Y353153D01*
Y355153D01*
X297364Y356152D01*
X301362D01*
X302362Y355153D01*
Y353153D01*
X301362Y352154D01*
X297364D01*
X311537Y346912D02*
X310537Y345912D01*
Y343913D01*
X311537Y342913D01*
X315536D01*
X316535Y343913D01*
Y345912D01*
X315536Y346912D01*
X316535Y348911D02*
Y350911D01*
Y349911D01*
X310537D01*
X311537Y348911D01*
X315536Y353910D02*
X316535Y354909D01*
Y356909D01*
X315536Y357909D01*
X311537D01*
X310537Y356909D01*
Y354909D01*
X311537Y353910D01*
X312537D01*
X313536Y354909D01*
Y357909D01*
X163918Y288437D02*
Y294435D01*
X166917D01*
X167917Y293436D01*
Y291436D01*
X166917Y290437D01*
X163918D01*
X169916Y293436D02*
X170916Y294435D01*
X172915D01*
X173915Y293436D01*
Y292436D01*
X172915Y291436D01*
X171915D01*
X172915D01*
X173915Y290437D01*
Y289437D01*
X172915Y288437D01*
X170916D01*
X169916Y289437D01*
X231674Y93593D02*
Y88594D01*
X232674Y87595D01*
X234673D01*
X235673Y88594D01*
Y93593D01*
X237672D02*
X241671D01*
Y92593D01*
X237672Y88594D01*
Y87595D01*
X93879Y258947D02*
Y253949D01*
X94878Y252949D01*
X96878D01*
X97877Y253949D01*
Y258947D01*
X103876D02*
X101876Y257947D01*
X99877Y255948D01*
Y253949D01*
X100876Y252949D01*
X102876D01*
X103876Y253949D01*
Y254948D01*
X102876Y255948D01*
X99877D01*
X357560Y244872D02*
Y239874D01*
X358559Y238874D01*
X360559D01*
X361559Y239874D01*
Y244872D01*
X367557D02*
X363558D01*
Y241873D01*
X365557Y242873D01*
X366557D01*
X367557Y241873D01*
Y239874D01*
X366557Y238874D01*
X364558D01*
X363558Y239874D01*
X93879Y101467D02*
Y96468D01*
X94878Y95469D01*
X96878D01*
X97877Y96468D01*
Y101467D01*
X102876Y95469D02*
Y101467D01*
X99877Y98468D01*
X103876D01*
X233347Y256585D02*
Y251586D01*
X234347Y250587D01*
X236346D01*
X237346Y251586D01*
Y256585D01*
X239345Y255585D02*
X240345Y256585D01*
X242344D01*
X243344Y255585D01*
Y254586D01*
X242344Y253586D01*
X241345D01*
X242344D01*
X243344Y252586D01*
Y251586D01*
X242344Y250587D01*
X240345D01*
X239345Y251586D01*
X357954Y94577D02*
Y89579D01*
X358953Y88579D01*
X360952D01*
X361952Y89579D01*
Y94577D01*
X367950Y88579D02*
X363951D01*
X367950Y92578D01*
Y93577D01*
X366951Y94577D01*
X364951D01*
X363951Y93577D01*
X134851Y195496D02*
Y190498D01*
X135851Y189498D01*
X137850D01*
X138850Y190498D01*
Y195496D01*
X140849Y189498D02*
X142849D01*
X141849D01*
Y195496D01*
X140849Y194496D01*
X93879Y107280D02*
Y113278D01*
X96878D01*
X97877Y112278D01*
Y110279D01*
X96878Y109279D01*
X93879D01*
X95878D02*
X97877Y107280D01*
X99877D02*
X101876D01*
X100876D01*
Y113278D01*
X99877Y112278D01*
X108874Y113278D02*
X104875D01*
Y110279D01*
X106875Y111278D01*
X107874D01*
X108874Y110279D01*
Y108279D01*
X107874Y107280D01*
X105875D01*
X104875Y108279D01*
X298603Y71847D02*
Y77845D01*
X301602D01*
X302602Y76845D01*
Y74846D01*
X301602Y73846D01*
X298603D01*
X300602D02*
X302602Y71847D01*
X304601D02*
X306600D01*
X305601D01*
Y77845D01*
X304601Y76845D01*
X309599D02*
X310599Y77845D01*
X312599D01*
X313598Y76845D01*
Y75845D01*
X312599Y74846D01*
X311599D01*
X312599D01*
X313598Y73846D01*
Y72846D01*
X312599Y71847D01*
X310599D01*
X309599Y72846D01*
X271044Y252949D02*
Y258947D01*
X274043D01*
X275043Y257947D01*
Y255948D01*
X274043Y254948D01*
X271044D01*
X273043D02*
X275043Y252949D01*
X277042D02*
X279042D01*
X278042D01*
Y258947D01*
X277042Y257947D01*
X282041Y252949D02*
X284040D01*
X283040D01*
Y258947D01*
X282041Y257947D01*
X95454Y115632D02*
Y121631D01*
X98453D01*
X99452Y120631D01*
Y118632D01*
X98453Y117632D01*
X95454D01*
X97453D02*
X99452Y115632D01*
X101452D02*
X103451D01*
X102451D01*
Y121631D01*
X101452Y120631D01*
X109449Y115632D02*
Y121631D01*
X106450Y118632D01*
X110449D01*
X298603Y83658D02*
Y89656D01*
X301602D01*
X302602Y88656D01*
Y86657D01*
X301602Y85657D01*
X298603D01*
X300602D02*
X302602Y83658D01*
X304601D02*
X306600D01*
X305601D01*
Y89656D01*
X304601Y88656D01*
X313598Y83658D02*
X309599D01*
X313598Y87656D01*
Y88656D01*
X312599Y89656D01*
X310599D01*
X309599Y88656D01*
X271044Y245075D02*
Y251073D01*
X274043D01*
X275043Y250073D01*
Y248074D01*
X274043Y247074D01*
X271044D01*
X273043D02*
X275043Y245075D01*
X277042D02*
X279042D01*
X278042D01*
Y251073D01*
X277042Y250073D01*
X282041D02*
X283040Y251073D01*
X285039D01*
X286039Y250073D01*
Y246075D01*
X285039Y245075D01*
X283040D01*
X282041Y246075D01*
Y250073D01*
X235611Y115154D02*
Y121152D01*
X238610D01*
X239610Y120152D01*
Y118153D01*
X238610Y117153D01*
X235611D01*
X237610D02*
X239610Y115154D01*
X241609Y116153D02*
X242609Y115154D01*
X244608D01*
X245608Y116153D01*
Y120152D01*
X244608Y121152D01*
X242609D01*
X241609Y120152D01*
Y119152D01*
X242609Y118153D01*
X245608D01*
X141123Y260823D02*
Y266821D01*
X144122D01*
X145122Y265821D01*
Y263822D01*
X144122Y262822D01*
X141123D01*
X143122D02*
X145122Y260823D01*
X147121Y265821D02*
X148120Y266821D01*
X150120D01*
X151120Y265821D01*
Y264822D01*
X150120Y263822D01*
X151120Y262822D01*
Y261823D01*
X150120Y260823D01*
X148120D01*
X147121Y261823D01*
Y262822D01*
X148120Y263822D01*
X147121Y264822D01*
Y265821D01*
X148120Y263822D02*
X150120D01*
X306477Y245075D02*
Y251073D01*
X309476D01*
X310476Y250073D01*
Y248074D01*
X309476Y247074D01*
X306477D01*
X308476D02*
X310476Y245075D01*
X312475Y251073D02*
X316474D01*
Y250073D01*
X312475Y246075D01*
Y245075D01*
X219863Y115154D02*
Y121152D01*
X222862D01*
X223862Y120152D01*
Y118153D01*
X222862Y117153D01*
X219863D01*
X221862D02*
X223862Y115154D01*
X229860Y121152D02*
X227860Y120152D01*
X225861Y118153D01*
Y116153D01*
X226861Y115154D01*
X228860D01*
X229860Y116153D01*
Y117153D01*
X228860Y118153D01*
X225861D01*
X204115Y115154D02*
Y121152D01*
X207114D01*
X208114Y120152D01*
Y118153D01*
X207114Y117153D01*
X204115D01*
X206114D02*
X208114Y115154D01*
X214112Y121152D02*
X210113D01*
Y118153D01*
X212112Y119152D01*
X213112D01*
X214112Y118153D01*
Y116153D01*
X213112Y115154D01*
X211113D01*
X210113Y116153D01*
X141123Y237201D02*
Y243199D01*
X144122D01*
X145122Y242199D01*
Y240200D01*
X144122Y239200D01*
X141123D01*
X143122D02*
X145122Y237201D01*
X150120D02*
Y243199D01*
X147121Y240200D01*
X151120D01*
X141123Y249012D02*
Y255010D01*
X144122D01*
X145122Y254010D01*
Y252011D01*
X144122Y251011D01*
X141123D01*
X143122D02*
X145122Y249012D01*
X147121Y254010D02*
X148120Y255010D01*
X150120D01*
X151120Y254010D01*
Y253011D01*
X150120Y252011D01*
X149120D01*
X150120D01*
X151120Y251011D01*
Y250012D01*
X150120Y249012D01*
X148120D01*
X147121Y250012D01*
X306477Y256886D02*
Y262884D01*
X309476D01*
X310476Y261884D01*
Y259885D01*
X309476Y258885D01*
X306477D01*
X308476D02*
X310476Y256886D01*
X316474D02*
X312475D01*
X316474Y260885D01*
Y261884D01*
X315474Y262884D01*
X313475D01*
X312475Y261884D01*
X330906Y257185D02*
X336904D01*
Y254186D01*
X335904Y253186D01*
X333905D01*
X332905Y254186D01*
Y257185D01*
Y255186D02*
X330906Y253186D01*
Y251187D02*
Y249188D01*
Y250187D01*
X336904D01*
X335904Y251187D01*
X40335Y265055D02*
Y271053D01*
X43334D01*
X44334Y270054D01*
Y268054D01*
X43334Y267055D01*
X40335D01*
X50332Y265055D02*
X46333D01*
X50332Y269054D01*
Y270054D01*
X49332Y271053D01*
X47333D01*
X46333Y270054D01*
X380001Y264268D02*
Y270266D01*
X383000D01*
X383999Y269266D01*
Y267267D01*
X383000Y266267D01*
X380001D01*
X385999Y264268D02*
X387998D01*
X386999D01*
Y270266D01*
X385999Y269266D01*
X87419Y233652D02*
X86419Y234652D01*
X84420D01*
X83420Y233652D01*
Y229653D01*
X84420Y228654D01*
X86419D01*
X87419Y229653D01*
X89418Y228654D02*
X91417D01*
X90418D01*
Y234652D01*
X89418Y233652D01*
X94416D02*
X95416Y234652D01*
X97416D01*
X98415Y233652D01*
Y232652D01*
X97416Y231653D01*
X98415Y230653D01*
Y229653D01*
X97416Y228654D01*
X95416D01*
X94416Y229653D01*
Y230653D01*
X95416Y231653D01*
X94416Y232652D01*
Y233652D01*
X95416Y231653D02*
X97416D01*
X182525Y98678D02*
X181526Y99678D01*
X179526D01*
X178527Y98678D01*
Y94679D01*
X179526Y93680D01*
X181526D01*
X182525Y94679D01*
X184525Y93680D02*
X186524D01*
X185524D01*
Y99678D01*
X184525Y98678D01*
X193522Y99678D02*
X189523D01*
Y96679D01*
X191523Y97678D01*
X192522D01*
X193522Y96679D01*
Y94679D01*
X192522Y93680D01*
X190523D01*
X189523Y94679D01*
X101814Y210703D02*
X100815Y211703D01*
X98815D01*
X97816Y210703D01*
Y206705D01*
X98815Y205705D01*
X100815D01*
X101814Y206705D01*
X103814Y205705D02*
X105813D01*
X104813D01*
Y211703D01*
X103814Y210703D01*
X111811Y205705D02*
Y211703D01*
X108812Y208704D01*
X112811D01*
X336931Y223881D02*
X335931Y222881D01*
Y220882D01*
X336931Y219882D01*
X340930D01*
X341929Y220882D01*
Y222881D01*
X340930Y223881D01*
X341929Y225880D02*
Y227879D01*
Y226880D01*
X335931D01*
X336931Y225880D01*
Y230878D02*
X335931Y231878D01*
Y233877D01*
X336931Y234877D01*
X337930D01*
X338930Y233877D01*
Y232878D01*
Y233877D01*
X339930Y234877D01*
X340930D01*
X341929Y233877D01*
Y231878D01*
X340930Y230878D01*
X276547Y78158D02*
X275547Y79157D01*
X273548D01*
X272548Y78158D01*
Y74159D01*
X273548Y73159D01*
X275547D01*
X276547Y74159D01*
X278546Y73159D02*
X280545D01*
X279546D01*
Y79157D01*
X278546Y78158D01*
X287543Y73159D02*
X283544D01*
X287543Y77158D01*
Y78158D01*
X286543Y79157D01*
X284544D01*
X283544Y78158D01*
X74255Y210703D02*
X73256Y211703D01*
X71256D01*
X70257Y210703D01*
Y206705D01*
X71256Y205705D01*
X73256D01*
X74255Y206705D01*
X76255Y205705D02*
X78254D01*
X77254D01*
Y211703D01*
X76255Y210703D01*
X81253Y205705D02*
X83252D01*
X82253D01*
Y211703D01*
X81253Y210703D01*
X424135Y399274D02*
X423136Y398275D01*
Y396275D01*
X424135Y395276D01*
X428134D01*
X429134Y396275D01*
Y398275D01*
X428134Y399274D01*
X429134Y401274D02*
Y403273D01*
Y402273D01*
X423136D01*
X424135Y401274D01*
Y406272D02*
X423136Y407272D01*
Y409271D01*
X424135Y410271D01*
X428134D01*
X429134Y409271D01*
Y407272D01*
X428134Y406272D01*
X424135D01*
X137248Y100467D02*
X136248Y101467D01*
X134248D01*
X133249Y100467D01*
Y96468D01*
X134248Y95469D01*
X136248D01*
X137248Y96468D01*
X139247D02*
X140246Y95469D01*
X142246D01*
X143245Y96468D01*
Y100467D01*
X142246Y101467D01*
X140246D01*
X139247Y100467D01*
Y99467D01*
X140246Y98468D01*
X143245D01*
X137248Y76845D02*
X136248Y77845D01*
X134248D01*
X133249Y76845D01*
Y72846D01*
X134248Y71847D01*
X136248D01*
X137248Y72846D01*
X139247Y76845D02*
X140246Y77845D01*
X142246D01*
X143245Y76845D01*
Y75845D01*
X142246Y74846D01*
X143245Y73846D01*
Y72846D01*
X142246Y71847D01*
X140246D01*
X139247Y72846D01*
Y73846D01*
X140246Y74846D01*
X139247Y75845D01*
Y76845D01*
X140246Y74846D02*
X142246D01*
X137248Y88656D02*
X136248Y89656D01*
X134248D01*
X133249Y88656D01*
Y84657D01*
X134248Y83658D01*
X136248D01*
X137248Y84657D01*
X139247Y89656D02*
X143245D01*
Y88656D01*
X139247Y84657D01*
Y83658D01*
X200240Y234325D02*
X199240Y235325D01*
X197241D01*
X196241Y234325D01*
Y230327D01*
X197241Y229327D01*
X199240D01*
X200240Y230327D01*
X206238Y235325D02*
X204238Y234325D01*
X202239Y232326D01*
Y230327D01*
X203239Y229327D01*
X205238D01*
X206238Y230327D01*
Y231326D01*
X205238Y232326D01*
X202239D01*
X326637Y122518D02*
X325637Y123518D01*
X323638D01*
X322638Y122518D01*
Y118519D01*
X323638Y117520D01*
X325637D01*
X326637Y118519D01*
X332635Y123518D02*
X328636D01*
Y120519D01*
X330635Y121518D01*
X331635D01*
X332635Y120519D01*
Y118519D01*
X331635Y117520D01*
X329636D01*
X328636Y118519D01*
X172680Y266609D02*
X171681Y267608D01*
X169682D01*
X168682Y266609D01*
Y262610D01*
X169682Y261610D01*
X171681D01*
X172680Y262610D01*
X177679Y261610D02*
Y267608D01*
X174680Y264609D01*
X178679D01*
X353802Y122912D02*
X352802Y123911D01*
X350803D01*
X349803Y122912D01*
Y118913D01*
X350803Y117913D01*
X352802D01*
X353802Y118913D01*
X355801Y122912D02*
X356801Y123911D01*
X358800D01*
X359800Y122912D01*
Y121912D01*
X358800Y120912D01*
X357801D01*
X358800D01*
X359800Y119913D01*
Y118913D01*
X358800Y117913D01*
X356801D01*
X355801Y118913D01*
X188429Y265821D02*
X187429Y266821D01*
X185430D01*
X184430Y265821D01*
Y261823D01*
X185430Y260823D01*
X187429D01*
X188429Y261823D01*
X194427Y260823D02*
X190428D01*
X194427Y264822D01*
Y265821D01*
X193427Y266821D01*
X191428D01*
X190428Y265821D01*
X341896Y122591D02*
X340897Y123590D01*
X338897D01*
X337898Y122591D01*
Y118592D01*
X338897Y117592D01*
X340897D01*
X341896Y118592D01*
X343896Y117592D02*
X345895D01*
X344895D01*
Y123590D01*
X343896Y122591D01*
X345243Y411702D02*
Y417700D01*
X348242D01*
X349241Y416701D01*
Y414701D01*
X348242Y413702D01*
X345243D01*
X347242D02*
X349241Y411702D01*
X355239D02*
X351241D01*
X355239Y415701D01*
Y416701D01*
X354240Y417700D01*
X352240D01*
X351241Y416701D01*
X360238Y411702D02*
Y417700D01*
X357239Y414701D01*
X361237D01*
D35*
X319390Y337303D02*
G03*
X319390Y337303I-492J0D01*
G01*
X139450Y179918D02*
G03*
X139450Y179918I-492J0D01*
G01*
D36*
X149194Y175193D02*
G03*
X149194Y175193I-1181J0D01*
G01*
D37*
X383661Y373622D02*
X384055D01*
X380315Y377972D02*
Y397972D01*
X300315Y377972D02*
Y397972D01*
Y377972D02*
X380315D01*
X300315Y397972D02*
X380315D01*
X323622Y322539D02*
X326771D01*
X323622Y316634D02*
X326771D01*
X347146Y322047D02*
Y325197D01*
X341240Y322047D02*
Y325197D01*
X347342Y333563D02*
X350492D01*
X347342Y339468D02*
X350492D01*
X371654Y342717D02*
Y345866D01*
X377559Y342717D02*
Y345866D01*
X368996Y361122D02*
X372146D01*
X368996Y355217D02*
X372146D01*
X358268Y320866D02*
Y324016D01*
X364173Y320866D02*
Y324016D01*
X367618Y323130D02*
Y326280D01*
X373523Y323130D02*
Y326280D01*
X307973Y359154D02*
X311122D01*
X307973Y365059D02*
X311122D01*
X325788Y375295D02*
X328937D01*
X325788Y369390D02*
X328937D01*
X343406Y372933D02*
X346555D01*
X343406Y367027D02*
X346555D01*
X360630Y344193D02*
Y347343D01*
X366535Y344193D02*
Y347343D01*
X339074Y341634D02*
Y355020D01*
X319390Y341634D02*
Y355020D01*
X339074D01*
X319390Y341634D02*
X339074D01*
X87580Y213579D02*
X92304D01*
X40229Y74569D02*
Y254570D01*
X60229Y74569D02*
Y254570D01*
X40229D02*
X60229D01*
X40229Y74569D02*
X60229D01*
X144076Y145666D02*
Y179130D01*
X177540Y145666D02*
Y179130D01*
X144076D02*
X177540D01*
X144076Y145666D02*
X177540D01*
X168702Y285075D02*
X248702D01*
X168702Y265075D02*
X248702D01*
X168702D02*
Y285075D01*
X248702Y265075D02*
Y285075D01*
X374875Y74569D02*
Y254570D01*
X394875Y74569D02*
Y254570D01*
X374875D02*
X394875D01*
X374875Y74569D02*
X394875D01*
X321438Y258264D02*
X323013D01*
X321438Y255508D02*
X323013D01*
X222422Y106492D02*
Y108067D01*
X225178Y106492D02*
Y108067D01*
X214548Y106492D02*
Y108067D01*
X217304Y106492D02*
Y108067D01*
X132461Y246453D02*
X134036D01*
X132461Y243697D02*
X134036D01*
X132461Y254327D02*
X134036D01*
X132461Y251571D02*
X134036D01*
X321438Y247634D02*
X323013D01*
X321438Y250390D02*
X323013D01*
X233052Y106492D02*
Y108067D01*
X230296Y106492D02*
Y108067D01*
X132461Y259445D02*
X134036D01*
X132461Y262201D02*
X134036D01*
X317501Y74406D02*
X319076D01*
X317501Y77162D02*
X319076D01*
X85217Y112595D02*
X86792D01*
X85217Y109839D02*
X86792D01*
X85217Y120469D02*
X86792D01*
X85217Y117713D02*
X86792D01*
X317501Y82280D02*
X319076D01*
X317501Y85036D02*
X319076D01*
X262383Y258264D02*
X263958D01*
X262383Y255508D02*
X263958D01*
X262383Y250390D02*
X263957D01*
X262383Y247634D02*
X263957D01*
X344087Y230421D02*
X348811D01*
X182068Y76177D02*
X186792D01*
X99391Y213973D02*
X104115D01*
X75769D02*
X80493D01*
X255690Y77359D02*
Y82083D01*
X415336Y407477D02*
X420060D01*
X174194Y256492D02*
X178918D01*
X128918Y73422D02*
Y78146D01*
X128918Y97044D02*
Y101768D01*
X128918Y85232D02*
Y89957D01*
X176950Y230902D02*
Y235626D01*
X327737Y114760D02*
X332461D01*
X186005Y256492D02*
X190729D01*
X351359Y114760D02*
X356083D01*
X339548Y114760D02*
X344272D01*
X308563Y346752D02*
Y349902D01*
X302658Y346752D02*
Y349902D01*
X310039Y331102D02*
Y334252D01*
X315945Y331102D02*
Y334252D01*
X333465Y240650D02*
Y242224D01*
X336221Y240650D02*
Y242224D01*
X346063Y363386D02*
X347638D01*
X346063Y360630D02*
X347638D01*
X355414Y357382D02*
Y358957D01*
X358169Y357382D02*
Y358957D01*
X346162Y354823D02*
X347736D01*
X346162Y357579D02*
X347736D01*
X339469Y310729D02*
X341043D01*
X339469Y313484D02*
X341043D01*
X346161Y343012D02*
X347736D01*
X346161Y345768D02*
X347736D01*
X338189Y320768D02*
Y322343D01*
X335433Y320768D02*
Y322343D01*
X396653Y340158D02*
Y349803D01*
X384449Y340158D02*
Y349803D01*
Y320473D02*
Y330709D01*
X396653Y320473D02*
Y330709D01*
X386220Y351575D02*
X394882D01*
X384449Y349803D02*
X386220Y351575D01*
X394882D02*
X396653Y349803D01*
X384449Y320473D02*
X396653D01*
X398622Y347047D02*
Y356693D01*
X410827Y347047D02*
Y356693D01*
Y366142D02*
Y376378D01*
X398622Y366142D02*
Y376378D01*
X400394Y345275D02*
X409055D01*
X410827Y347047D01*
X398622D02*
X400394Y345275D01*
X398622Y376378D02*
X410827D01*
X401772Y338976D02*
X402165D01*
X352756Y320768D02*
Y322342D01*
X350000Y320768D02*
Y322342D01*
X351575Y349114D02*
X353150D01*
X351575Y351870D02*
X353150D01*
X347933Y402953D02*
Y404528D01*
X345177Y402953D02*
Y404528D01*
D38*
X74099Y71746D02*
Y74946D01*
Y71746D02*
X77299D01*
X91899D02*
X95099D01*
Y74946D01*
Y89547D02*
Y92747D01*
X91899D02*
X95099D01*
X74099Y89547D02*
Y92747D01*
X77299D01*
X215995Y75346D02*
X216394Y74946D01*
X215895Y75346D02*
X215995D01*
X215895D02*
X216394D01*
X216694Y75046D01*
Y74847D02*
Y75046D01*
X78199Y242670D02*
X78599Y242269D01*
X78099Y242670D02*
X78199D01*
X78099D02*
X78599D01*
X78899Y242370D01*
Y242169D02*
Y242370D01*
X339847Y71746D02*
Y74946D01*
Y71746D02*
X343047D01*
X357647D02*
X360847D01*
Y74946D01*
Y89547D02*
Y92747D01*
X357647D02*
X360847D01*
X339847Y89547D02*
Y92747D01*
X343047D01*
X343947Y242670D02*
X344347Y242269D01*
X343847Y242670D02*
X343947D01*
X343847D02*
X344347D01*
X344647Y242370D01*
Y242169D02*
Y242370D01*
X211894Y239070D02*
Y242269D01*
Y239070D02*
X215094D01*
X229694D02*
X232894D01*
Y242269D01*
Y256870D02*
Y260069D01*
X229694D02*
X232894D01*
X211894Y256870D02*
Y260069D01*
X215094D01*
D39*
X80199Y86447D02*
Y87347D01*
X80299Y86447D02*
Y87947D01*
X78799Y86447D02*
X80299D01*
X78799D02*
X80299Y87947D01*
X78999Y86547D02*
X80299Y87947D01*
X78999Y86547D02*
X79299D01*
X80299Y87647D01*
X79199Y86647D02*
X80299Y87647D01*
X79199Y86647D02*
X79499Y86547D01*
X80199Y87347D01*
X80099Y86647D02*
X80199Y86447D01*
X79399Y86647D02*
X80099D01*
X79399D02*
X80199Y87047D01*
X80099Y86747D02*
X80199Y87047D01*
X79799Y86847D02*
X80099Y86747D01*
X79799Y86847D02*
X80199D01*
X80599Y86247D02*
X88599D01*
Y78247D02*
Y86247D01*
X80599Y78247D02*
X88599D01*
X80599D02*
Y86247D01*
X216394Y74946D02*
Y75346D01*
Y74946D02*
X216494Y75247D01*
X216595Y75046D01*
X216694Y74647D02*
Y74847D01*
X216595Y75247D02*
X216794Y75346D01*
X215895D02*
X216694Y74647D01*
X216595Y74347D02*
X216694Y74647D01*
X215595Y75446D02*
X216595Y74347D01*
X215595Y75446D02*
X216694Y74446D01*
Y74146D02*
Y74446D01*
X215295Y75446D02*
X216694Y74146D01*
X215295Y75446D02*
X216794Y73946D01*
Y75446D01*
X215295D02*
X216794D01*
X215895Y75346D02*
X216794D01*
X217473Y76541D02*
X218394Y76540D01*
X217473Y85447D02*
Y88352D01*
X218394Y88353D01*
X217473Y76541D02*
Y79447D01*
X226394Y76541D02*
X227316D01*
Y79447D01*
Y85347D02*
Y88352D01*
X226395Y88446D02*
X227316D01*
X78599Y242269D02*
Y242670D01*
Y242269D02*
X78699Y242569D01*
X78799Y242370D01*
X78899Y241969D02*
Y242169D01*
X78799Y242569D02*
X78999Y242670D01*
X78099D02*
X78899Y241969D01*
X78799Y241670D02*
X78899Y241969D01*
X77799Y242770D02*
X78799Y241670D01*
X77799Y242770D02*
X78899Y241770D01*
Y241470D02*
Y241770D01*
X77499Y242770D02*
X78899Y241470D01*
X77499Y242770D02*
X78999Y241269D01*
Y242770D01*
X77499D02*
X78999D01*
X78099Y242670D02*
X78999D01*
X79678Y243864D02*
X80599Y243863D01*
X79678Y252769D02*
Y255675D01*
X80599Y255676D01*
X79678Y243864D02*
Y246769D01*
X88599Y243864D02*
X89521D01*
Y246769D01*
Y252670D02*
Y255675D01*
X88599Y255769D02*
X89521D01*
X345947Y86447D02*
Y87347D01*
X346047Y86447D02*
Y87947D01*
X344547Y86447D02*
X346047D01*
X344547D02*
X346047Y87947D01*
X344747Y86547D02*
X346047Y87947D01*
X344747Y86547D02*
X345047D01*
X346047Y87647D01*
X344947Y86647D02*
X346047Y87647D01*
X344947Y86647D02*
X345247Y86547D01*
X345947Y87347D01*
X345847Y86647D02*
X345947Y86447D01*
X345147Y86647D02*
X345847D01*
X345147D02*
X345947Y87047D01*
X345847Y86747D02*
X345947Y87047D01*
X345547Y86847D02*
X345847Y86747D01*
X345547Y86847D02*
X345947D01*
X346347Y86247D02*
X354347D01*
Y78247D02*
Y86247D01*
X346347Y78247D02*
X354347D01*
X346347D02*
Y86247D01*
X344347Y242269D02*
Y242670D01*
Y242269D02*
X344447Y242569D01*
X344547Y242370D01*
X344647Y241969D02*
Y242169D01*
X344547Y242569D02*
X344747Y242670D01*
X343847D02*
X344647Y241969D01*
X344547Y241670D02*
X344647Y241969D01*
X343547Y242770D02*
X344547Y241670D01*
X343547Y242770D02*
X344647Y241770D01*
Y241470D02*
Y241770D01*
X343247Y242770D02*
X344647Y241470D01*
X343247Y242770D02*
X344747Y241269D01*
Y242770D01*
X343247D02*
X344747D01*
X343847Y242670D02*
X344747D01*
X345426Y243864D02*
X346347Y243863D01*
X345426Y252769D02*
Y255675D01*
X346347Y255676D01*
X345426Y243864D02*
Y246769D01*
X354347Y243864D02*
X355269D01*
Y246769D01*
Y252670D02*
Y255675D01*
X354347Y255769D02*
X355269D01*
X217994Y253769D02*
Y254669D01*
X218094Y253769D02*
Y255270D01*
X216595Y253769D02*
X218094D01*
X216595D02*
X218094Y255270D01*
X216794Y253870D02*
X218094Y255270D01*
X216794Y253870D02*
X217094D01*
X218094Y254970D01*
X216995Y253970D02*
X218094Y254970D01*
X216995Y253970D02*
X217295Y253870D01*
X217994Y254669D01*
X217895Y253970D02*
X217994Y253769D01*
X217195Y253970D02*
X217895D01*
X217195D02*
X217994Y254369D01*
X217895Y254069D02*
X217994Y254369D01*
X217595Y254170D02*
X217895Y254069D01*
X217595Y254170D02*
X217994D01*
X218394Y253570D02*
X226395D01*
Y245569D02*
Y253570D01*
X218394Y245569D02*
X226395D01*
X218394D02*
Y253570D01*
D40*
X298647Y390972D02*
X295315D01*
X298647Y394305D01*
Y395138D01*
X297814Y395971D01*
X296148D01*
X295315Y395138D01*
Y380972D02*
X296981D01*
X296148D01*
Y385971D01*
X295315Y385138D01*
X381315Y380972D02*
X382981D01*
X382148D01*
Y385971D01*
X381315Y385138D01*
X388812Y385971D02*
X385480D01*
Y383472D01*
X387146Y384305D01*
X387980D01*
X388812Y383472D01*
Y381805D01*
X387980Y380972D01*
X386313D01*
X385480Y381805D01*
X381315Y390972D02*
X382981D01*
X382148D01*
Y395971D01*
X381315Y395138D01*
X388812Y395971D02*
X387146Y395138D01*
X385480Y393472D01*
Y391806D01*
X386313Y390972D01*
X387980D01*
X388812Y391806D01*
Y392639D01*
X387980Y393472D01*
X385480D01*
X57394Y73569D02*
X58227Y72736D01*
Y71070D01*
X57394Y70237D01*
X56561D01*
X55728Y71070D01*
Y71903D01*
Y71070D01*
X54895Y70237D01*
X54062D01*
X53229Y71070D01*
Y72736D01*
X54062Y73569D01*
X58227Y65239D02*
X57394Y66905D01*
X55728Y68571D01*
X54062D01*
X53229Y67738D01*
Y66072D01*
X54062Y65239D01*
X54895D01*
X55728Y66072D01*
Y68571D01*
X47394Y73569D02*
X48228Y72736D01*
Y71070D01*
X47394Y70237D01*
X46561D01*
X45728Y71070D01*
Y71903D01*
Y71070D01*
X44895Y70237D01*
X44062D01*
X43229Y71070D01*
Y72736D01*
X44062Y73569D01*
X48228Y65239D02*
Y68571D01*
X45728D01*
X46561Y66905D01*
Y66072D01*
X45728Y65239D01*
X44062D01*
X43229Y66072D01*
Y67738D01*
X44062Y68571D01*
X43229Y259569D02*
Y257903D01*
Y258736D01*
X48228D01*
X47394Y259569D01*
X53229Y258237D02*
Y261569D01*
X56561Y258237D01*
X57394D01*
X58227Y259070D01*
Y260736D01*
X57394Y261569D01*
X249701Y278075D02*
X251368D01*
X250535D01*
Y283073D01*
X249701Y282240D01*
X257199Y283073D02*
X255533Y282240D01*
X253867Y280574D01*
Y278908D01*
X254700Y278075D01*
X256366D01*
X257199Y278908D01*
Y279741D01*
X256366Y280574D01*
X253867D01*
X249701Y268075D02*
X251368D01*
X250535D01*
Y273073D01*
X249701Y272240D01*
X257199Y273073D02*
X253867D01*
Y270574D01*
X255533Y271407D01*
X256366D01*
X257199Y270574D01*
Y268908D01*
X256366Y268075D01*
X254700D01*
X253867Y268908D01*
X163701Y268075D02*
X165368D01*
X164535D01*
Y273073D01*
X163701Y272240D01*
X167034Y278075D02*
X163701D01*
X167034Y281407D01*
Y282240D01*
X166201Y283073D01*
X164535D01*
X163701Y282240D01*
X392040Y73569D02*
X392873Y72736D01*
Y71070D01*
X392040Y70237D01*
X391207D01*
X390374Y71070D01*
Y71903D01*
Y71070D01*
X389541Y70237D01*
X388708D01*
X387875Y71070D01*
Y72736D01*
X388708Y73569D01*
X392873Y65239D02*
X392040Y66905D01*
X390374Y68571D01*
X388708D01*
X387875Y67738D01*
Y66072D01*
X388708Y65239D01*
X389541D01*
X390374Y66072D01*
Y68571D01*
X382040Y73569D02*
X382873Y72736D01*
Y71070D01*
X382040Y70237D01*
X381207D01*
X380374Y71070D01*
Y71903D01*
Y71070D01*
X379541Y70237D01*
X378708D01*
X377875Y71070D01*
Y72736D01*
X378708Y73569D01*
X382873Y65239D02*
Y68571D01*
X380374D01*
X381207Y66905D01*
Y66072D01*
X380374Y65239D01*
X378708D01*
X377875Y66072D01*
Y67738D01*
X378708Y68571D01*
X377875Y259569D02*
Y257903D01*
Y258736D01*
X382873D01*
X382040Y259569D01*
X387875Y258237D02*
Y261569D01*
X391207Y258237D01*
X392040D01*
X392873Y259070D01*
Y260736D01*
X392040Y261569D01*
M02*
